<?xml version="1.0" encoding="UTF-8"?>
<svg version="1.1" xmlns="http://www.w3.org/2000/svg" width="512" height="512">
<path d="M0 0 C2.49845619 0.02370174 4.99584333 0.02051363 7.49438477 0.01391602 C40.9855122 0.07134631 68.59932452 8.92531403 92.93383789 32.33618164 C93.90256836 33.19276367 93.90256836 33.19276367 94.89086914 34.06665039 C112.68367201 50.27601881 124.0422844 79.92314813 125.20483398 103.5065918 C125.31182363 107.08033519 125.31148008 110.65023268 125.27001953 114.22509766 C125.24631074 116.40117386 125.24950683 118.57602307 125.25610352 120.75219727 C125.23661432 129.78639574 124.47588738 138.41665667 122.93383789 147.33618164 C123.84842773 147.53920898 123.84842773 147.53920898 124.78149414 147.74633789 C128.85119758 148.86162867 131.18680993 151.07857995 133.32836914 154.68383789 C138.58295603 164.96586815 139.83109318 176.48466925 136.80883789 187.77368164 C132.88563365 198.69998878 125.17204286 207.0568214 114.94946289 212.29321289 C111.93383789 213.33618164 111.93383789 213.33618164 109.40063477 213.44116211 C106.20080162 213.65167745 103.87325868 214.02608381 100.93383789 215.33618164 C98.16406225 218.87663966 96.44523812 222.72653575 94.74987793 226.85299683 C93.36903696 230.20879154 91.85012173 233.50248499 90.35571289 236.80883789 C90.06468689 237.46380753 89.77366089 238.11877716 89.47381592 238.79359436 C85.74427647 247.13670103 81.00968122 254.75922619 75.93383789 262.33618164 C75.51682617 262.96508301 75.09981445 263.59398437 74.67016602 264.24194336 C67.48731553 274.97980058 59.09461441 284.24119166 49.93383789 293.33618164 C50.64668945 294.37516602 51.35954102 295.41415039 52.09399414 296.48461914 C52.55338379 297.1557373 53.01277344 297.82685547 53.48608398 298.51831055 C54.50100144 299.99195887 55.523608 301.46033839 56.5534668 302.92358398 C58.73361215 306.03463971 60.77248086 309.01590622 62.48461914 312.41430664 C64.97124228 317.19683846 67.37076509 319.3414797 72.46899414 320.99243164 C75.19352173 321.76935264 77.92711366 322.47498363 80.67724609 323.15551758 C94.10096516 326.48026328 109.03080385 333.4331476 118.93383789 343.33618164 C121.00067641 343.56448539 121.00067641 343.56448539 123.37915039 343.42602539 C124.2835083 343.4037085 125.18786621 343.3813916 126.11962891 343.35839844 C127.08956787 343.33044189 128.05950684 343.30248535 129.05883789 343.27368164 C154.39737371 342.93841244 176.19264414 351.20221495 194.56665039 368.86743164 C210.56103037 385.49767382 218.48935348 407.34971392 218.28735352 430.27441406 C217.63798094 453.19958528 208.04824618 474.8980433 191.40649414 490.74243164 C170.36076321 508.79045934 147.06499069 513.98258361 119.93383789 512.33618164 C104.14896198 510.60471697 88.61464471 502.89510306 76.93383789 492.33618164 C75.6635283 491.29387634 74.39273753 490.25215704 73.12133789 489.21118164 C69.99895082 486.50313977 67.41515594 483.6446057 64.93383789 480.33618164 C64.93383789 479.67618164 64.93383789 479.01618164 64.93383789 478.33618164 C-5.35616211 478.33618164 -75.64616211 478.33618164 -148.06616211 478.33618164 C-148.06616211 389.66041372 -148.06616211 389.66041372 -122.06616211 358.33618164 C-121.33139648 357.42610352 -120.59663086 356.51602539 -119.83959961 355.57836914 C-105.00109066 338.15924993 -81.24479108 322.95866714 -58.12866211 320.52368164 C-56.7755006 320.44227192 -55.42131649 320.37125622 -54.06616211 320.33618164 C-53.79884277 319.47105957 -53.53152344 318.6059375 -53.25610352 317.71459961 C-52.0815386 314.37983775 -50.67119445 311.40849806 -49.02709961 308.28149414 C-48.44702148 307.17290039 -47.86694336 306.06430664 -47.26928711 304.92211914 C-46.66600586 303.78000977 -46.06272461 302.63790039 -45.44116211 301.46118164 C-44.83014648 300.29586914 -44.21913086 299.13055664 -43.58959961 297.92993164 C-42.08575709 295.06323183 -40.57783193 292.19875943 -39.06616211 289.33618164 C-39.72060303 288.71283936 -40.37504395 288.08949707 -41.04931641 287.44726562 C-59.26522361 269.96068203 -72.19520907 248.0865429 -83.50366211 225.71118164 C-83.83382324 225.06028564 -84.16398437 224.40938965 -84.50415039 223.73876953 C-86.35367347 220.01407587 -87.84894173 216.31202709 -89.06616211 212.33618164 C-90.17991211 212.39805664 -91.29366211 212.45993164 -92.44116211 212.52368164 C-102.30133356 212.47151142 -110.6755955 208.34256533 -117.82006836 201.70727539 C-125.22689849 193.70641377 -127.45076744 184.42012065 -127.34350586 173.78930664 C-126.65134616 165.17143097 -123.01992679 157.58108396 -117.06616211 151.33618164 C-115.92874852 150.59394961 -114.7832359 149.86392805 -113.62866211 149.14868164 C-110.77827454 146.64312533 -110.77827454 146.64312533 -111.02368164 143.68139648 C-111.14340332 142.62645996 -111.263125 141.57152344 -111.38647461 140.48461914 C-113.18781978 122.04664662 -115.1180932 98.91738048 -105.06616211 82.33618164 C-103.13527955 80.21798239 -101.04275379 78.33723756 -98.87866211 76.46118164 C-98.31985352 75.96360352 -97.76104492 75.46602539 -97.18530273 74.95336914 C-95.81955857 73.73937432 -94.44385966 72.53659408 -93.06616211 71.33618164 C-93.28272461 70.68133789 -93.49928711 70.02649414 -93.72241211 69.35180664 C-96.7317798 59.48776809 -97.7819445 50.17215851 -93.37866211 40.57055664 C-91.16115339 36.79551204 -88.39288838 34.14445706 -85.06616211 31.33618164 C-83.82286133 30.25530273 -83.82286133 30.25530273 -82.55444336 29.15258789 C-58.65252942 8.93313715 -30.99468699 -0.31301625 0 0 Z " fill="#FED4AD" transform="translate(234.066162109375,-0.336181640625)"/>
<path d="M0 0 C3.65368562 0.80596717 6.07146855 2.21266351 9.1875 4.3125 C25.03279911 14.54810273 42.76710174 17.27699174 61.37109375 14.49609375 C64.01418564 13.82477143 66.46614288 13.0055622 69 12 C70.01449219 11.61328125 71.02898437 11.2265625 72.07421875 10.828125 C77.668128 8.59881799 82.8118434 6.03933054 88 3 C89.30372246 4.84519949 90.60685913 6.69079106 91.90795898 8.5378418 C93.01876032 10.10692858 94.13688497 11.67085448 95.26196289 13.22973633 C97.59284438 16.47606772 99.78653017 19.58491978 101.6171875 23.14453125 C104.09093706 27.90906072 106.45479816 30.00775957 111.53125 31.65234375 C114.25713569 32.4309157 116.99185162 33.13845314 119.74365234 33.81958008 C133.16714458 37.14339251 148.09739605 44.09739605 158 54 C160.06683852 54.22830375 160.06683852 54.22830375 162.4453125 54.08984375 C163.34967041 54.06752686 164.25402832 54.04520996 165.18579102 54.0222168 C166.15572998 53.99426025 167.12566895 53.96630371 168.125 53.9375 C193.46353582 53.60223079 215.25880625 61.86603331 233.6328125 79.53125 C249.62719248 96.16149218 257.55551559 118.01353228 257.35351562 140.93823242 C256.70414305 163.86340364 247.11440829 185.56186166 230.47265625 201.40625 C209.42692532 219.4542777 186.1311528 224.64640196 159 223 C143.21512409 221.26853533 127.68080682 213.55892142 116 203 C114.72969041 201.95769469 113.45889964 200.91597539 112.1875 199.875 C109.06511293 197.16695813 106.48131805 194.30842406 104 191 C104 190.34 104 189.68 104 189 C33.71 189 -36.58 189 -109 189 C-109 100.32423208 -109 100.32423208 -83 69 C-82.26523438 68.08992188 -81.53046875 67.17984375 -80.7734375 66.2421875 C-65.93492855 48.82306829 -42.17862897 33.6224855 -19.0625 31.1875 C-17.70933849 31.10609028 -16.35515438 31.03507458 -15 31 C-14.73268066 30.13487793 -14.46536133 29.26975586 -14.18994141 28.37841797 C-13.01537649 25.04365611 -11.60503234 22.07231641 -9.9609375 18.9453125 C-9.38085938 17.83671875 -8.80078125 16.728125 -8.203125 15.5859375 C-7.59984375 14.44382812 -6.9965625 13.30171875 -6.375 12.125 C-5.76398438 10.9596875 -5.15296875 9.794375 -4.5234375 8.59375 C-3.01959498 5.72705019 -1.51166982 2.86257779 0 0 Z " fill="#FE9B79" transform="translate(195,289)"/>
<path d="M0 0 C18.07928178 14.22507304 30.81371254 33.80976299 33.99560547 56.89111328 C36.6218642 81.32943916 30.11637232 104.24795651 14.97265625 123.69140625 C1.80654959 139.1443746 -17.61926033 150.13878006 -37.77734375 153.00390625 C-60.91810276 154.72126599 -83.69533908 151.67444631 -102.40234375 136.87890625 C-103.87261448 135.60084409 -105.33216913 134.31027879 -106.77734375 133.00390625 C-108.04765334 131.96160094 -109.31844411 130.91988164 -110.58984375 129.87890625 C-117.13415587 124.14498792 -120.81342254 117.66958457 -124.77734375 110.00390625 C-125.22335937 109.17503906 -125.669375 108.34617187 -126.12890625 107.4921875 C-132.76477595 94.85146638 -134.96547442 83.0862807 -135.02734375 68.94140625 C-135.04796875 67.78962891 -135.06859375 66.63785156 -135.08984375 65.45117188 C-135.14069801 54.11702918 -133.16421019 43.64467242 -128.15234375 33.44140625 C-127.80751953 32.72670166 -127.46269531 32.01199707 -127.10742188 31.27563477 C-116.80392647 10.64783348 -98.53721915 -4.67786201 -76.77734375 -11.99609375 C-50.55528223 -20.08451972 -22.49350126 -16.16621539 0 0 Z " fill="#239198" transform="translate(417.77734375,358.99609375)"/>
<path d="M0 0 C2.49845619 0.02370174 4.99584333 0.02051363 7.49438477 0.01391602 C40.9855122 0.07134631 68.59932452 8.92531403 92.93383789 32.33618164 C93.90256836 33.19276367 93.90256836 33.19276367 94.89086914 34.06665039 C112.68367201 50.27601881 124.0422844 79.92314813 125.20483398 103.5065918 C125.31182363 107.08033519 125.31148008 110.65023268 125.27001953 114.22509766 C125.24631074 116.40117386 125.24950683 118.57602307 125.25610352 120.75219727 C125.23661432 129.78639574 124.47588738 138.41665667 122.93383789 147.33618164 C123.54356445 147.4715332 124.15329102 147.60688477 124.78149414 147.74633789 C128.85119758 148.86162867 131.18680993 151.07857995 133.32836914 154.68383789 C138.58295603 164.96586815 139.83109318 176.48466925 136.80883789 187.77368164 C133.28170765 197.59690418 126.31306993 206.15543605 117.18383789 211.21118164 C111.88082211 213.69951981 106.73956374 214.21476912 100.93383789 214.33618164 C101.6749803 208.71865907 103.58211163 204.03662772 105.77758789 198.84790039 C108.66693112 190.07249647 108.21377163 180.61189992 108.24633789 171.46118164 C108.2489563 170.75275116 108.25157471 170.04432068 108.25427246 169.31442261 C108.46585133 132.85433175 108.46585133 132.85433175 98.93383789 98.33618164 C98.08821289 98.61333008 97.24258789 98.89047852 96.37133789 99.17602539 C94.66977539 99.71936523 94.66977539 99.71936523 92.93383789 100.27368164 C91.82008789 100.63333008 90.70633789 100.99297852 89.55883789 101.36352539 C71.06587493 106.32553808 52.27406263 104.24452251 35.74633789 94.89868164 C33.72224791 93.7293442 31.70443675 92.5500133 29.68920898 91.36547852 C7.92438244 78.60323808 -17.88680926 73.69779053 -42.60522461 79.36352539 C-58.31934846 83.77979722 -71.92520585 91.72180714 -80.19116211 106.02368164 C-81.52578979 108.44000354 -82.80823259 110.87916906 -84.06616211 113.33618164 C-84.7796582 114.72256836 -84.7796582 114.72256836 -85.50756836 116.13696289 C-89.62519263 125.05633082 -91.42896434 134.66905092 -93.41918945 144.23461914 C-94.0940736 147.4699883 -94.79291314 150.69970113 -95.49194336 153.92993164 C-95.9557786 156.12751212 -96.41805261 158.32542279 -96.87866211 160.52368164 C-97.09780273 161.537771 -97.31694336 162.55186035 -97.54272461 163.59667969 C-100.04428432 175.86743528 -99.214318 184.59034895 -94.62866211 196.27368164 C-93.79537941 198.46982179 -92.96329582 200.6664174 -92.13256836 202.86352539 C-91.76075439 203.8199292 -91.38894043 204.77633301 -91.00585938 205.76171875 C-90.20807432 207.94738864 -89.57335636 210.06866608 -89.06616211 212.33618164 C-99.49461723 212.91554026 -107.96321292 209.94607301 -116.06616211 203.33618164 C-122.51172661 197.34998922 -126.56897106 189.27802227 -127.30444336 180.48852539 C-127.56553523 169.17912477 -125.01617453 159.67494772 -117.06616211 151.33618164 C-115.92874852 150.59394961 -114.7832359 149.86392805 -113.62866211 149.14868164 C-110.77827454 146.64312533 -110.77827454 146.64312533 -111.02368164 143.68139648 C-111.14340332 142.62645996 -111.263125 141.57152344 -111.38647461 140.48461914 C-113.18781978 122.04664662 -115.1180932 98.91738048 -105.06616211 82.33618164 C-103.13527955 80.21798239 -101.04275379 78.33723756 -98.87866211 76.46118164 C-98.31985352 75.96360352 -97.76104492 75.46602539 -97.18530273 74.95336914 C-95.81955857 73.73937432 -94.44385966 72.53659408 -93.06616211 71.33618164 C-93.28272461 70.68133789 -93.49928711 70.02649414 -93.72241211 69.35180664 C-96.7317798 59.48776809 -97.7819445 50.17215851 -93.37866211 40.57055664 C-91.16115339 36.79551204 -88.39288838 34.14445706 -85.06616211 31.33618164 C-84.23729492 30.6155957 -83.40842773 29.89500977 -82.55444336 29.15258789 C-58.65252942 8.93313715 -30.99468699 -0.31301625 0 0 Z " fill="#FF9C7A" transform="translate(234.066162109375,-0.336181640625)"/>
<path d="M0 0 C3.65368562 0.80596717 6.07146855 2.21266351 9.1875 4.3125 C25.03279911 14.54810273 42.76710174 17.27699174 61.37109375 14.49609375 C64.01418564 13.82477143 66.46614288 13.0055622 69 12 C70.01449219 11.61328125 71.02898437 11.2265625 72.07421875 10.828125 C77.668128 8.59881799 82.8118434 6.03933054 88 3 C88.79300747 4.12236848 89.58596512 5.24477215 90.37890625 6.3671875 C90.88518555 7.08374512 91.39146484 7.80030273 91.91308594 8.53857422 C93.01496903 10.09941218 94.11587691 11.66093904 95.21582031 13.22314453 C97.57855275 16.57816857 99.94091693 19.93200069 102.35546875 23.25 C103.29326172 24.549375 103.29326172 24.549375 104.25 25.875 C104.79140625 26.61492187 105.3328125 27.35484375 105.890625 28.1171875 C107 30 107 30 107 33 C106.33170166 33.26103516 105.66340332 33.52207031 104.97485352 33.79101562 C88.70085954 40.13761127 88.70085954 40.13761127 72.8125 47.375 C54.21889778 56.39440105 36.77729667 56.66650454 17.21948242 50.30175781 C5.67398077 46.20444242 -4.6460049 39.43974972 -15 33 C-14.4447572 28.23808713 -13.07443338 24.7354145 -10.83984375 20.5078125 C-10.53051407 19.91700897 -10.22118439 19.32620544 -9.90248108 18.71749878 C-8.92195462 16.84909989 -7.92997882 14.98707242 -6.9375 13.125 C-6.26680933 11.85196724 -5.5968796 10.57853327 -4.92773438 9.3046875 C-3.29392932 6.19843703 -1.64980538 3.09778805 0 0 Z " fill="#D94635" transform="translate(195,289)"/>
<path d="M0 0 C4.55555556 0.55555556 4.55555556 0.55555556 6 2 C6.08865208 4.8843382 6.11521296 7.74462158 6.09765625 10.62890625 C6.0962413 11.49313705 6.09482635 12.35736786 6.09336853 13.24778748 C6.08775239 16.01939292 6.07519719 18.7909188 6.0625 21.5625 C6.05748708 23.4368478 6.05292381 25.31119685 6.04882812 27.18554688 C6.03777772 31.79039544 6.0205023 36.39518421 6 41 C7.748573 40.97643433 7.748573 40.97643433 9.5324707 40.95239258 C13.85417786 40.89812466 18.17585485 40.86366141 22.49780273 40.83520508 C24.36894799 40.82011127 26.24005783 40.79963411 28.11108398 40.77368164 C30.79940526 40.73732407 33.48725913 40.72027985 36.17578125 40.70703125 C37.43217155 40.68380547 37.43217155 40.68380547 38.71394348 40.66011047 C44.56901838 40.65841082 44.56901838 40.65841082 46.75675964 42.39237976 C48 44 48 44 47.8125 46.0625 C47 48 47 48 45 50 C42.05903263 50.17539436 39.21346651 50.23132375 36.2734375 50.1953125 C35.41062164 50.1924826 34.54780579 50.18965271 33.65884399 50.18673706 C30.8974228 50.17552333 28.1363235 50.15041684 25.375 50.125 C23.50521301 50.11497173 21.63542095 50.10584562 19.765625 50.09765625 C15.17695891 50.07558012 10.58853407 50.04104234 6 50 C6.01571045 51.75642822 6.01571045 51.75642822 6.03173828 53.54833984 C6.06787497 57.88310705 6.09087733 62.21786089 6.10986328 66.55273438 C6.11993534 68.43068682 6.13359362 70.30862353 6.15087891 72.18652344 C6.17507453 74.8822009 6.18647083 77.57767146 6.1953125 80.2734375 C6.20563507 81.11619232 6.21595764 81.95894714 6.22659302 82.82723999 C6.22699144 84.88621247 6.12257588 86.94467935 6 89 C5.34 89.66 4.68 90.32 4 91 C-0.55555556 90.44444444 -0.55555556 90.44444444 -2 89 C-2.08865208 86.1156618 -2.11521296 83.25537842 -2.09765625 80.37109375 C-2.0962413 79.50686295 -2.09482635 78.64263214 -2.09336853 77.75221252 C-2.08775239 74.98060708 -2.07519719 72.2090812 -2.0625 69.4375 C-2.05748708 67.5631522 -2.05292381 65.68880315 -2.04882812 63.81445312 C-2.03777772 59.20960456 -2.0205023 54.60481579 -2 50 C-3.748573 50.02356567 -3.748573 50.02356567 -5.5324707 50.04760742 C-9.85417786 50.10187534 -14.17585485 50.13633859 -18.49780273 50.16479492 C-20.36894799 50.17988873 -22.24005783 50.20036589 -24.11108398 50.22631836 C-26.79940526 50.26267593 -29.48725913 50.27972015 -32.17578125 50.29296875 C-33.43217155 50.31619453 -33.43217155 50.31619453 -34.71394348 50.33988953 C-40.55785883 50.34158594 -40.55785883 50.34158594 -42.75675964 48.64277649 C-44 47 -44 47 -43.8125 44.375 C-43 42 -43 42 -41 41 C-38.08300726 40.91301772 -35.19017452 40.88448077 -32.2734375 40.90234375 C-30.97921371 40.90446617 -30.97921371 40.90446617 -29.65884399 40.90663147 C-26.8975277 40.91223812 -24.13629188 40.92479173 -21.375 40.9375 C-19.5052095 40.94251414 -17.63541774 40.9470772 -15.765625 40.95117188 C-11.17705223 40.96220971 -6.58853977 40.9794788 -2 41 C-2.01571045 39.24357178 -2.01571045 39.24357178 -2.03173828 37.45166016 C-2.06787497 33.11689295 -2.09087733 28.78213911 -2.10986328 24.44726562 C-2.11993534 22.56931318 -2.13359362 20.69137647 -2.15087891 18.81347656 C-2.17507453 16.1177991 -2.18647083 13.42232854 -2.1953125 10.7265625 C-2.20563507 9.88380768 -2.21595764 9.04105286 -2.22659302 8.17276001 C-2.22699144 6.11378753 -2.12257588 4.05532065 -2 2 C-1.34 1.34 -0.68 0.68 0 0 Z " fill="#F5FAFA" transform="translate(365,380)"/>
<path d="M0 0 C3.47313582 3.06583844 4.90628897 5.88888209 6.6875 10.125 C11.26280481 19.08328486 19.27225074 22.65085161 28 27 C25.1402902 30.07714581 22.1851038 31.34031086 18.375 33.125 C9.2290066 37.81549648 5.9074321 45.90333267 2 55 C1.34 55 0.68 55 0 55 C-0.45246094 53.88882813 -0.90492187 52.77765625 -1.37109375 51.6328125 C-6.94416285 39.11486355 -13.71437651 33.74081373 -26 28 C-23.1402902 24.92285419 -20.1851038 23.65968914 -16.375 21.875 C-7.2290066 17.18450352 -3.9074321 9.09666733 0 0 Z " fill="#197ABF" transform="translate(50,372)"/>
<path d="M0 0 C0.99 0.33 1.98 0.66 3 1 C3.77616846 2.62575826 4.54277998 4.25719465 5.24609375 5.91577148 C9.97602974 16.79593813 17.61389146 20.98398167 28 26 C24.92024178 29.49735256 22.07768504 30.90906562 17.8125 32.6875 C8.9036531 37.23241964 5.85305064 45.14893535 2 54 C1.34 54 0.68 54 0 54 C-0.45246094 52.88882813 -0.90492188 51.77765625 -1.37109375 50.6328125 C-6.94416285 38.11486355 -13.71437651 32.74081373 -26 27 C-22.60294481 24.15365139 -19.2102975 21.85576782 -15.3125 19.75 C-14.35988281 19.22921875 -13.40726562 18.7084375 -12.42578125 18.171875 C-10 17 -10 17 -8 17 C-7.79375 16.236875 -7.5875 15.47375 -7.375 14.6875 C-5.44105609 9.50101406 -2.7214854 4.80966916 0 0 Z " fill="#D94634" transform="translate(460,107)"/>
</svg>
