<?xml version="1.0" encoding="UTF-8"?>
<svg version="1.1" xmlns="http://www.w3.org/2000/svg" width="512" height="512">
<path d="M0 0 C1.45108658 0.00273422 1.45108658 0.00273422 2.93148804 0.00552368 C17.26440977 0.05095174 31.21023917 0.55983928 45.3125 3.3125 C46.65803955 3.55395752 46.65803955 3.55395752 48.03076172 3.80029297 C107.84088904 14.62287989 165.35495829 48.68064457 202.3125 97.3125 C202.72918945 97.85277832 203.14587891 98.39305664 203.57519531 98.94970703 C211.2584873 108.9447116 218.00092968 119.40459036 224.3125 130.3125 C224.70679199 130.98974121 225.10108398 131.66698242 225.50732422 132.36474609 C238.68961173 155.2833756 247.29510918 180.85822563 252.625 206.6875 C252.77243652 207.39817627 252.91987305 208.10885254 253.07177734 208.84106445 C256.05713787 224.48358366 256.6873098 240.11919606 256.625 256 C256.62226578 257.45108658 256.62226578 257.45108658 256.61947632 258.93148804 C256.57404826 273.26440977 256.06516072 287.21023917 253.3125 301.3125 C253.15152832 302.20952637 252.99055664 303.10655273 252.82470703 304.03076172 C242.00212011 363.84088904 207.94435543 421.35495829 159.3125 458.3125 C158.77222168 458.72918945 158.23194336 459.14587891 157.67529297 459.57519531 C147.6802884 467.2584873 137.22040964 474.00092968 126.3125 480.3125 C125.63525879 480.70679199 124.95801758 481.10108398 124.26025391 481.50732422 C101.3416244 494.68961173 75.76677437 503.29510918 49.9375 508.625 C49.22682373 508.77243652 48.51614746 508.91987305 47.78393555 509.07177734 C32.14141634 512.05713787 16.50580394 512.6873098 0.625 512.625 C-0.34239105 512.62317719 -1.3097821 512.62135437 -2.30648804 512.61947632 C-16.63940977 512.57404826 -30.58523917 512.06516072 -44.6875 509.3125 C-45.58452637 509.15152832 -46.48155273 508.99055664 -47.40576172 508.82470703 C-107.21588904 498.00212011 -164.72995829 463.94435543 -201.6875 415.3125 C-202.10418945 414.77222168 -202.52087891 414.23194336 -202.95019531 413.67529297 C-210.6334873 403.6802884 -217.37592968 393.22040964 -223.6875 382.3125 C-224.08179199 381.63525879 -224.47608398 380.95801758 -224.88232422 380.26025391 C-238.06461173 357.3416244 -246.67010918 331.76677437 -252 305.9375 C-252.14743652 305.22682373 -252.29487305 304.51614746 -252.44677734 303.78393555 C-255.43213787 288.14141634 -256.0623098 272.50580394 -256 256.625 C-255.99817719 255.65760895 -255.99635437 254.6902179 -255.99447632 253.69351196 C-255.94904826 239.36059023 -255.44016072 225.41476083 -252.6875 211.3125 C-252.44604248 209.96696045 -252.44604248 209.96696045 -252.19970703 208.59423828 C-241.37712011 148.78411096 -207.31935543 91.27004171 -158.6875 54.3125 C-158.14722168 53.89581055 -157.60694336 53.47912109 -157.05029297 53.04980469 C-147.0552884 45.3665127 -136.59540964 38.62407032 -125.6875 32.3125 C-125.01025879 31.91820801 -124.33301758 31.52391602 -123.63525391 31.11767578 C-100.7166244 17.93538827 -75.14177437 9.32989082 -49.3125 4 C-48.60182373 3.85256348 -47.89114746 3.70512695 -47.15893555 3.55322266 C-31.51641634 0.56786213 -15.88080394 -0.0623098 0 0 Z " fill="#FED400" transform="translate(255.6875,-0.3125)"/>
<path d="M0 0 C4.86959985 3.94781229 9.06062901 8.11935334 13.0625 12.9375 C13.55298828 13.51951172 14.04347656 14.10152344 14.54882812 14.70117188 C15.53211796 15.86794023 16.51343472 17.03637451 17.49267578 18.20654297 C19.97246837 21.1570704 22.48638067 24.07828587 25 27 C30.33059777 22.80357197 34.42036428 18.19413283 38.65234375 12.90234375 C41.01795328 9.97780484 43.44675883 7.13107548 45.9375 4.3125 C47.03384766 3.06919922 47.03384766 3.06919922 48.15234375 1.80078125 C50 0 50 0 52 0 C53.32981093 1.49109234 54.5869873 3.04706714 55.8125 4.625 C60.20703678 10.13788546 64.895098 15.28865033 69.74536133 20.40283203 C73.90353491 24.80706981 73.90353491 24.80706981 75 27 C75.66 27 76.32 27 77 27 C78.37212301 25.46804728 79.6715446 23.87078919 80.9375 22.25 C84.86687556 17.32713565 88.97569013 12.65764796 93.28100586 8.06152344 C95.69067314 5.47794449 97.94635409 2.8764643 100 0 C104.37917922 1.58108133 106.82455539 5.02173322 109.6875 8.5 C110.74766304 9.76388962 111.80887104 11.02690342 112.87109375 12.2890625 C113.39558105 12.91458008 113.92006836 13.54009766 114.46044922 14.18457031 C117.87470671 18.21064369 121.44224271 22.10084175 125 26 C128.96889354 24.43649648 131.41450248 21.67813943 134.1875 18.5625 C134.66582275 18.03624023 135.14414551 17.50998047 135.63696289 16.96777344 C139.6721216 12.48500717 143.39078606 7.79686629 147.02734375 2.984375 C147.67832031 2.32953125 148.32929688 1.6746875 149 1 C153 1 153 1 155.48046875 3.23828125 C156.394663 4.25246286 157.29635688 5.27800524 158.1875 6.3125 C158.66582275 6.8499585 159.14414551 7.38741699 159.63696289 7.94116211 C163.58404602 12.4131268 167.34272039 17.03250951 171.02734375 21.72265625 C172.8756113 23.85639879 174.67650713 25.41461896 177 27 C177.76570313 26.03513672 177.76570313 26.03513672 178.546875 25.05078125 C183.48381895 18.91461511 188.61126667 13.05810829 194.01269531 7.3293457 C196.23414736 4.96420855 198.1948348 2.7077478 200 0 C203.96838815 1.56330442 206.41568292 4.32116605 209.1875 7.4375 C209.90389648 8.23015259 209.90389648 8.23015259 210.63476562 9.03881836 C214.61570604 13.48036891 218.40230026 18.06243838 222.125 22.72265625 C223.83349676 24.95512755 223.83349676 24.95512755 225.59411603 26.28153688 C227.62636781 28.76563216 227.3725959 30.59077648 227.36914349 33.77275372 C227.37511663 34.98398173 227.38108978 36.19520975 227.38724393 37.44314164 C227.37868428 38.79418334 227.36984748 40.14522332 227.36076355 41.4962616 C227.36207106 42.92603344 227.36469648 44.35580458 227.36853105 45.78557187 C227.37525871 49.72382984 227.36321222 53.66184438 227.34819686 57.60007131 C227.33527348 61.84341208 227.33962333 66.08673848 227.34190369 70.33009338 C227.34347877 77.68508865 227.33404507 85.04000425 227.31719017 92.39497948 C227.2928365 103.02910116 227.28499863 113.66318422 227.2812262 124.29733077 C227.274656 141.54939797 227.25467944 158.80142268 227.22631836 176.0534668 C227.19879248 192.81485786 227.17755171 209.57623739 227.16479492 226.33764648 C227.16361267 227.88671493 227.16361267 227.88671493 227.16240653 229.46707769 C227.15849149 234.64775437 227.15470035 239.82843113 227.15097082 245.00910795 C227.11985722 288.0061014 227.06700597 331.00304851 227 374 C226.34 374 225.68 374 225 374 C223.64902626 372.48848454 222.37072655 370.91186687 221.125 369.3125 C217.44884853 364.71134288 213.6333024 360.31451763 209.625 356 C209.11340332 355.44868408 208.60180664 354.89736816 208.07470703 354.3293457 C205.75696708 351.84451645 203.42760275 349.37805983 201 347 C194.74626468 353.69792586 188.68273868 360.45270954 182.97265625 367.625 C181.09147784 369.8898643 179.11586019 371.95514183 177 374 C173.3120445 372.7706815 172.54398686 371.42987206 170.1875 368.375 C164.20889938 360.86215584 157.60435111 353.96134306 151 347 C144.35956284 354.06740266 137.88567767 361.16955912 131.83984375 368.7578125 C130.3062094 370.62682761 128.74764949 372.33401638 127 374 C122.6210647 372.41900673 120.17490552 368.97852868 117.3125 365.5 C116.25250463 364.23336766 115.19129525 362.96775035 114.12890625 361.703125 C113.60441895 361.07728516 113.07993164 360.45144531 112.53955078 359.80664062 C109.64380677 356.40852682 106.59360264 353.15343262 103.546875 349.890625 C102 348 102 348 102 346 C93.06868902 354.83492993 84.82801305 364.18115894 77 374 C73.23434961 372.49542094 71.45704323 370.36583433 69 367.1875 C64.85015427 361.94996515 60.43505505 357.06325181 55.81054688 352.2409668 C52 348.21053303 52 348.21053303 52 346 C43.07985213 354.82230347 34.64300178 364.04161827 27 374 C22.64548392 372.42122995 20.22148833 369.02551308 17.375 365.5625 C16.31651273 364.29959934 15.25659353 363.03789758 14.1953125 361.77734375 C13.66454102 361.14554199 13.13376953 360.51374023 12.58691406 359.86279297 C8.84411155 355.46931864 4.91277561 351.24172578 1 347 C-2.9166529 350.86559784 -6.6958932 354.84019126 -10.4375 358.875 C-10.98470703 359.46152344 -11.53191406 360.04804688 -12.09570312 360.65234375 C-15.44398111 364.25818158 -18.67695924 367.93316524 -21.82055664 371.71923828 C-22.20977295 372.14188965 -22.59898926 372.56454102 -23 373 C-23.33 373 -23.66 373 -24 373 C-24.27481179 329.14312802 -24.48618923 285.28634737 -24.61278395 241.42878376 C-24.627792 236.2481754 -24.64332391 231.06756873 -24.65917969 225.88696289 C-24.66232741 224.85562022 -24.66547514 223.82427754 -24.66871825 222.76168206 C-24.72089987 206.07362908 -24.81549519 189.38607339 -24.92583355 172.69831518 C-25.03814859 155.56842546 -25.10472555 138.43879573 -25.12906194 121.30855292 C-25.14550804 110.7423863 -25.19740098 100.17762532 -25.2949976 89.61189153 C-25.35854985 82.36136244 -25.37757477 75.11155738 -25.36201653 67.86077014 C-25.3543476 63.6800713 -25.3658924 59.50182377 -25.4304657 55.32156372 C-25.83748731 27.61668817 -25.83748731 27.61668817 -19.85899472 20.40846223 C-17.40930408 17.99599853 -14.76497794 16.04651887 -12 14 C-10.18048123 12.03740882 -8.58267311 9.99341437 -6.9375 7.875 C-4.72663957 5.10010255 -2.5298334 2.48390129 0 0 Z " fill="#F1F5FA" transform="translate(155,69)"/>
<path d="M0 0 C4.33968599 3.71973085 8.433724 7.30330698 12.46664429 11.29928589 C12.97011308 11.7969613 13.47358188 12.29463671 13.99230731 12.80739319 C15.65652008 14.4537576 17.31731005 16.10352825 18.97802734 17.75341797 C20.1792369 18.94343507 21.3806064 20.13329075 22.5821228 21.32299805 C26.50410739 25.20865985 30.42064102 29.09978793 34.3359375 32.9921875 C35.00342656 33.65573069 35.67091561 34.31927388 36.35863161 35.00292444 C42.65694369 41.26486236 48.95278095 47.52928096 55.24358177 53.79876518 C63.27528286 61.80283963 71.31841559 69.79504289 79.37717092 77.77188003 C85.05318186 83.39214001 90.71575934 89.02571386 96.36858332 94.66929352 C99.74183929 98.03629237 103.12077009 101.39709844 106.51432419 104.74364853 C109.7029066 107.88859852 112.87453789 111.0496976 116.03396988 114.22392273 C117.19492056 115.38454459 118.36186854 116.53920348 119.53520203 117.68730545 C121.13860744 119.25803441 122.71884103 120.8489974 124.29525757 122.44674683 C125.62974221 123.77350087 125.62974221 123.77350087 126.99118614 125.12705803 C129.64839152 128.92730902 129.7405931 131.4000006 130 136 C130.04634583 136.81763321 130.09269165 137.63526642 130.14044189 138.47767639 C130.1472699 139.17219406 130.1540979 139.86671173 130.16113281 140.58227539 C130.17059433 141.38916809 130.18005585 142.19606079 130.18980408 143.02740479 C130.19639793 144.29967926 130.19639793 144.29967926 130.203125 145.59765625 C130.21013931 146.50102722 130.21715363 147.40439819 130.22438049 148.33514404 C130.24183551 151.24431367 130.24823533 154.15327989 130.25 157.0625 C130.25067474 158.05486664 130.25134949 159.04723328 130.25204468 160.06967163 C130.23632014 174.59811143 129.79053952 188.70368084 127 203 C126.83902832 203.89702637 126.67805664 204.79405273 126.51220703 205.71826172 C115.68962011 265.52838904 81.63185543 323.04245829 33 360 C32.45972168 360.41668945 31.91944336 360.83337891 31.36279297 361.26269531 C21.3677884 368.9459873 10.90790964 375.68842968 0 382 C-0.67724121 382.39429199 -1.35448242 382.78858398 -2.05224609 383.19482422 C-24.9708756 396.37711173 -50.54572563 404.98260918 -76.375 410.3125 C-77.08567627 410.45993652 -77.79635254 410.60737305 -78.52856445 410.75927734 C-94.1715206 413.74472126 -109.80637968 414.37329813 -125.6875 414.3125 C-126.65356171 414.31100952 -127.61962341 414.30951904 -128.61495972 414.3079834 C-155.18514083 414.23434906 -155.18514083 414.23434906 -167.91688538 411.5756073 C-170.33891939 411.12342156 -172.70080737 410.79280005 -175.14337158 410.50561523 C-188.89167199 408.60666588 -195.88140535 403.17943266 -205.19921875 393.265625 C-206.53635824 391.90042744 -207.87690881 390.53856344 -209.22065735 389.17987061 C-212.70896351 385.63492374 -216.14979911 382.04732714 -219.58190918 378.44805908 C-223.1078245 374.76730111 -226.67785724 371.1298634 -230.24414062 367.48828125 C-237.20600241 360.36667146 -244.11836659 353.19910549 -251 346 C-248.77430331 342.17849072 -246.40959577 339.10226852 -243.375 335.875 C-238.98973365 331.14302152 -234.91278657 326.27806214 -230.91015625 321.21484375 C-229 319 -229 319 -226 317 C-218.63450658 324.7636282 -211.36554412 332.488434 -204.76953125 340.92578125 C-202.98808064 343.2051048 -202.98808064 343.2051048 -200 345 C-199.66162109 344.18208984 -199.66162109 344.18208984 -199.31640625 343.34765625 C-197.608666 340.30210167 -195.3299338 337.94621 -192.9375 335.4375 C-188.30591922 330.50762701 -184.03163332 325.42299943 -179.875 320.08203125 C-178 318 -178 318 -175 317 C-174.48953125 317.64324219 -173.9790625 318.28648437 -173.453125 318.94921875 C-168.51618105 325.08538489 -163.38873333 330.94189171 -157.98730469 336.6706543 C-155.76585264 339.03579145 -153.8051652 341.2922522 -152 344 C-151.34 344 -150.68 344 -150 344 C-148.64902626 342.48848454 -147.37072655 340.91186687 -146.125 339.3125 C-141.96269887 334.09439566 -137.56566661 329.18417557 -132.98681641 324.3293457 C-130.76587894 321.96397783 -128.80507166 319.70760749 -127 317 C-126.34 317 -125.68 317 -125 317 C-123.62787699 318.53195272 -122.3284554 320.12921081 -121.0625 321.75 C-117.13312444 326.67286435 -113.02430987 331.34235204 -108.71899414 335.93847656 C-106.30932686 338.52205551 -104.05364591 341.1235357 -102 344 C-97.64548392 342.42122995 -95.22148833 339.02551308 -92.375 335.5625 C-91.31651273 334.29959934 -90.25659353 333.03789758 -89.1953125 331.77734375 C-88.66454102 331.14554199 -88.13376953 330.51374023 -87.58691406 329.86279297 C-83.84411155 325.46931864 -79.91277561 321.24172578 -76 317 C-67.40320138 325.50386026 -59.39078194 334.42798442 -52 344 C-48.40278644 342.5045292 -46.36902779 340.47293692 -43.8125 337.5625 C-43.03003906 336.67433594 -42.24757813 335.78617187 -41.44140625 334.87109375 C-38.25820124 331.12764466 -35.17989598 327.3063123 -32.140625 323.4453125 C-29.95296595 320.94627132 -27.65005407 318.99217351 -25 317 C-19.50082262 322.99319332 -14.21313773 329.09760325 -9.140625 335.45703125 C-6.98168261 338.10579856 -6.98168261 338.10579856 -4.234375 340.69921875 C-2 343 -2 343 -2 345 C-1.34 345 -0.68 345 0 345 C0 231.15 0 117.3 0 0 Z " fill="#FEB000" transform="translate(382,98)"/>
<path d="M0 0 C4.86959985 3.94781229 9.06062901 8.11935334 13.0625 12.9375 C13.55298828 13.51951172 14.04347656 14.10152344 14.54882812 14.70117188 C15.53211796 15.86794023 16.51343472 17.03637451 17.49267578 18.20654297 C19.97246837 21.1570704 22.48638067 24.07828587 25 27 C30.33059777 22.80357197 34.42036428 18.19413283 38.65234375 12.90234375 C41.01795328 9.97780484 43.44675883 7.13107548 45.9375 4.3125 C47.03384766 3.06919922 47.03384766 3.06919922 48.15234375 1.80078125 C50 0 50 0 52 0 C53.32981093 1.49109234 54.5869873 3.04706714 55.8125 4.625 C60.20703678 10.13788546 64.895098 15.28865033 69.74536133 20.40283203 C73.90353491 24.80706981 73.90353491 24.80706981 75 27 C75.66 27 76.32 27 77 27 C78.37212301 25.46804728 79.6715446 23.87078919 80.9375 22.25 C84.86687556 17.32713565 88.97569013 12.65764796 93.28100586 8.06152344 C95.69067314 5.47794449 97.94635409 2.8764643 100 0 C100.99 0.495 100.99 0.495 102 1 C101.67 23.44 101.34 45.88 101 69 C69.98 69 38.96 69 7 69 C7 77.91 7 86.82 7 96 C38.02 96 69.04 96 101 96 C101 103.26 101 110.52 101 118 C69.98 118 38.96 118 7 118 C7 127.24 7 136.48 7 146 C38.02 146 69.04 146 101 146 C101 154.91 101 163.82 101 173 C95.72 173 90.44 173 85 173 C85 177.95 85 182.9 85 188 C83.205625 188.825 81.41125 189.65 79.5625 190.5 C68.79751204 195.92057766 62.38107717 202.60725526 57.8984375 213.734375 C55.19853483 223.54793426 55.81761755 235.20794657 60.3359375 244.3203125 C66.69995725 254.56847576 74.60427346 260.20142449 86 264 C87.6408145 264.11346245 89.2852866 264.17789792 90.9296875 264.2109375 C91.89003906 264.23929687 92.85039062 264.26765625 93.83984375 264.296875 C95.85528732 264.34875257 97.87093993 264.39308451 99.88671875 264.4296875 C109.16966782 264.72793486 109.16966782 264.72793486 113 268 C115 271 115 271 114.8125 274 C113.98552564 277.05344379 113.50790541 278.16729989 111 280 C108.12037166 280.95987611 106.33372559 281.12153814 103.3449707 281.11352539 C102.40422195 281.11344986 101.46347321 281.11337433 100.49421692 281.11329651 C99.48163315 281.10813522 98.46904938 281.10297394 97.42578125 281.09765625 C95.86732735 281.09553383 95.86732735 281.09553383 94.27738953 281.09336853 C90.95573052 281.08776656 87.63413867 281.07521372 84.3125 281.0625 C82.06184993 281.05748525 79.81119881 281.0529223 77.56054688 281.04882812 C72.04031783 281.03864696 66.52023418 281.01907183 61 281 C61 291.23 61 301.46 61 312 C68.92 312 76.84 312 85 312 C85 316.62 85 321.24 85 326 C90.28 326 95.56 326 101 326 C102.93503123 343.80945413 102.93503123 343.80945413 98.6796875 350.05859375 C96.22096495 353.07529813 93.48539004 355.78702876 90.64257812 358.44042969 C88.06709924 360.88575655 85.73808201 363.53955452 83.375 366.1875 C82.57835937 367.04730469 81.78171875 367.90710938 80.9609375 368.79296875 C78.8738089 371.03981008 78.8738089 371.03981008 77 374 C73.23434961 372.49542094 71.45704323 370.36583433 69 367.1875 C64.85015427 361.94996515 60.43505505 357.06325181 55.81054688 352.2409668 C52 348.21053303 52 348.21053303 52 346 C43.07985213 354.82230347 34.64300178 364.04161827 27 374 C22.64548392 372.42122995 20.22148833 369.02551308 17.375 365.5625 C16.31651273 364.29959934 15.25659353 363.03789758 14.1953125 361.77734375 C13.66454102 361.14554199 13.13376953 360.51374023 12.58691406 359.86279297 C8.84411155 355.46931864 4.91277561 351.24172578 1 347 C-2.9166529 350.86559784 -6.6958932 354.84019126 -10.4375 358.875 C-10.98470703 359.46152344 -11.53191406 360.04804688 -12.09570312 360.65234375 C-15.44398111 364.25818158 -18.67695924 367.93316524 -21.82055664 371.71923828 C-22.20977295 372.14188965 -22.59898926 372.56454102 -23 373 C-23.33 373 -23.66 373 -24 373 C-24.27481179 329.14312802 -24.48618923 285.28634737 -24.61278395 241.42878376 C-24.627792 236.2481754 -24.64332391 231.06756873 -24.65917969 225.88696289 C-24.66232741 224.85562022 -24.66547514 223.82427754 -24.66871825 222.76168206 C-24.72089987 206.07362908 -24.81549519 189.38607339 -24.92583355 172.69831518 C-25.03814859 155.56842546 -25.10472555 138.43879573 -25.12906194 121.30855292 C-25.14550804 110.7423863 -25.19740098 100.17762532 -25.2949976 89.61189153 C-25.35854985 82.36136244 -25.37757477 75.11155738 -25.36201653 67.86077014 C-25.3543476 63.6800713 -25.3658924 59.50182377 -25.4304657 55.32156372 C-25.83748731 27.61668817 -25.83748731 27.61668817 -19.85899472 20.40846223 C-17.40930408 17.99599853 -14.76497794 16.04651887 -12 14 C-10.18048123 12.03740882 -8.58267311 9.99341437 -6.9375 7.875 C-4.72663957 5.10010255 -2.5298334 2.48390129 0 0 Z " fill="#FEFEFE" transform="translate(155,69)"/>
<path d="M0 0 C10.56 0 21.12 0 32 0 C32 4.62 32 9.24 32 14 C39.92 14 47.84 14 56 14 C56 24.56 56 35.12 56 46 C52.42542969 46.03738281 48.85085938 46.07476562 45.16796875 46.11328125 C41.71274633 46.15946877 38.25763345 46.21071262 34.80249023 46.26245117 C32.39793533 46.29574176 29.99330149 46.32376067 27.58862305 46.34643555 C24.13556221 46.3799051 20.68322739 46.43221797 17.23046875 46.48828125 C15.61316109 46.49786613 15.61316109 46.49786613 13.96318054 46.50764465 C12.46196404 46.53733589 12.46196404 46.53733589 10.93041992 46.56762695 C10.04883713 46.57873001 9.16725433 46.58983307 8.25895691 46.60127258 C5.52797484 47.08331694 4.61844051 47.77437587 3 50 C2.71399811 53.43202271 2.90809958 55.72429875 4 59 C6.92608306 59.97536102 8.88710225 60.1368674 11.9375 60.17578125 C29.10701807 60.54278503 40.94215202 62.34725148 53.25 75.1875 C61.24958982 85.33223122 62.39786807 96.56430507 61 109 C59.01296526 119.86332808 51.67316034 127.58294212 43 134 C40.61328125 135.265625 40.61328125 135.265625 38.3125 136.25 C37.54550781 136.58515625 36.77851563 136.9203125 35.98828125 137.265625 C34 138 34 138 32 138 C32 142.95 32 147.9 32 153 C21.44 153 10.88 153 0 153 C0 148.38 0 143.76 0 139 C-7.92 139 -15.84 139 -24 139 C-24 128.77 -24 118.54 -24 108 C-18.99779297 107.90912109 -18.99779297 107.90912109 -13.89453125 107.81640625 C-10.66102922 107.75457954 -7.42756092 107.69120729 -4.1940918 107.62768555 C-1.94867968 107.58440167 0.29676396 107.54272199 2.54223633 107.50268555 C5.77174373 107.44482443 9.00109341 107.38117549 12.23046875 107.31640625 C13.73386055 107.29133751 13.73386055 107.29133751 15.2676239 107.26576233 C16.67852043 107.2358445 16.67852043 107.2358445 18.11791992 107.20532227 C19.35369026 107.18200584 19.35369026 107.18200584 20.61442566 107.15821838 C23.14604911 106.99031359 25.52539526 106.54925652 28 106 C29.19552581 100.6102468 29.19552581 100.6102468 27.75 95.5625 C24.81495173 92.94192119 22.07743392 92.88129028 18.31640625 92.859375 C3.35624541 92.60838314 -7.60014616 91.27698923 -18.8046875 80.46875 C-28.0822439 70.03562608 -29.87512162 59.5742841 -29.1953125 46.10839844 C-28.32930413 36.75983806 -22.37879808 28.90380235 -15.625 22.75 C-11.22824742 19.164204 -6.36185949 16.7872865 -1 15 C-0.67 10.05 -0.34 5.1 0 0 Z " fill="#04C8C8" transform="translate(240,242)"/>
<path d="M0 0 C62.04 0 124.08 0 188 0 C188 8.91 188 17.82 188 27 C125.96 27 63.92 27 0 27 C0 18.09 0 9.18 0 0 Z " fill="#CDD2E1" transform="translate(162,138)"/>
<path d="M0 0 C61.71 0 123.42 0 187 0 C187 8.58 187 17.16 187 26 C125.29 26 63.58 26 0 26 C0 17.42 0 8.84 0 0 Z " fill="#BEC3D2" transform="translate(163,188)"/>
<path d="M0 0 C16.39935452 0 24.23137022 1.96568636 35.71484375 12.5859375 C43.49645579 20.70415871 45.72835873 30.5079147 45.5168457 41.41723633 C44.94465128 53.34490061 40.65376475 60.81321749 32 69 C28.91059934 71.65843411 26.05855693 73.64727276 22.3125 75.25 C21.16201172 75.75273437 21.16201172 75.75273437 19.98828125 76.265625 C18 77 18 77 16 77 C16 81.95 16 86.9 16 92 C5.44 92 -5.12 92 -16 92 C-16 87.38 -16 82.76 -16 78 C-23.92 78 -31.84 78 -40 78 C-40 67.77 -40 57.54 -40 47 C-36.66519531 46.93941406 -33.33039063 46.87882812 -29.89453125 46.81640625 C-26.66102922 46.75457954 -23.42756092 46.69120729 -20.1940918 46.62768555 C-17.94867968 46.58440167 -15.70323604 46.54272199 -13.45776367 46.50268555 C-10.22825627 46.44482443 -6.99890659 46.38117549 -3.76953125 46.31640625 C-2.76727005 46.29969376 -1.76500885 46.28298126 -0.7323761 46.26576233 C0.67852043 46.2358445 0.67852043 46.2358445 2.11791992 46.20532227 C3.35369026 46.18200584 3.35369026 46.18200584 4.61442566 46.15821838 C7.14604911 45.99031359 9.52539526 45.54925652 12 45 C12.226875 43.7625 12.45375 42.525 12.6875 41.25 C12.81511719 40.55390625 12.94273437 39.8578125 13.07421875 39.140625 C13.18531553 36.45275526 13.18531553 36.45275526 10 33 C6.7 32.34 3.4 31.68 0 31 C0 20.77 0 10.54 0 0 Z " fill="#1CADB5" transform="translate(256,303)"/>
<path d="M0 0 C30.69 0 61.38 0 93 0 C93 8.58 93 17.16 93 26 C62.31 26 31.62 26 0 26 C0 17.42 0 8.84 0 0 Z " fill="#CDD2E1" transform="translate(163,188)"/>
<path d="M0 0 C30.69 0 61.38 0 93 0 C93 8.58 93 17.16 93 26 C62.31 26 31.62 26 0 26 C0 17.42 0 8.84 0 0 Z " fill="#BEC3D2" transform="translate(256,139)"/>
<path d="M0 0 C13.2 0 26.4 0 40 0 C40 14.85 40 29.7 40 45 C34.72 45 29.44 45 24 45 C24 40.38 24 35.76 24 31 C16.08 31 8.16 31 0 31 C0 20.77 0 10.54 0 0 Z " fill="#00C8C8" transform="translate(216,350)"/>
<path d="M0 0 C5.28 0 10.56 0 16 0 C16 4.62 16 9.24 16 14 C23.92 14 31.84 14 40 14 C40 24.23 40 34.46 40 45 C26.8 45 13.6 45 0 45 C0 30.15 0 15.3 0 0 Z " fill="#1CADB5" transform="translate(256,242)"/>
<path d="M0 0 C2.56314499 -0.08132187 5.12368418 -0.14064175 7.6875 -0.1875 C8.40873047 -0.21263672 9.12996094 -0.23777344 9.87304688 -0.26367188 C14.47207891 -0.32667231 17.37434807 0.11427704 21 3 C23 6 23 6 22.8125 9 C21.98552564 12.05344379 21.50790541 13.16729989 19 15 C16.12037166 15.95987611 14.33372559 16.12153814 11.3449707 16.11352539 C10.40422195 16.11344986 9.46347321 16.11337433 8.49421692 16.11329651 C7.48163315 16.10813522 6.46904938 16.10297394 5.42578125 16.09765625 C4.38681198 16.0962413 3.34784271 16.09482635 2.27738953 16.09336853 C-1.04426948 16.08776656 -4.36586133 16.07521372 -7.6875 16.0625 C-9.93815007 16.05748525 -12.18880119 16.0529223 -14.43945312 16.04882812 C-19.95965837 16.03779649 -25.47982439 16.02105643 -31 16 C-31 15.67 -31 15.34 -31 15 C-17.8 15 -4.6 15 9 15 C9 10.38 9 5.76 9 1 C6.03 1 3.06 1 0 1 C0 0.67 0 0.34 0 0 Z " fill="#E6F4F9" transform="translate(247,334)"/>
<path d="M0 0 C0 4.62 0 9.24 0 14 C-9.21641791 14.48507463 -9.21641791 14.48507463 -12.625 12.375 C-14.42208081 9.27095134 -14.58890625 7.53343747 -14 4 C-10.79344957 -1.5385871 -5.6907972 -0.29951564 0 0 Z " fill="#FBFEFE" transform="translate(256,288)"/>
<path d="M0 0 C3.60286506 1.52524036 5.94299983 3.67485437 8.6875 6.4375 C9.47511719 7.21996094 10.26273438 8.00242187 11.07421875 8.80859375 C13 11 13 11 14 14 C11 14 11 14 8.80859375 11.953125 C7.63490234 10.61507812 7.63490234 10.61507812 6.4375 9.25 C5.65246094 8.36828125 4.86742187 7.4865625 4.05859375 6.578125 C2.32793912 4.41070175 1.09301712 2.52870987 0 0 Z " fill="#FFBA11" transform="translate(168,82)"/>
<path d="M0 0 C3.83247336 1.58492473 6.33086291 4.03116614 9.25 6.9375 C10.14203125 7.81277344 11.0340625 8.68804687 11.953125 9.58984375 C14 12 14 12 14 15 C7.60618381 12.86872794 3.46898612 5.55037779 0 0 Z " fill="#FFB912" transform="translate(218,82)"/>
<path d="M0 0 C0.66 0 1.32 0 2 0 C2 0.66 2 1.32 2 2 C2.99 2.33 3.98 2.66 5 3 C6.75390625 4.77734375 6.75390625 4.77734375 8.5625 6.9375 C10.33130568 9.03343963 12.05994888 11.05994888 14 13 C13.67 13.99 13.34 14.98 13 16 C11.01492207 13.90114686 9.03689607 11.79636118 7.0625 9.6875 C6.49853516 9.09259766 5.93457031 8.49769531 5.35351562 7.88476562 C4.81533203 7.30791016 4.27714844 6.73105469 3.72265625 6.13671875 C3.22515869 5.60780029 2.72766113 5.07888184 2.21508789 4.53393555 C1 3 1 3 0 0 Z " fill="#FEB80F" transform="translate(318,81)"/>
<path d="M0 0 C3.63061667 1.53218685 5.9863773 3.7183144 8.75 6.5 C9.94882812 7.69109375 9.94882812 7.69109375 11.171875 8.90625 C13 11 13 11 13 13 C9.14073288 11.45098223 6.97240841 9.02912393 4.25 5.9375 C3.45078125 5.03902344 2.6515625 4.14054687 1.828125 3.21484375 C0 1 0 1 0 0 Z " fill="#FEB60A" transform="translate(269,83)"/>
</svg>
