<?xml version="1.0" encoding="UTF-8"?>
<svg version="1.1" xmlns="http://www.w3.org/2000/svg" width="512" height="512">
<path d="M0 0 C1.51427582 0.00081573 1.51427582 0.00081573 3.05914307 0.00164795 C19.57458953 0.04242844 35.47683935 0.97005679 51.6875 4.375 C52.70279785 4.58398926 53.7180957 4.79297852 54.76416016 5.00830078 C96.07616685 13.78619811 134.7080226 32.78886934 166.6875 60.375 C167.43257813 61.00921875 168.17765625 61.6434375 168.9453125 62.296875 C182.45029833 74.10801515 195.12168743 86.85860228 205.6875 101.375 C206.54399066 102.52494831 207.40076433 103.67468589 208.2578125 104.82421875 C214.29784209 113.01434258 219.68117614 121.51879618 224.6875 130.375 C225.0896875 131.08221191 225.491875 131.78942383 225.90625 132.51806641 C238.9316741 155.65345836 247.68051461 180.82462409 253 206.8125 C253.14735596 207.53139404 253.29471191 208.25028809 253.4465332 208.9909668 C256.42039088 224.63725609 257.06050362 240.11068046 257 256 C256.99784485 257.01790619 256.9956897 258.03581238 256.99346924 259.08456421 C256.94379854 273.69363523 256.69290191 288.02575853 253.6875 302.375 C253.38948486 303.83728027 253.38948486 303.83728027 253.08544922 305.32910156 C242.96482806 353.7109774 221.0483123 397.69928269 186.6875 433.375 C186.05537598 434.03435547 185.42325195 434.69371094 184.77197266 435.37304688 C175.62752521 444.86130305 166.33015991 453.6012044 155.6875 461.375 C154.53644983 462.23306152 153.38540823 463.09113451 152.234375 463.94921875 C144.04319143 469.98791574 135.53752651 475.3588509 126.6875 480.375 C125.99624023 480.77187012 125.30498047 481.16874023 124.59277344 481.57763672 C98.45096711 496.45427188 69.35751935 505.79227889 39.6875 510.375 C38.56432373 510.55377686 37.44114746 510.73255371 36.28393555 510.91674805 C24.56712445 512.59656419 12.94709459 512.73232288 1.125 512.6875 C-0.40560562 512.68426727 -0.40560562 512.68426727 -1.96713257 512.68096924 C-16.59460524 512.63133352 -30.94513838 512.38419712 -45.3125 509.375 C-46.77478027 509.07698486 -46.77478027 509.07698486 -48.26660156 508.77294922 C-87.71989447 500.52002756 -140.61512794 482.88351843 -167.171875 450.078125 C-170.03583891 446.74077863 -172.32315998 444.67301094 -176.80273438 444.00195312 C-180.80953507 443.71555825 -184.7832495 443.60817668 -188.79980469 443.67382812 C-196.59012395 443.75201801 -202.27103889 442.31362173 -208.6171875 437.69921875 C-214.23041564 431.84861529 -217.28453266 425.78461792 -217.32739258 417.49438477 C-217.28767334 416.44565186 -217.2479541 415.39691895 -217.20703125 414.31640625 C-216.90537826 397.13509725 -219.59816643 386.44243162 -228.71240234 372.04199219 C-249.00593942 338.21736616 -255.7728614 295.58101233 -255.625 256.75 C-255.62284485 255.73209381 -255.6206897 254.71418762 -255.61846924 253.66543579 C-255.56879854 239.05636477 -255.31790191 224.72424147 -252.3125 210.375 C-252.11382324 209.40014648 -251.91514648 208.42529297 -251.71044922 207.42089844 C-246.70859811 183.50942745 -239.86128698 157.37107529 -226.33203125 136.70703125 C-218.25151736 124.11715719 -217.15957204 113.87870389 -217.4375 98.9921875 C-217.50860858 89.78889322 -215.61100318 82.77014635 -209.21875 76.06640625 C-204.25054274 71.65814039 -199.0984809 69.18932966 -192.41015625 69.4453125 C-181.03188552 70.07388023 -181.03188552 70.07388023 -170.6875 66.28515625 C-168.2485844 63.92415046 -166.00983639 61.51745953 -163.79394531 58.95410156 C-161.08638796 56.06806317 -157.92728248 53.77922348 -154.75 51.4375 C-154.07807617 50.94024414 -153.40615234 50.44298828 -152.71386719 49.93066406 C-121.57215721 27.2356497 -86.64002431 11.79266216 -48.875 4.0625 C-48.15610596 3.91514404 -47.43721191 3.76778809 -46.6965332 3.6159668 C-31.16987908 0.66484793 -15.76936592 -0.03207988 0 0 Z " fill="#00C0FA" transform="translate(255.3125,-0.375)"/>
<path d="M0 0 C1.51427582 0.00081573 1.51427582 0.00081573 3.05914307 0.00164795 C19.57458953 0.04242844 35.47683935 0.97005679 51.6875 4.375 C52.70279785 4.58398926 53.7180957 4.79297852 54.76416016 5.00830078 C96.07616685 13.78619811 134.7080226 32.78886934 166.6875 60.375 C167.43257813 61.00921875 168.17765625 61.6434375 168.9453125 62.296875 C174.96473962 67.56132313 180.63264932 73.18683265 186.3125 78.8125 C187.13177979 79.61872803 187.95105957 80.42495605 188.79516602 81.25561523 C189.93683228 82.3955896 189.93683228 82.3955896 191.1015625 83.55859375 C191.7920166 84.24493896 192.4824707 84.93128418 193.19384766 85.63842773 C194.6875 87.375 194.6875 87.375 194.6875 89.375 C193.86726321 89.37635653 193.04702643 89.37771306 192.20193398 89.37911069 C143.63556791 89.45968363 95.06923069 89.55060635 46.50290979 89.65505161 C40.67723299 89.66757114 34.85155601 89.68000382 29.02587891 89.69238281 C27.866045 89.69484881 26.70621109 89.6973148 25.51123069 89.69985552 C6.70793078 89.73962701 -12.09537518 89.77235488 -30.89869271 89.80249982 C-50.17899217 89.83356546 -69.45926587 89.87215374 -88.7395364 89.91779006 C-100.6455886 89.94573258 -112.55162187 89.96774051 -124.45769812 89.98226251 C-132.61161218 89.99276888 -140.76548967 90.010553 -148.91937624 90.03416704 C-153.63040432 90.04759213 -158.34138095 90.05770618 -163.0524292 90.05921364 C-167.35913881 90.06066218 -171.66572426 90.07117832 -175.97239579 90.08913441 C-177.53634405 90.09401359 -179.10030723 90.09546642 -180.66426156 90.09327881 C-182.77861206 90.0908053 -184.89256013 90.10043493 -187.00686455 90.11328697 C-188.77370324 90.11670446 -188.77370324 90.11670446 -190.57623565 90.12019098 C-193.45800669 90.09484242 -193.45800669 90.09484242 -195.3125 92.375 C-195.61636927 94.82993633 -195.61636927 94.82993633 -195.56418228 97.73800659 C-195.57200552 99.45596026 -195.57200552 99.45596026 -195.57998681 101.20862007 C-195.57552537 102.47766119 -195.57106392 103.74670231 -195.56646729 105.05419922 C-195.56876976 106.40743617 -195.57194485 107.76067188 -195.57592177 109.11390495 C-195.58430776 112.84527496 -195.58012736 116.5765433 -195.57394934 120.30791378 C-195.56944132 124.32704817 -195.57640037 128.34616455 -195.58190918 132.36529541 C-195.59082254 140.24381662 -195.58887255 148.12229982 -195.5830839 156.00082254 C-195.57857503 162.40141011 -195.57795113 168.80198699 -195.58013153 175.20257568 C-195.580438 176.11204574 -195.58074446 177.02151581 -195.58106022 177.95854557 C-195.58169964 179.80586704 -195.58234806 181.65318851 -195.5830054 183.50050998 C-195.58871438 200.84041723 -195.5821419 218.18030337 -195.57140467 235.52020717 C-195.56246864 250.41257057 -195.56402052 265.30490279 -195.57324219 280.19726562 C-195.5839348 297.47330044 -195.58816501 314.74931673 -195.58201766 332.02535439 C-195.58138053 333.86604436 -195.58075179 335.70673434 -195.58013153 337.54742432 C-195.57982298 338.45318108 -195.57951443 339.35893785 -195.57919653 340.2921418 C-195.57746655 346.68823494 -195.58039118 353.08431638 -195.58509064 359.48040771 C-195.59068828 367.27052519 -195.58920665 375.06060233 -195.57852915 382.85071516 C-195.57325732 386.82862284 -195.57124124 390.80646318 -195.57782745 394.78437042 C-195.58375797 398.42114043 -195.58056018 402.05778027 -195.56987235 405.69453835 C-195.5665563 407.64348564 -195.57313512 409.59244187 -195.57998681 411.54137993 C-195.57216357 413.2593336 -195.57216357 413.2593336 -195.56418228 415.01199341 C-195.56369522 416.50380725 -195.56369522 416.50380725 -195.56319833 418.02575874 C-195.540911 420.56531033 -195.540911 420.56531033 -193.3125 422.375 C-190.44191845 422.68408296 -190.44191845 422.68408296 -187.00686455 422.63671303 C-186.02076953 422.64270712 -186.02076953 422.64270712 -185.0147534 422.64882231 C-182.79043132 422.65987611 -180.56635472 422.65658424 -178.3420105 422.6534729 C-176.73985896 422.65847127 -175.13770995 422.6643457 -173.53556454 422.67102563 C-169.11625981 422.68689527 -164.69701853 422.69026012 -160.27768874 422.69167423 C-155.51828798 422.69535619 -150.75892252 422.71050555 -145.99954224 422.72428894 C-137.74803916 422.74660361 -129.49654858 422.76159154 -121.24502182 422.77165604 C-109.31458396 422.78621826 -97.38418961 422.81174809 -85.45377721 422.83998732 C-66.09924187 422.88550011 -46.74470029 422.92209632 -27.39013672 422.953125 C-8.58478701 422.9832922 10.2205474 423.01763402 29.02587891 423.05761719 C30.76352216 423.06130951 30.76352216 423.06130951 32.53626932 423.06507643 C38.34754785 423.07745067 44.15882619 423.08990727 49.97010446 423.10240483 C98.20921496 423.20603977 146.44834455 423.29522083 194.6875 423.375 C192.9524161 427.0753102 190.84195142 429.49250622 187.953125 432.41015625 C187.48331711 432.88551819 187.01350922 433.36088013 186.52946472 433.85064697 C185.00547977 435.38642513 183.47269392 436.91293088 181.9375 438.4375 C181.41584259 438.95766693 180.89418518 439.47783386 180.35671997 440.01376343 C172.56198722 447.7683241 164.6450038 454.98149913 155.6875 461.375 C154.54304596 462.22361102 153.39984599 463.07391553 152.2578125 463.92578125 C144.06364782 469.97930336 135.54706345 475.35344541 126.6875 480.375 C125.99624023 480.77187012 125.30498047 481.16874023 124.59277344 481.57763672 C98.45096711 496.45427188 69.35751935 505.79227889 39.6875 510.375 C38.56432373 510.55377686 37.44114746 510.73255371 36.28393555 510.91674805 C24.56712445 512.59656419 12.94709459 512.73232288 1.125 512.6875 C-0.40560562 512.68426727 -0.40560562 512.68426727 -1.96713257 512.68096924 C-16.59460524 512.63133352 -30.94513838 512.38419712 -45.3125 509.375 C-46.77478027 509.07698486 -46.77478027 509.07698486 -48.26660156 508.77294922 C-87.71989447 500.52002756 -140.61512794 482.88351843 -167.171875 450.078125 C-170.03583891 446.74077863 -172.32315998 444.67301094 -176.80273438 444.00195312 C-180.80953507 443.71555825 -184.7832495 443.60817668 -188.79980469 443.67382812 C-196.59012395 443.75201801 -202.27103889 442.31362173 -208.6171875 437.69921875 C-214.23041564 431.84861529 -217.28453266 425.78461792 -217.32739258 417.49438477 C-217.28767334 416.44565186 -217.2479541 415.39691895 -217.20703125 414.31640625 C-216.90537826 397.13509725 -219.59816643 386.44243162 -228.71240234 372.04199219 C-249.00593942 338.21736616 -255.7728614 295.58101233 -255.625 256.75 C-255.62284485 255.73209381 -255.6206897 254.71418762 -255.61846924 253.66543579 C-255.56879854 239.05636477 -255.31790191 224.72424147 -252.3125 210.375 C-252.11382324 209.40014648 -251.91514648 208.42529297 -251.71044922 207.42089844 C-246.70859811 183.50942745 -239.86128698 157.37107529 -226.33203125 136.70703125 C-218.25151736 124.11715719 -217.15957204 113.87870389 -217.4375 98.9921875 C-217.50860858 89.78889322 -215.61100318 82.77014635 -209.21875 76.06640625 C-204.25054274 71.65814039 -199.0984809 69.18932966 -192.41015625 69.4453125 C-181.03188552 70.07388023 -181.03188552 70.07388023 -170.6875 66.28515625 C-168.2485844 63.92415046 -166.00983639 61.51745953 -163.79394531 58.95410156 C-161.08638796 56.06806317 -157.92728248 53.77922348 -154.75 51.4375 C-154.07807617 50.94024414 -153.40615234 50.44298828 -152.71386719 49.93066406 C-121.57215721 27.2356497 -86.64002431 11.79266216 -48.875 4.0625 C-48.15610596 3.91514404 -47.43721191 3.76778809 -46.6965332 3.6159668 C-31.16987908 0.66484793 -15.76936592 -0.03207988 0 0 Z " fill="#192B7C" transform="translate(255.3125,-0.375)"/>
<path d="M0 0 C26.56371032 0.01968654 52.8892319 12.63586899 71.50390625 31.09765625 C91.50120382 51.71669341 101.08222911 77.35466131 101 105.9375 C101.01611328 107.05769531 101.03222656 108.17789063 101.04882812 109.33203125 C101.05348315 117.40384118 99.82287464 124.66555329 97.6875 132.4375 C97.49406006 133.1584082 97.30062012 133.87931641 97.10131836 134.62207031 C94.32433689 144.45574424 90.07612284 157.04887716 82.6875 164.4375 C77.32604437 165.16860759 75.02628127 163.36146129 70.6875 160.4375 C68.07192246 160.6438572 66.96539113 161.16637021 65.08203125 163.00390625 C64.55996094 163.66261719 64.03789062 164.32132813 63.5 165 C50.49830988 180.42060921 30.81960084 191.57032977 10.6875 194.4375 C-18.57249106 196.50460526 -42.580669 190.43985582 -65.0234375 171.1015625 C-80.58343832 156.30759249 -92.3743269 134.25002469 -93.3125 112.4375 C-93.3640625 111.38820313 -93.415625 110.33890625 -93.46875 109.2578125 C-94.11711718 83.70133935 -86.18401279 61.5432829 -68.58984375 42.74609375 C-53.73575528 27.6881756 -33.22293242 15.40288023 -11.4375 15.25 C-10.40625 15.311875 -9.375 15.37375 -8.3125 15.4375 C-8.33570313 14.52226562 -8.35890625 13.60703125 -8.3828125 12.6640625 C-8.40085937 11.47554687 -8.41890625 10.28703125 -8.4375 9.0625 C-8.46070313 7.87914063 -8.48390625 6.69578125 -8.5078125 5.4765625 C-8.13825061 -0.27382046 -4.99612845 0.09282424 0 0 Z " fill="#FEC043" transform="translate(193.3125,115.5625)"/>
<path d="M0 0 C1.09059723 -0.01720093 2.18119446 -0.03440186 3.30484009 -0.05212402 C5.08477356 -0.06490387 5.08477356 -0.06490387 6.90066528 -0.07794189 C8.15811554 -0.09429687 9.4155658 -0.11065186 10.71112061 -0.12750244 C14.87073298 -0.17973764 19.03038368 -0.21052742 23.19021606 -0.23907471 C24.6254796 -0.24980077 26.06074291 -0.2605558 27.49600601 -0.27133942 C33.46669726 -0.31455855 39.4373781 -0.35203153 45.40818596 -0.3745842 C53.95116995 -0.40707235 62.4923365 -0.47348312 71.03463542 -0.58738589 C77.05008246 -0.66485112 83.06504396 -0.70385618 89.08097661 -0.71442533 C92.67073742 -0.7217219 96.25855556 -0.74563402 99.84777451 -0.8106308 C103.85347962 -0.8821378 107.85528682 -0.87403852 111.86160278 -0.85919189 C113.63546356 -0.9084079 113.63546356 -0.9084079 115.44515991 -0.95861816 C123.30932544 -0.8392682 123.30932544 -0.8392682 126.70873833 2.40694332 C128.52093667 4.96322264 130.03505835 7.54604776 131.51052856 10.30780029 C132.23227264 11.33035416 132.95401672 12.35290802 133.69763184 13.40644836 C139.80534879 23.25658148 139.4685476 32.55465997 139.29959106 43.83514404 C139.29413682 45.79758661 139.29136701 47.76003827 139.2911377 49.7224884 C139.28345477 53.810062 139.25271614 57.89654606 139.20339966 61.98382568 C139.14085102 67.21481317 139.12254869 72.44476727 139.11960793 77.6760931 C139.1149043 81.71767715 139.09411281 85.75904311 139.06772995 89.80053902 C139.05570276 91.72978514 139.0469814 93.6590549 139.04167557 95.58833122 C139.03043473 98.28030203 138.99926744 100.97130142 138.96218872 103.6630249 C138.96197723 104.45324539 138.96176575 105.24346588 138.96154785 106.05763245 C138.86988518 110.81015421 138.29265786 114.2775981 135.51052856 118.30780029 C131.85994586 120.16284086 128.85044991 120.5600741 124.7865448 120.5684967 C123.64401749 120.57558151 122.50149017 120.58266632 121.32434082 120.58996582 C120.08004303 120.5874884 118.83574524 120.58501099 117.55374146 120.5824585 C115.5773745 120.59012489 115.5773745 120.59012489 113.56108093 120.59794617 C109.95362288 120.61131824 106.34626971 120.61191687 102.7387917 120.60938287 C99.72439465 120.60831198 96.71001872 120.61319953 93.6956262 120.61798829 C86.58288548 120.62907719 79.47019757 120.6295243 72.35745239 120.62347412 C65.02573603 120.61743348 57.69421154 120.62974897 50.36252791 120.65104419 C44.0617361 120.66867055 37.76100531 120.67465994 31.46018976 120.67140645 C27.69964945 120.66959515 23.93924603 120.67221437 20.1787281 120.68612099 C15.98459576 120.70105131 11.79085305 120.69172019 7.59671021 120.68011475 C6.35443665 120.68775848 5.11216309 120.69540222 3.83224487 120.70327759 C-7.19829702 120.63572456 -7.19829702 120.63572456 -11.48947144 117.30780029 C-14.39757097 112.89308513 -13.77751515 107.39475777 -13.76412964 102.28851318 C-13.76924057 101.28304947 -13.7743515 100.27758575 -13.77961731 99.24165344 C-13.79350634 95.92119377 -13.79255709 92.6009418 -13.79025269 89.28045654 C-13.79413986 86.97027001 -13.79847458 84.66008419 -13.80323792 82.34989929 C-13.81069856 77.50877566 -13.81040985 72.66772496 -13.80514526 67.82659912 C-13.79934958 61.62470887 -13.81628502 55.42311717 -13.83948994 49.22127628 C-13.85422549 44.45059973 -13.85509923 39.67999512 -13.85198021 34.90929985 C-13.85249347 32.62277065 -13.857732 30.33623743 -13.86779213 28.0497303 C-13.88013602 24.85178374 -13.87337685 21.65441927 -13.86178589 18.45648193 C-13.8732515 17.04190704 -13.8732515 17.04190704 -13.88494873 15.59875488 C-13.84399269 10.4833077 -13.57995528 6.60992438 -10.48947144 2.30780029 C-6.91928303 0.51945772 -3.96607124 0.04677456 0 0 Z " fill="#4E65D0" transform="translate(346.4894714355469,115.69219970703125)"/>
<path d="M0 0 C115.5 0 231 0 350 0 C345.88226846 4.80402014 342.40674167 8.59227344 337.5 12.3125 C336.89470459 12.77833496 336.28940918 13.24416992 335.66577148 13.72412109 C333.78590784 15.16142085 331.89551706 16.58342317 330 18 C329.41621582 18.43779785 328.83243164 18.8755957 328.23095703 19.32666016 C319.50351225 25.82844613 310.46568523 31.63489874 301 37 C300.30874023 37.39687012 299.61748047 37.79374023 298.90527344 38.20263672 C272.76346711 53.07927188 243.67001935 62.41727889 214 67 C212.87682373 67.17877686 211.75364746 67.35755371 210.59643555 67.54174805 C198.87962445 69.22156419 187.25959459 69.35732288 175.4375 69.3125 C174.41709625 69.31034485 173.3966925 69.3081897 172.34536743 69.30596924 C157.71789476 69.25633352 143.36736162 69.00919712 129 66 C128.02514648 65.80132324 127.05029297 65.60264648 126.04589844 65.39794922 C82.75989905 56.34329407 42.60096945 37.93863398 9 9 C8.11957031 8.24203125 7.23914063 7.4840625 6.33203125 6.703125 C1.77871622 2.72162162 1.77871622 2.72162162 0 1 C0 0.67 0 0.34 0 0 Z " fill="#FFB509" transform="translate(81,443)"/>
<path d="M0 0 C1.51427582 0.00081573 1.51427582 0.00081573 3.05914307 0.00164795 C19.57458953 0.04242844 35.47683935 0.97005679 51.6875 4.375 C52.70279785 4.58398926 53.7180957 4.79297852 54.76416016 5.00830078 C96.09667673 13.79055601 134.67762621 32.80668764 166.6875 60.375 C167.56792969 61.13296875 168.44835937 61.8909375 169.35546875 62.671875 C173.90878378 66.65337838 173.90878378 66.65337838 175.6875 68.375 C175.6875 68.705 175.6875 69.035 175.6875 69.375 C60.1875 69.375 -55.3125 69.375 -174.3125 69.375 C-170.19476846 64.57097986 -166.71924167 60.78272656 -161.8125 57.0625 C-160.90455688 56.36374756 -160.90455688 56.36374756 -159.97827148 55.65087891 C-158.09840784 54.21357915 -156.20801706 52.79157683 -154.3125 51.375 C-153.72871582 50.93720215 -153.14493164 50.4994043 -152.54345703 50.04833984 C-143.81772786 43.54783196 -134.78306348 37.72861526 -125.3125 32.375 C-124.60528809 31.9728125 -123.89807617 31.570625 -123.16943359 31.15625 C-100.03404164 18.1308259 -74.86287591 9.38198539 -48.875 4.0625 C-48.15610596 3.91514404 -47.43721191 3.76778809 -46.6965332 3.6159668 C-31.16987908 0.66484793 -15.76936592 -0.03207988 0 0 Z " fill="#FFB509" transform="translate(255.3125,-0.375)"/>
<path d="M0 0 C0.65855052 -0.00346153 1.31710105 -0.00692307 1.99560764 -0.01048949 C4.21798388 -0.01847505 6.43971729 -0.0049352 8.66206074 0.00837994 C10.265074 0.00707255 11.86808665 0.00444737 13.47109586 0.00061244 C17.88820996 -0.00611768 22.30510716 0.00593471 26.7221936 0.02094662 C31.48087661 0.03386644 36.23954677 0.0295204 40.99824238 0.0272398 C49.24703287 0.02566449 57.49575233 0.03510056 65.74452496 0.05195332 C77.67094792 0.07630392 89.59733644 0.08414455 101.52378158 0.08791729 C120.87224702 0.09448797 140.22067458 0.11446584 159.56911945 0.14282513 C178.36762013 0.17034976 197.16611052 0.19159114 215.96462727 0.20434856 C217.12279338 0.20513673 218.28095949 0.20592491 219.47422155 0.20673696 C225.28422923 0.21065199 231.09423698 0.21444313 236.90424478 0.21817267 C285.12662828 0.24928777 333.34897065 0.30214032 381.57131672 0.36914349 C381.57131672 0.69914349 381.57131672 1.02914349 381.57131672 1.36914349 C270.69131672 1.36914349 159.81131672 1.36914349 45.57131672 1.36914349 C45.57131672 9.94914349 45.57131672 18.52914349 45.57131672 27.36914349 C32.88381672 27.55664349 32.88381672 27.55664349 28.90847492 27.57690716 C22.0560476 27.5231099 22.0560476 27.5231099 16.27834797 30.66992474 C14.28423306 33.81283781 14.28423306 33.81283781 13.94631672 37.36914349 C13.92698078 38.32820599 13.92698078 38.32820599 13.90725422 39.30664349 C15.00607997 42.71946698 16.43106226 44.72301708 19.57131672 46.36914349 C24.16974845 47.13631213 28.72946994 47.15997296 33.38381672 47.18164349 C35.28163898 47.21934856 35.28163898 47.21934856 37.21780109 47.25781536 C40.33595215 47.3166484 43.45270039 47.35295854 46.57131672 47.36914349 C46.7209403 52.31285997 46.82912225 57.25522604 46.90090656 62.20068645 C46.93086453 63.8786547 46.97164714 65.55646925 47.02395344 67.23388958 C47.34117619 77.67736016 47.16562801 84.7831603 40.57131672 93.36914349 C29.91724734 114.94165121 30.29720046 140.26441609 37.88381672 162.68164349 C39.01686008 165.85018931 40.16606474 168.7517845 42.01694965 171.57141399 C47.13625989 179.61073452 47.36401993 186.88315156 47.15725422 196.09961224 C47.1460363 197.58602958 47.13750842 199.0724694 47.1315279 200.55891705 C47.10883243 204.43429217 47.05008382 208.3082757 46.98330402 212.18310833 C46.92145859 216.15182968 46.89442366 220.12078026 46.86428547 224.08984661 C46.80031491 231.85024044 46.69817902 239.60949555 46.57131672 247.36914349 C45.77959064 247.37325237 44.98786457 247.37736126 44.1721468 247.38159466 C40.5752842 247.41454503 36.98011197 247.48519391 33.38381672 247.55664349 C31.51499836 247.56534466 31.51499836 247.56534466 29.60842609 247.57422161 C22.33629308 247.44032895 22.33629308 247.44032895 16.24953938 250.79101849 C14.64263366 253.25958472 13.88776711 254.46508289 13.94631672 257.36914349 C13.93342609 258.00851849 13.92053547 258.64789349 13.90725422 259.30664349 C14.99910328 262.69779823 16.46437255 264.71404975 19.57131672 266.36914349 C24.00353582 267.1329261 28.39405806 267.15990716 32.88381672 267.18164349 C34.10133625 267.2067802 35.31885578 267.23191692 36.57326984 267.25781536 C39.57227191 267.31661932 42.57182935 267.34575981 45.57131672 267.36914349 C45.57131672 273.96914349 45.57131672 280.56914349 45.57131672 287.36914349 C43.75244953 287.38332317 41.93358234 287.39750286 40.05959797 287.41211224 C37.66764552 287.45901326 35.27571921 287.50726064 32.88381672 287.55664349 C31.08654133 287.56534466 31.08654133 287.56534466 29.25295734 287.57422161 C22.22091429 287.48252167 22.22091429 287.48252167 16.27834797 290.66992474 C14.28423306 293.81283781 14.28423306 293.81283781 13.94631672 297.36914349 C13.93342609 298.00851849 13.92053547 298.64789349 13.90725422 299.30664349 C14.99910328 302.69779823 16.46437255 304.71404975 19.57131672 306.36914349 C24.00721183 307.13355957 28.39041474 307.15873908 32.88381672 307.18164349 C37.07069172 307.24351849 41.25756672 307.30539349 45.57131672 307.36914349 C45.57131672 315.94914349 45.57131672 324.52914349 45.57131672 333.36914349 C156.45131672 333.36914349 267.33131672 333.36914349 381.57131672 333.36914349 C381.57131672 333.69914349 381.57131672 334.02914349 381.57131672 334.36914349 C332.19348624 334.43775215 282.81566057 334.49064303 233.43779184 334.52233947 C227.61340357 334.52609177 221.78901539 334.52997472 215.96462727 334.53393841 C214.22526987 334.5351188 214.22526987 334.5351188 212.45077393 334.53632305 C193.65459365 334.54939075 174.85844079 334.57305207 156.0622768 334.60060187 C136.78764252 334.62861817 117.51302262 334.64531174 98.23836881 334.65140897 C86.33689045 334.65553326 74.43548958 334.66857748 62.53403506 334.69289289 C54.38199531 334.70870351 46.22999584 334.71355449 38.07794186 334.70964762 C33.36877235 334.70771876 28.6597386 334.71075541 23.95059299 334.72675991 C19.64442936 334.74128863 15.33849363 334.74214197 11.03231982 334.73184017 C9.4696881 334.73056572 7.90704253 334.73443072 6.34443834 334.74379303 C4.22934216 334.75573467 2.1150818 334.74940446 0 334.73828697 C-1.17751274 334.73942613 -2.35502549 334.74056529 -3.56822044 334.74173898 C-6.42868328 334.36914349 -6.42868328 334.36914349 -8.30688077 333.18877584 C-9.86210308 330.66611003 -9.80475635 328.84468049 -9.8062067 325.88588238 C-9.81402995 324.73920558 -9.82185319 323.59252878 -9.8299135 322.4111042 C-9.82322133 321.14565804 -9.81652917 319.88021189 -9.80963421 318.57641888 C-9.81308903 317.22302942 -9.8178524 315.86964278 -9.82381594 314.51626205 C-9.83637995 310.78903961 -9.83013121 307.06204657 -9.82085729 303.33482313 C-9.81408913 299.31840495 -9.82453689 295.30202712 -9.83279705 291.28561687 C-9.84616053 283.41423464 -9.84324504 275.54293806 -9.83455913 267.67155242 C-9.82779325 261.27623747 -9.8268611 254.88094658 -9.83013058 248.48562908 C-9.83059028 247.57658323 -9.83104998 246.66753739 -9.8315236 245.73094469 C-9.83248275 243.88443048 -9.83345539 242.03791628 -9.83444138 240.19140208 C-9.84300293 222.86289528 -9.83314916 205.53443603 -9.81704028 188.20593703 C-9.8036364 173.32639609 -9.80596428 158.44692535 -9.81979656 143.56738567 C-9.83583888 126.30231443 -9.84217889 109.03728491 -9.83295977 91.77220726 C-9.83200409 89.93235748 -9.83106098 88.09250769 -9.83013058 86.25265789 C-9.82966775 85.34733682 -9.82920492 84.44201575 -9.82872807 83.50926071 C-9.82613413 77.11913051 -9.83051786 70.72902669 -9.83756924 64.33890057 C-9.84596948 56.5550388 -9.84373529 48.77126783 -9.827727 40.98741651 C-9.81982432 37.01340024 -9.81678648 33.03953554 -9.82667446 29.06552029 C-9.83558082 25.43114593 -9.8307562 21.79706435 -9.81474181 18.16271675 C-9.80977632 16.21753852 -9.81962676 14.27234014 -9.8299135 12.32718277 C-9.82209026 11.18050597 -9.81426701 10.03382917 -9.8062067 8.85240459 C-9.80571965 7.85878383 -9.80523259 6.86516306 -9.80473077 5.84143257 C-9.42868328 3.36914349 -9.42868328 3.36914349 -8.30688077 1.54951113 C-5.51971007 -0.20210771 -3.27679855 -0.00317007 0 0 Z " fill="#00A8EF" transform="translate(68.42868328094482,88.63085651397705)"/>
<path d="M0 0 C26.56371032 0.01968654 52.8892319 12.63586899 71.50390625 31.09765625 C91.50120382 51.71669341 101.08222911 77.35466131 101 105.9375 C101.01611328 107.05769531 101.03222656 108.17789063 101.04882812 109.33203125 C101.05348315 117.40384118 99.82287464 124.66555329 97.6875 132.4375 C97.49406006 133.1584082 97.30062012 133.87931641 97.10131836 134.62207031 C94.32433689 144.45574424 90.07612284 157.04887716 82.6875 164.4375 C76.67106545 165.45830646 73.07820249 162.58665814 68.3125 159.375 C66.60873635 158.26330549 64.90427643 157.15267752 63.19921875 156.04296875 C61.852229 155.15810791 61.852229 155.15810791 60.47802734 154.25537109 C55.73555869 151.16592039 50.92903066 148.17996146 46.125 145.1875 C45.12952148 144.56528564 44.13404297 143.94307129 43.10839844 143.30200195 C35.44887787 138.5187567 27.75874636 133.78626895 20.0625 129.0625 C-5.2092765 113.5407235 -5.2092765 113.5407235 -8.3125 110.4375 C-8.56418228 108.51031494 -8.56418228 108.51031494 -8.56646729 106.11035156 C-8.57492676 104.74747009 -8.57492676 104.74747009 -8.58355713 103.35705566 C-8.57950867 102.35750854 -8.57546021 101.35796143 -8.57128906 100.328125 C-8.5747937 99.27765991 -8.57829834 98.22719482 -8.58190918 97.14489746 C-8.59073979 93.65903185 -8.58487259 90.17336781 -8.578125 86.6875 C-8.57947127 84.27376262 -8.58141147 81.86002551 -8.58392334 79.44628906 C-8.58687641 74.38213525 -8.58257106 69.31805189 -8.57324219 64.25390625 C-8.56184761 57.75004469 -8.5684061 51.24634818 -8.58038712 44.74249268 C-8.58760076 39.75666044 -8.58532006 34.77086758 -8.58013153 29.78503418 C-8.57879366 27.38635234 -8.58044752 24.98766697 -8.58509064 22.58898926 C-8.5901477 19.24152095 -8.58245706 15.89432307 -8.57128906 12.546875 C-8.57533752 11.54732788 -8.57938599 10.54778076 -8.58355713 9.51794434 C-8.57791748 8.60935669 -8.57227783 7.70076904 -8.56646729 6.76464844 C-8.56571323 5.97266052 -8.56495918 5.18067261 -8.56418228 4.36468506 C-7.92789303 -0.50751781 -3.9988476 0.07429553 0 0 Z " fill="#FE5E95" transform="translate(193.3125,115.5625)"/>
<path d="M0 0 C1.15385696 -0.00571014 2.30771393 -0.01142029 3.49653625 -0.01730347 C4.77391663 -0.01842133 6.051297 -0.01953918 7.36738586 -0.02069092 C8.71738827 -0.02531698 10.06738936 -0.03034135 11.41738892 -0.03573608 C15.09530071 -0.04888655 18.77319422 -0.05531071 22.45112586 -0.05974674 C24.7485763 -0.0626745 27.04602171 -0.06677884 29.34346962 -0.07125092 C36.53025658 -0.08493566 43.71703209 -0.09459632 50.90383118 -0.09845281 C59.20175735 -0.1029297 67.49951847 -0.12045626 75.79739445 -0.1494534 C82.20849911 -0.17107937 88.61955738 -0.18115765 95.03069812 -0.18249393 C98.86061457 -0.18354173 102.69037608 -0.18944355 106.52025414 -0.20731354 C110.12603657 -0.22380911 113.73154791 -0.22594266 117.33735466 -0.21717453 C119.28760118 -0.21603852 121.23783876 -0.2297463 123.18803406 -0.243927 C134.09512574 -0.19191883 134.09512574 -0.19191883 138.68110657 3.14044189 C140.71415126 6.19000894 140.93384925 6.81001947 140.95576477 10.24127197 C140.96529678 11.06255081 140.9748288 11.88382965 140.98464966 12.72999573 C140.98328255 14.05658455 140.98328255 14.05658455 140.98188782 15.40997314 C140.98617294 16.32373215 140.99045807 17.23749115 140.99487305 18.17893982 C141.00061711 20.11312024 141.00111605 22.04732226 140.9967804 23.98150635 C140.99362963 26.93134809 141.01704647 29.88017797 141.04243469 32.82989502 C141.04470869 34.71075313 141.04541071 36.59161394 141.04438782 38.47247314 C141.05359756 39.350793 141.06280731 40.22911285 141.07229614 41.13404846 C141.03461761 46.15924425 140.68987254 49.90288785 137.68110657 54.14044189 C134.00498684 56.00455519 130.96549191 56.39569514 126.87446594 56.41459656 C125.13326477 56.42955925 125.13326477 56.42955925 123.35688782 56.44482422 C122.0923175 56.44548889 120.82774719 56.44615356 119.52485657 56.44683838 C118.17263839 56.45446414 116.82042454 56.46289236 115.46821594 56.47206116 C111.8029955 56.49396627 108.13785845 56.50279913 104.47257996 56.5078876 C102.18180863 56.51153453 99.89105904 56.51777619 97.60029602 56.52488899 C89.60638979 56.54936526 81.61254835 56.56243238 73.61860657 56.565979 C66.16975052 56.56961754 58.72130567 56.59953996 51.27257538 56.64138359 C44.87328428 56.67607058 38.47412966 56.69152713 32.07474518 56.69222504 C28.25431383 56.69301811 24.434302 56.70177082 20.6139679 56.7302227 C17.02193216 56.75637822 13.43066468 56.75862364 9.83857727 56.74256706 C7.89411094 56.7398854 5.94965972 56.76195113 4.00532532 56.78475952 C-5.49973262 56.70481128 -5.49973262 56.70481128 -8.57865906 53.79048157 C-10.77360042 50.44801127 -11.44226069 47.93865351 -11.51176453 44.02374268 C-11.52782745 43.19923615 -11.54389038 42.37472961 -11.56044006 41.52523804 C-11.60502772 37.7649839 -11.64593609 34.00490246 -11.66899109 30.2444458 C-11.68556372 28.26190462 -11.71287092 26.27942351 -11.75102234 24.29718018 C-11.80580391 21.43472391 -11.82766448 18.5736643 -11.84233093 15.71075439 C-11.86500031 14.82727325 -11.88766968 13.94379211 -11.911026 13.03353882 C-11.89546754 8.49810949 -11.8081371 6.74167294 -8.84867859 3.10479736 C-8.01384949 2.45656006 -7.17902039 1.80832275 -6.31889343 1.14044189 C-4.60235618 -0.57609536 -2.34384105 0.00691033 0 0 Z " fill="#FEC043" transform="translate(344.3188934326172,259.85955810546875)"/>
<path d="M0 0 C1.15523163 -0.00571014 2.31046326 -0.01142029 3.5007019 -0.01730347 C4.774487 -0.01842133 6.04827209 -0.01953918 7.36065674 -0.02069092 C8.71080664 -0.02531845 10.06095523 -0.03034302 11.41110229 -0.03573608 C15.08482278 -0.04887054 18.75852498 -0.05530736 22.43226528 -0.05974674 C24.72754348 -0.06267649 27.02281667 -0.06678116 29.31809235 -0.07125092 C36.49953652 -0.08493015 43.68096926 -0.09459406 50.86242557 -0.09845281 C59.15185165 -0.10293127 67.44111265 -0.12046741 75.73048854 -0.1494534 C82.13736711 -0.1710786 88.54419927 -0.18115757 94.95111394 -0.18249393 C98.77766209 -0.18354159 102.60405516 -0.18944073 106.43056488 -0.20731354 C110.03225678 -0.22380825 113.63367728 -0.22594308 117.23539352 -0.21717453 C119.18324508 -0.21603854 121.13108768 -0.22974613 123.07888794 -0.243927 C133.9728891 -0.1919169 133.9728891 -0.1919169 138.56085205 3.14044189 C143.60655181 10.70899154 141.79731169 24.44936711 140.56085205 33.14044189 C138.46964663 39.80781362 134.78801593 45.6210596 130.56085205 51.14044189 C129.91487312 52.41384178 129.91487312 52.41384178 129.25584412 53.71296692 C124.82173176 57.70692925 119.82711632 56.82709221 114.06890869 56.77154541 C112.14887276 56.78227837 112.14887276 56.78227837 110.19004822 56.79322815 C106.68153303 56.81174697 103.17377752 56.79880082 99.66529393 56.77913785 C95.99207887 56.76274997 92.31891188 56.77156458 88.64567566 56.7766571 C82.47608308 56.78117851 76.30679362 56.76530703 70.13726807 56.73736572 C63.00824738 56.7053275 55.87977382 56.70532371 48.75071436 56.72258049 C41.88957627 56.73845592 35.02863843 56.73170466 28.16750908 56.71464348 C25.24931941 56.70777756 22.33129048 56.70880067 19.4131031 56.71618843 C15.33582404 56.72528664 11.25938693 56.70129439 7.18218994 56.67388916 C5.36713455 56.68367798 5.36713455 56.68367798 3.51541138 56.69366455 C-4.66207719 56.60007061 -4.66207719 56.60007061 -8.66548157 54.23210144 C-11.14787719 51.30464758 -11.56768784 49.70557987 -11.6161499 45.95367432 C-11.62898514 45.08905075 -11.64182037 44.22442719 -11.65504456 43.33360291 C-11.66243149 42.39716446 -11.66981842 41.46072601 -11.6774292 40.49591064 C-11.68550095 39.53397293 -11.69357269 38.57203522 -11.70188904 37.58094788 C-11.71573405 35.54244797 -11.72645433 33.50392484 -11.73431396 31.46539307 C-11.75152184 28.35076853 -11.79540372 25.23720672 -11.83953857 22.12286377 C-11.84966586 20.14305387 -11.85818185 18.16323495 -11.8649292 16.18341064 C-11.88243729 15.25304489 -11.89994537 14.32267914 -11.91798401 13.36412048 C-11.90368958 9.09333467 -11.83301491 6.77531155 -9.53753662 3.07525635 C-6.25372373 0.04742422 -4.37986755 0.01292493 0 0 Z " fill="#FE5E95" transform="translate(344.43914794921875,339.85955810546875)"/>
<path d="M0 0 C0.33 0 0.66 0 1 0 C1 89.76 1 179.52 1 272 C-20.13172106 250.86827894 -29.72159287 210.2571785 -35 182 C-35.16226074 181.19498047 -35.32452148 180.38996094 -35.49169922 179.56054688 C-40.96455505 151.56934616 -40.8459259 117.91127604 -35 90 C-34.80132324 89.02514648 -34.60264648 88.05029297 -34.39794922 87.04589844 C-28.90824229 60.80222082 -19.78748137 19.78748137 0 0 Z " fill="#FEB409" transform="translate(38,120)"/>
<path d="M0 0 C80.52 0 161.04 0 244 0 C239.49317507 4.50682493 239.49317507 4.50682493 236.33984375 6.26171875 C235.63931885 6.65367432 234.93879395 7.04562988 234.21704102 7.44946289 C233.46479248 7.85801514 232.71254395 8.26656738 231.9375 8.6875 C230.74048462 9.33996704 230.74048462 9.33996704 229.51928711 10.00561523 C227.0209133 11.35292373 224.51322872 12.68062904 222 14 C221.25266602 14.39413086 220.50533203 14.78826172 219.73535156 15.19433594 C189.640086 30.83745085 156.78695306 38.23923085 123 38.1875 C122.27045105 38.18689575 121.5409021 38.1862915 120.78924561 38.18566895 C109.42288085 38.16014963 98.23638716 37.82790402 87 36 C85.94256592 35.83854492 85.94256592 35.83854492 84.86376953 35.67382812 C63.3438497 32.24921512 40.94993613 24.76238317 22 14 C20.56852553 13.21335484 19.13619697 12.42826239 17.703125 11.64453125 C11.65714754 8.31042182 5.64193352 4.99275295 0 1 C0 0.67 0 0.34 0 0 Z " fill="#FFC042" transform="translate(149,443)"/>
<path d="M0 0 C0.93134766 0.00902344 1.86269531 0.01804687 2.82226562 0.02734375 C5.1109436 0.05081737 7.39908672 0.08365271 9.6875 0.125 C9.25872559 0.48601807 8.82995117 0.84703613 8.38818359 1.21899414 C4.54058576 4.95514045 3.2594034 7.66060463 3.1015625 13.05859375 C3.14111414 15.22734178 3.21219763 17.39571164 3.3125 19.5625 C3.33957031 20.67560547 3.36664063 21.78871094 3.39453125 22.93554688 C3.46487917 25.6673912 3.56325729 28.39516464 3.6875 31.125 C4.0175 30.795 4.3475 30.465 4.6875 30.125 C7.08948017 30.01407207 9.46298203 29.9676171 11.8659668 29.96386719 C12.99289696 29.95641983 12.99289696 29.95641983 14.14259338 29.94882202 C16.64064435 29.9341581 19.13863172 29.9273898 21.63671875 29.921875 C23.36969505 29.91612499 25.10267133 29.91036724 26.83564758 29.90460205 C30.47661639 29.89407865 34.11756304 29.88824543 37.75854492 29.88476562 C42.41806271 29.87929207 47.07728662 29.85529423 51.73671246 29.82679367 C55.32014306 29.80813897 58.90350348 29.80296008 62.48697853 29.80142975 C64.20413626 29.79840675 65.92129286 29.79039012 67.63840294 29.77724457 C70.04651315 29.76013215 72.4539137 29.76207727 74.86206055 29.76855469 C75.9213829 29.75473251 75.9213829 29.75473251 77.00210571 29.7406311 C81.62042219 29.77941838 84.78284041 30.65825204 88.6875 33.125 C91.17136059 36.85079089 91.0679212 38.71211402 90.6875 43.125 C89.38623471 46.2069441 88.52883374 47.68226917 85.55621338 49.24653625 C81.99346033 50.33753036 78.66301061 50.39711295 74.97558594 50.36791992 C74.21568359 50.36981827 73.45578125 50.37171661 72.67285156 50.37367249 C70.17241962 50.37736397 67.67228092 50.36670256 65.171875 50.35546875 C63.43263788 50.35427631 61.69340011 50.35382392 59.9541626 50.3540802 C56.3160802 50.35251835 52.67809662 50.34424887 49.04003906 50.33081055 C44.36679316 50.31377055 39.69365526 50.3099978 35.02038193 50.31075573 C31.4328711 50.31048451 27.84538409 50.30501186 24.25788116 50.29775429 C22.53381785 50.29456382 20.80975184 50.29259933 19.08568573 50.29186058 C16.68435512 50.28970386 14.28314159 50.28097576 11.88183594 50.27026367 C11.16392883 50.27071686 10.44602173 50.27117004 9.70635986 50.27163696 C4.80197921 50.23947921 4.80197921 50.23947921 3.6875 49.125 C3.6875 56.385 3.6875 63.645 3.6875 71.125 C4.0175 70.795 4.3475 70.465 4.6875 70.125 C6.31240116 70.01068719 7.94222074 69.96540372 9.57104492 69.94799805 C11.13353218 69.92874519 11.13353218 69.92874519 12.72758484 69.90910339 C13.86291153 69.90171646 14.99823822 69.89432953 16.16796875 69.88671875 C17.32871414 69.878647 18.48945953 69.87057526 19.68537903 69.86225891 C22.14936825 69.84839589 24.61337686 69.83768372 27.07739258 69.82983398 C30.8416815 69.81265208 34.60508552 69.76878785 38.36914062 69.72460938 C40.76041019 69.71448032 43.15168725 69.70596488 45.54296875 69.69921875 C46.66817429 69.68171066 47.79337982 69.66420258 48.9526825 69.64616394 C55.15016336 69.66331055 59.01946694 69.87256288 63.6875 74.125 C65.21964888 77.18929776 64.91688548 79.7415642 64.6875 83.125 C62.98863771 86.94744014 61.54199652 88.60119453 57.6875 90.125 C55.2011261 90.37223816 55.2011261 90.37223816 52.3840332 90.36791992 C50.79767815 90.37253487 50.79767815 90.37253487 49.17927551 90.37724304 C48.04374741 90.37005753 46.9082193 90.36287201 45.73828125 90.35546875 C44.56992233 90.35501053 43.40156342 90.35455231 42.19779968 90.3540802 C39.73073306 90.35106071 37.2636683 90.3431835 34.79663086 90.33081055 C31.0043265 90.31252087 27.21226579 90.31030111 23.41992188 90.31054688 C21.02603954 90.30563295 18.63215887 90.29980518 16.23828125 90.29296875 C15.09668045 90.29185593 13.95507965 90.2907431 12.77888489 90.28959656 C11.73077133 90.28321671 10.68265778 90.27683685 9.6027832 90.27026367 C8.67552933 90.26645187 7.74827545 90.26264008 6.79292297 90.25871277 C4.6875 90.125 4.6875 90.125 3.6875 89.125 C3.57106696 93.02058088 3.50017091 96.91571258 3.4375 100.8125 C3.38722656 102.46668945 3.38722656 102.46668945 3.3359375 104.15429688 C3.1778631 110.52161688 3.1778631 110.52161688 5.578125 116.26953125 C6.62226563 117.18798828 6.62226563 117.18798828 7.6875 118.125 C8.3475 118.785 9.0075 119.445 9.6875 120.125 C6.47934155 120.21274066 3.27149538 120.26563706 0.0625 120.3125 C-0.84113281 120.33763672 -1.74476563 120.36277344 -2.67578125 120.38867188 C-7.92336901 120.44612722 -11.90696699 120.3283923 -16.3125 117.125 C-19.01352794 112.4088614 -18.60097817 107.37769295 -18.5871582 102.10571289 C-18.59226913 101.10024918 -18.59738007 100.09478546 -18.60264587 99.05885315 C-18.61653491 95.73839347 -18.61558565 92.41814151 -18.61328125 89.09765625 C-18.61716843 86.78746972 -18.62150314 84.47728389 -18.62626648 82.167099 C-18.63372712 77.32597537 -18.63343841 72.48492467 -18.62817383 67.64379883 C-18.62237814 61.44190858 -18.63931359 55.24031687 -18.6625185 49.03847599 C-18.67725405 44.26779944 -18.67812779 39.49719483 -18.67500877 34.72649956 C-18.67552203 32.43997036 -18.68076057 30.15343713 -18.69082069 27.86693001 C-18.70316459 24.66898344 -18.69640541 21.47161897 -18.68481445 18.27368164 C-18.69628006 16.85910675 -18.69628006 16.85910675 -18.70797729 15.41595459 C-18.66654409 10.24090925 -18.23523332 6.59022447 -15.3125 2.125 C-10.84640004 -0.86378582 -5.17441913 -0.09507767 0 0 Z " fill="#314DC9" transform="translate(351.3125,115.875)"/>
<path d="M0 0 C0.99 0.33 1.98 0.66 3 1 C2.38125 1.69609375 2.38125 1.69609375 1.75 2.40625 C-13.83215881 21.04919 -18.73083939 44.21476821 -17 68 C-13.72007792 91.6832645 -0.66293057 112.2734468 17.921875 126.90234375 C38.26566699 140.76607002 62.65928853 145.53001513 86.9453125 141.28125 C97.86970969 138.89597172 107.5657026 134.22129283 116.80859375 128.0390625 C119 127 119 127 121.28515625 127.3359375 C121.85105469 127.55507813 122.41695312 127.77421875 123 128 C112.12503816 143.48858202 97.77608508 153.60859862 80 160 C78.93523437 160.4125 77.87046875 160.825 76.7734375 161.25 C56.3032355 168.02634273 32.00578797 165.65211133 12.8125 156.3125 C-9.5176388 144.76018711 -26.61071941 127.07068543 -34.66845703 103.00341797 C-36.76608945 96.17573239 -38.69199277 89.16116803 -39 82 C-39.0515625 80.95070313 -39.103125 79.90140625 -39.15625 78.8203125 C-39.80519118 53.24121435 -31.85268123 31.17965747 -14.30859375 12.328125 C-9.85010823 7.83191964 -5.27579856 3.51719904 0 0 Z " fill="#FCB50B" transform="translate(139,146)"/>
<path d="M0 0 C1.34642443 0.00399138 2.69285004 0.01874712 4.0390625 0.04296875 C5.04839844 0.04393555 5.04839844 0.04393555 6.078125 0.04492188 C9.43883027 0.0746919 12.43254743 0.33924623 15.6640625 1.23046875 C15.65438446 2.38003555 15.64470642 3.52960236 15.63473511 4.71400452 C15.54997463 15.55783102 15.51788011 26.4007111 15.53709221 37.24486637 C15.54528349 42.81992262 15.53504555 48.39366563 15.48242188 53.96850586 C15.43229859 59.35075792 15.43093653 64.73103414 15.46310806 70.11340141 C15.46685378 72.1646901 15.45315096 74.2160886 15.42156601 76.26713753 C14.80788754 87.2500848 14.80788754 87.2500848 18.80561829 96.98271179 C21.3750406 98.81366072 23.75581232 100.03055406 26.6640625 101.23046875 C28.23891397 102.17019572 29.80247967 103.12942574 31.34765625 104.1171875 C32.93048887 105.05383449 34.51518287 105.98734188 36.1015625 106.91796875 C43.54395694 111.33489223 50.90388747 115.85840891 58.20751953 120.50073242 C65.966027 125.43190551 73.76474212 130.29766928 81.56933594 135.15551758 C86.31494322 138.11459452 91.03730018 141.08835512 95.6640625 144.23046875 C95.05575133 148.6719736 93.37252914 152.00526034 91.2265625 155.91796875 C90.60910156 157.05621094 89.99164063 158.19445312 89.35546875 159.3671875 C87.6640625 162.23046875 87.6640625 162.23046875 85.6640625 164.23046875 C79.64762795 165.25127521 76.05476499 162.37962689 71.2890625 159.16796875 C69.58529885 158.05627424 67.88083893 156.94564627 66.17578125 155.8359375 C64.8287915 154.95107666 64.8287915 154.95107666 63.45458984 154.04833984 C58.71212119 150.95888914 53.90559316 147.97293021 49.1015625 144.98046875 C48.10608398 144.35825439 47.11060547 143.73604004 46.08496094 143.0949707 C38.42544037 138.31172545 30.73530886 133.5792377 23.0390625 128.85546875 C-2.232714 113.33369225 -2.232714 113.33369225 -5.3359375 110.23046875 C-5.58761978 108.30328369 -5.58761978 108.30328369 -5.58990479 105.90332031 C-5.59836426 104.54043884 -5.59836426 104.54043884 -5.60699463 103.15002441 C-5.60294617 102.15047729 -5.59889771 101.15093018 -5.59472656 100.12109375 C-5.5982312 99.07062866 -5.60173584 98.02016357 -5.60534668 96.93786621 C-5.61417729 93.4520006 -5.60831009 89.96633656 -5.6015625 86.48046875 C-5.60290877 84.06673137 -5.60484897 81.65299426 -5.60736084 79.23925781 C-5.61031391 74.175104 -5.60600856 69.11102064 -5.59667969 64.046875 C-5.58528511 57.54301344 -5.5918436 51.03931693 -5.60382462 44.53546143 C-5.61103826 39.54962919 -5.60875756 34.56383633 -5.60356903 29.57800293 C-5.60223116 27.17932109 -5.60388502 24.78063572 -5.60852814 22.38195801 C-5.6135852 19.0344897 -5.60589456 15.68729182 -5.59472656 12.33984375 C-5.59877502 11.34029663 -5.60282349 10.34074951 -5.60699463 9.31091309 C-5.60135498 8.40232544 -5.59571533 7.49373779 -5.58990479 6.55761719 C-5.58915073 5.76562927 -5.58839668 4.97364136 -5.58761978 4.15765381 C-5.10347895 0.45048389 -3.49179546 0.24123645 0 0 Z " fill="#FE3980" transform="translate(190.3359375,115.76953125)"/>
<path d="M0 0 C0.74138755 -0.00438225 1.4827751 -0.00876451 2.24662894 -0.01327956 C4.74390484 -0.02668996 7.24114543 -0.03285141 9.7384491 -0.03897095 C11.52371379 -0.04687009 13.30897688 -0.05513892 15.09423828 -0.06375122 C20.96805797 -0.08999101 26.84188486 -0.10527988 32.71574402 -0.11953735 C34.73579602 -0.12489605 36.75584798 -0.13027356 38.77589989 -0.13566971 C47.17675184 -0.15730047 55.57760185 -0.17603843 63.97847462 -0.1872921 C76.02886226 -0.20353939 88.07892786 -0.23673387 100.12919408 -0.29369295 C108.59633386 -0.33235473 117.06338737 -0.35192027 125.53061312 -0.35721266 C130.59073332 -0.36087102 135.65051019 -0.37294375 140.71053505 -0.4053154 C145.47041546 -0.43533019 150.22974363 -0.44173149 154.98969841 -0.42993164 C156.73724549 -0.42971036 158.4848177 -0.43806052 160.23227692 -0.45558548 C162.6176779 -0.47820717 165.00106443 -0.47001679 167.38647461 -0.45410156 C168.07869875 -0.46798365 168.7709229 -0.48186574 169.48412353 -0.49616849 C173.36102049 -0.43239638 174.79054746 0.07453862 177.78979015 2.62940025 C178.48078462 3.46248522 179.17177908 4.29557018 179.88371277 5.15390015 C180.21371277 5.48390015 180.54371277 5.81390015 180.88371277 6.15390015 C181.26758623 11.14425519 180.9708452 14.15206181 177.88371277 18.15390015 C174.30791926 20.53776248 171.77424996 20.43969112 167.64717102 20.42132568 C166.90492905 20.4258568 166.16268707 20.43038791 165.39795291 20.43505633 C162.90372285 20.44774546 160.40970988 20.44607707 157.91545105 20.44442749 C156.13003762 20.45040994 154.34462678 20.45721482 152.55921936 20.46478271 C147.70383045 20.48247897 142.848512 20.48713962 137.99309397 20.48841429 C133.94232208 20.49031148 129.89156667 20.49766696 125.84080112 20.50475848 C116.2849468 20.52105386 106.72913017 20.52592639 97.17326355 20.52450562 C87.31037862 20.52330391 77.44771242 20.54440886 67.58488286 20.57599294 C59.12195877 20.60212999 50.65910623 20.61287399 42.19614208 20.6115948 C37.13945831 20.6110844 32.08296886 20.61681037 27.02632523 20.6379509 C22.27057232 20.65728997 17.51519993 20.65748751 12.75943375 20.64291763 C11.01351365 20.64082303 9.26757001 20.64556908 7.52169037 20.65763855 C5.13875135 20.67304562 2.75713183 20.66381416 0.3742218 20.64837646 C-0.31732022 20.65866359 -1.00886225 20.66895072 -1.72136009 20.67954957 C-6.43311144 20.61205557 -8.80107033 19.46872455 -12.11628723 16.15390015 C-13.7171535 12.95216761 -13.61545812 9.62812956 -13.11628723 6.15390015 C-9.39068007 0.3171156 -6.52416145 0.00464641 0 0 Z " fill="#99E6FC" transform="translate(95.11628723144531,335.8460998535156)"/>
<path d="M0 0 C0.73911621 0.1129541 1.47823242 0.2259082 2.23974609 0.34228516 C22.03317144 3.43487849 42.24117381 9.6628852 60 19 C60 19.33 60 19.66 60 20 C-2.37 20 -64.74 20 -129 20 C-112.12420577 8.74947051 -88.8769973 3.10813632 -69 0 C-67.94546631 -0.17136475 -67.94546631 -0.17136475 -66.86962891 -0.34619141 C-45.32166125 -3.67835135 -21.48577598 -3.57675867 0 0 Z " fill="#FFC042" transform="translate(305,49)"/>
<path d="M0 0 C0.8621814 -0.00571014 1.72436279 -0.01142029 2.6126709 -0.01730347 C4.03479134 -0.01898026 4.03479134 -0.01898026 5.48564148 -0.02069092 C6.98095901 -0.02813828 6.98095901 -0.02813828 8.50648499 -0.03573608 C11.81554344 -0.05038166 15.12455394 -0.05716388 18.43363953 -0.06268311 C20.7280884 -0.06843281 23.02253725 -0.07419057 25.31698608 -0.07995605 C30.13313522 -0.09047302 34.94926763 -0.09631106 39.76542664 -0.09979248 C45.9394572 -0.10527708 52.1132672 -0.12930162 58.28722858 -0.15776443 C63.02869311 -0.17638055 67.77010442 -0.18159588 72.5116024 -0.18312836 C74.78780002 -0.18615799 77.06399663 -0.19419691 79.34015846 -0.20731354 C82.52424045 -0.22435143 85.70778251 -0.22249905 88.89189148 -0.21600342 C89.83389908 -0.2252182 90.77590668 -0.23443298 91.74645996 -0.243927 C96.5932518 -0.21292395 99.995735 -0.09510667 103.88285828 3.14044189 C106.34214572 6.82937306 106.57591407 9.85685611 105.88285828 14.14044189 C103.75837557 17.58356903 102.73433186 18.85661737 98.88285828 20.14044189 C97.47283088 20.23681559 96.05875618 20.2795632 94.64546204 20.28761292 C93.78190598 20.29476822 92.91834991 20.30192352 92.02862549 20.30929565 C91.08414047 20.31198456 90.13965546 20.31467346 89.16654968 20.31744385 C88.1695253 20.32401505 87.17250092 20.33058624 86.14526367 20.33735657 C82.84164864 20.35708864 79.53807901 20.36875066 76.23442078 20.37872314 C75.10705883 20.38279867 73.97969688 20.3868742 72.81817245 20.39107323 C66.85373365 20.4119314 60.88931785 20.42623547 54.92485046 20.43560791 C48.75862993 20.44668489 42.59276901 20.48110068 36.4266758 20.52077961 C31.68950214 20.54689435 26.95241494 20.55529508 22.21517563 20.55888939 C19.94175659 20.56376694 17.66834171 20.57541394 15.39499283 20.59392738 C12.21568816 20.61821372 9.03732451 20.617373 5.85795593 20.6104126 C4.91751938 20.62322266 3.97708282 20.63603271 3.00814819 20.64923096 C-1.23396379 20.61534164 -3.50509502 20.52122817 -7.17808533 18.23606873 C-10.19896191 14.9712694 -10.45058571 12.63178044 -10.41011047 8.17950439 C-9.95459206 5.00909623 -8.36398515 3.32120169 -6.11714172 1.14044189 C-3.82778679 -0.00423557 -2.54486551 0.0100771 0 0 Z " fill="#99E6FC" transform="translate(92.11714172363281,375.85955810546875)"/>
<path d="M0 0 C0.75128677 -0.0049649 1.50257355 -0.00992981 2.27662659 -0.01504517 C4.77467755 -0.02970908 7.27266492 -0.03647739 9.77075195 -0.04199219 C11.50372826 -0.0477422 13.23670453 -0.05349995 14.96968079 -0.05926514 C18.61064959 -0.06978854 22.25159624 -0.07562175 25.89257812 -0.07910156 C30.55209592 -0.08457512 35.21131982 -0.10857296 39.87074566 -0.13707352 C43.45417626 -0.15572821 47.03753668 -0.1609071 50.62101173 -0.16243744 C52.33816947 -0.16546044 54.05532607 -0.17347707 55.77243614 -0.18662262 C58.18054635 -0.20373504 60.5879469 -0.20178992 62.99609375 -0.1953125 C63.70230865 -0.20452728 64.40852356 -0.21374207 65.13613892 -0.22323608 C69.75445539 -0.1844488 72.91687362 0.69438485 76.8215332 3.16113281 C79.30539379 6.8869237 79.20195441 8.74824684 78.8215332 13.16113281 C77.51933017 16.24529789 76.66488552 17.71973126 73.6862793 19.27870178 C70.15133668 20.36757422 66.83537134 20.46406928 63.1730957 20.4675293 C62.04287994 20.48001457 62.04287994 20.48001457 60.88983154 20.49275208 C58.40867901 20.5167726 55.92778953 20.52561285 53.4465332 20.53222656 C51.71687747 20.54119654 49.98722252 20.55031845 48.25756836 20.55958557 C44.63629268 20.57605477 41.01510927 20.58377233 37.39379883 20.58666992 C32.75647513 20.59206216 28.12001901 20.62978512 23.48294067 20.67541409 C19.91240269 20.70516683 16.34207452 20.71239303 12.77142334 20.71339607 C11.06178804 20.71759929 9.35215217 20.73003778 7.64263916 20.75091362 C5.25109998 20.77780232 2.86158436 20.77301264 0.4699707 20.76049805 C-0.2335553 20.77533234 -0.9370813 20.79016663 -1.66192627 20.80545044 C-5.53588698 20.7477877 -7.06676067 20.25356432 -10.09399414 17.74867249 C-13.33641694 13.72372277 -13.70688768 11.35727152 -13.1784668 6.16113281 C-10.7409668 3.28613281 -10.7409668 3.28613281 -8.1784668 1.16113281 C-6.24982964 -0.76750435 -2.62948765 0.00410338 0 0 Z " fill="#FDC043" transform="translate(363.178466796875,145.8388671875)"/>
<path d="M0 0 C0.70427124 -0.0049649 1.40854248 -0.00992981 2.13415527 -0.01504517 C4.46924815 -0.02967629 6.80427307 -0.03647087 9.1394043 -0.04199219 C10.76124575 -0.04774353 12.38308718 -0.05350127 14.00492859 -0.05926514 C17.40872515 -0.06977829 20.81249807 -0.07561867 24.21630859 -0.07910156 C28.57435485 -0.08458236 32.93208805 -0.1086 37.2900362 -0.13707352 C40.64180915 -0.15571469 43.99350697 -0.16090631 47.34532738 -0.16243744 C48.95166927 -0.16546193 50.55800991 -0.17348364 52.16430092 -0.18662262 C54.41446209 -0.20371202 56.66386243 -0.20179603 58.9140625 -0.1953125 C60.19376419 -0.19895813 61.47346588 -0.20260376 62.79194641 -0.20635986 C66.42720292 0.19133585 68.26861972 0.95187962 71.15112305 3.16113281 C73.61041049 6.85006398 73.84417884 9.87754703 73.15112305 14.16113281 C71.02664035 17.60425995 70.00259663 18.87730828 66.15112305 20.16113281 C63.83218675 20.2712772 61.51020215 20.32021206 59.1887207 20.33813477 C58.48430344 20.34470596 57.77988617 20.35127716 57.05412292 20.35804749 C54.72447602 20.37774825 52.39489342 20.38943474 50.06518555 20.39941406 C48.87060793 20.40552735 48.87060793 20.40552735 47.65189743 20.41176414 C43.43810028 20.43260938 39.22433557 20.44691876 35.01049805 20.45629883 C30.66023426 20.46737079 26.31048092 20.50178371 21.96039772 20.54147053 C18.61291557 20.56761953 15.2655555 20.57598902 11.91798019 20.57958031 C10.31441163 20.58444935 8.71084863 20.59607249 7.10737991 20.6146183 C4.86194628 20.63897853 2.61783989 20.63805145 0.37231445 20.63110352 C-1.54271378 20.63990288 -1.54271378 20.63990288 -3.49642944 20.64888 C-7.42644647 20.07710229 -9.05911396 18.93034934 -11.84887695 16.16113281 C-13.44974322 12.95940027 -13.34804785 9.63536222 -12.84887695 6.16113281 C-9.13542913 0.34339789 -6.66088394 0.03560636 0 0 Z " fill="#FF9500" transform="translate(378.848876953125,277.8388671875)"/>
<path d="M0 0 C1.06490662 -0.01606293 2.12981323 -0.03212585 3.22698975 -0.04867554 C8.1116079 -0.09297787 12.99608737 -0.1342028 17.88085938 -0.15722656 C20.45907622 -0.17378273 23.03724723 -0.20106783 25.61523438 -0.23925781 C29.32478754 -0.29396397 33.03326205 -0.3158937 36.74316406 -0.33056641 C37.89540466 -0.35323578 39.04764526 -0.37590515 40.23480225 -0.39926147 C49.14444464 -0.3756954 49.14444464 -0.3756954 52.21289062 2.66308594 C52.80553711 3.49791504 53.39818359 4.33274414 54.00878906 5.19287109 C54.50378906 5.68787109 54.50378906 5.68787109 55.00878906 6.19287109 C55.39266253 11.18322613 55.09592149 14.19103276 52.00878906 18.19287109 C48.70350449 20.39639414 47.64088159 20.4555723 43.79052734 20.49926758 C42.72577179 20.51525497 41.66101624 20.53124237 40.56399536 20.54771423 C39.41398041 20.55307693 38.26396545 20.55843964 37.07910156 20.56396484 C35.30537674 20.57750755 35.30537674 20.57750755 33.49581909 20.59132385 C30.99251849 20.60584181 28.48917982 20.61471691 25.98583984 20.6184082 C22.1555996 20.63030336 18.32697036 20.67947683 14.49707031 20.72998047 C12.0660886 20.73944449 9.63509698 20.74667962 7.20410156 20.75146484 C6.05813507 20.77099716 4.91216858 20.79052948 3.73147583 20.81065369 C-5.12235194 20.76041265 -5.12235194 20.76041265 -8.19091797 17.78295898 C-11.05290476 13.66540842 -11.50695219 11.26432678 -10.99121094 6.19287109 C-8.55371094 3.31787109 -8.55371094 3.31787109 -5.99121094 1.19287109 C-4.32222956 -0.47611029 -2.29391646 0.03131702 0 0 Z " fill="#FF3980" transform="translate(386.9912109375,357.80712890625)"/>
<path d="M0 0 C1.56248726 -0.01925285 1.56248726 -0.01925285 3.15653992 -0.03889465 C4.29186661 -0.04628159 5.4271933 -0.05366852 6.59692383 -0.0612793 C7.75766922 -0.06935104 8.91841461 -0.07742279 10.11433411 -0.08573914 C12.57832333 -0.09960216 15.04233194 -0.11031433 17.50634766 -0.11816406 C21.27063658 -0.13534597 25.0340406 -0.1792102 28.7980957 -0.22338867 C31.18936527 -0.23351773 33.58064232 -0.24203317 35.97192383 -0.2487793 C37.09712936 -0.26628738 38.2223349 -0.28379547 39.38163757 -0.30183411 C45.57911844 -0.2846875 49.44842201 -0.07543516 54.11645508 4.17700195 C55.64860396 7.24129971 55.34584056 9.79356615 55.11645508 13.17700195 C53.41611899 17.00275815 51.96872581 18.64446246 48.11645508 20.17700195 C45.65699768 20.45115662 45.65699768 20.45115662 42.87646484 20.48339844 C41.30947594 20.50737953 41.30947594 20.50737953 39.71083069 20.53184509 C38.02636086 20.53988914 38.02636086 20.53988914 36.30786133 20.5480957 C35.14898911 20.55712418 33.99011688 20.56615265 32.79612732 20.57545471 C30.34588201 20.58995857 27.89559795 20.59884428 25.4453125 20.60253906 C21.69635934 20.61444667 17.94904583 20.66364411 14.20043945 20.71411133 C11.81958811 20.72357421 9.43872666 20.73080989 7.05786133 20.7355957 C5.93690567 20.75512802 4.81595001 20.77466034 3.661026 20.79478455 C-4.12704718 20.74961059 -4.12704718 20.74961059 -8.06738281 17.76708984 C-10.95110776 13.65451584 -11.39996039 11.25508735 -10.88354492 6.17700195 C-8.44604492 3.30200195 -8.44604492 3.30200195 -5.88354492 1.17700195 C-4.22947093 -0.47707204 -2.27715451 0.02433376 0 0 Z " fill="#FD3980" transform="translate(360.883544921875,185.822998046875)"/>
<path d="M0 0 C1.03125 0.00322266 2.0625 0.00644531 3.125 0.00976562 C4.74535156 0.02233398 4.74535156 0.02233398 6.3984375 0.03515625 C8.03039062 0.04192383 8.03039062 0.04192383 9.6953125 0.04882812 C12.38807539 0.06063849 15.08072938 0.07710847 17.7734375 0.09765625 C16.7834375 0.75765625 15.7934375 1.41765625 14.7734375 2.09765625 C12.33228971 3.81822094 10.95570231 5.08816107 10.41387939 8.08911133 C10.27589901 10.652919 10.2718401 13.18666258 10.3125 15.75390625 C10.31341644 16.6931897 10.31433289 17.63247314 10.3152771 18.60021973 C10.32131276 20.58395447 10.33705771 22.56768012 10.36181641 24.55126953 C10.39830465 27.58660489 10.40283581 30.6207183 10.40234375 33.65625 C10.41217597 35.58464596 10.42383342 37.51303365 10.4375 39.44140625 C10.43972565 40.3487854 10.44195129 41.25616455 10.44424438 42.19104004 C10.46338394 43.4625592 10.46338394 43.4625592 10.48291016 44.75976562 C10.49053375 45.50270874 10.49815735 46.24565186 10.50601196 47.0111084 C10.81736519 49.44039551 11.46364391 51.03220848 12.7734375 53.09765625 C15.31113753 54.38020269 15.31113753 54.38020269 17.7734375 55.09765625 C17.7734375 55.42765625 17.7734375 55.75765625 17.7734375 56.09765625 C14.04453495 56.21414245 10.31610236 56.28500201 6.5859375 56.34765625 C5.00329102 56.39792969 5.00329102 56.39792969 3.38867188 56.44921875 C-4.46946663 56.54837507 -4.46946663 56.54837507 -8.40234375 54.20703125 C-10.93628536 51.2769917 -11.35470934 49.69322382 -11.40356445 45.91088867 C-11.41639969 45.04626511 -11.42923492 44.18164154 -11.44245911 43.29081726 C-11.44984604 42.35437881 -11.45723297 41.41794037 -11.46484375 40.453125 C-11.4729155 39.49118729 -11.48098724 38.52924957 -11.48930359 37.53816223 C-11.5031486 35.49966232 -11.51386888 33.46113919 -11.52172852 31.42260742 C-11.53893639 28.30798289 -11.58281827 25.19442107 -11.62695312 22.08007812 C-11.63708041 20.10026823 -11.6455964 18.1204493 -11.65234375 16.140625 C-11.66985184 15.21025925 -11.68735992 14.27989349 -11.70539856 13.32133484 C-11.69110413 9.05054902 -11.62042946 6.7325259 -9.32495117 3.0324707 C-6.09480556 0.05412236 -4.30107942 -0.0236323 0 0 Z " fill="#FD3980" transform="translate(344.2265625,339.90234375)"/>
<path d="M0 0 C0.9583374 0.00523682 1.9166748 0.01047363 2.90405273 0.01586914 C4.45576172 0.02070313 4.45576172 0.02070313 6.03881836 0.02563477 C7.12743164 0.03401367 8.21604492 0.04239258 9.33764648 0.05102539 C10.97636719 0.05779297 10.97636719 0.05779297 12.64819336 0.06469727 C15.35723144 0.07652713 18.06616248 0.09300996 20.77514648 0.11352539 C19.78514648 0.77352539 18.79514648 1.43352539 17.77514648 2.11352539 C15.3339987 3.83409008 13.95741129 5.10403021 13.41558838 8.10498047 C13.27760799 10.66878814 13.27354909 13.20253172 13.31420898 15.76977539 C13.31512543 16.70905884 13.31604187 17.64834229 13.31698608 18.61608887 C13.32302175 20.59982361 13.3387667 22.58354926 13.36352539 24.56713867 C13.40001363 27.60247403 13.4045448 30.63658744 13.40405273 33.67211914 C13.41388495 35.6005151 13.42554241 37.52890279 13.43920898 39.45727539 C13.44143463 40.36465454 13.44366028 41.27203369 13.44595337 42.20690918 C13.46509293 43.47842834 13.46509293 43.47842834 13.48461914 44.77563477 C13.49224274 45.51857788 13.49986633 46.261521 13.50772095 47.02697754 C14.01549777 50.98883041 15.87583442 53.47778715 18.77514648 56.11352539 C15.37976796 56.25927866 11.98519746 56.34774081 8.58764648 56.42602539 C7.62793945 56.46791992 6.66823242 56.50981445 5.67944336 56.55297852 C-1.47298017 56.67672287 -1.47298017 56.67672287 -5.33813477 53.78149414 C-7.69818869 50.44419222 -8.34689435 47.98644985 -8.41772461 43.99682617 C-8.43378754 43.17231964 -8.44985046 42.34781311 -8.46640015 41.49832153 C-8.5109878 37.7380674 -8.55189618 33.97798596 -8.57495117 30.2175293 C-8.5915238 28.23498812 -8.618831 26.25250701 -8.65698242 24.27026367 C-8.71176399 21.40780741 -8.73362457 18.5467478 -8.74829102 15.68383789 C-8.77096039 14.80035675 -8.79362976 13.91687561 -8.81698608 13.00662231 C-8.80142762 8.47119299 -8.71409718 6.71475644 -5.75463867 3.07788086 C-4.91980957 2.42964355 -4.08498047 1.78140625 -3.22485352 1.11352539 C-2.22485352 0.11352539 -2.22485352 0.11352539 0 0 Z " fill="#FDB50A" transform="translate(341.224853515625,259.886474609375)"/>
<path d="M0 0 C6.88672806 -0.07611202 13.77334749 -0.12862596 20.66040039 -0.16479492 C23.00288954 -0.17987428 25.3453505 -0.20034078 27.68774414 -0.22631836 C31.05622317 -0.26273821 34.42432864 -0.27973513 37.79296875 -0.29296875 C38.83897751 -0.30845261 39.88498627 -0.32393646 40.96269226 -0.33988953 C50.14669039 -0.34201164 50.14669039 -0.34201164 54 3 C56.45928744 6.68893116 56.69305579 9.71641421 56 14 C53.8755173 17.44312714 52.85147359 18.71617547 49 20 C47.38904142 20.08722452 45.77468984 20.11767272 44.16137695 20.11352539 C42.69019157 20.11341209 42.69019157 20.11341209 41.18928528 20.11329651 C40.13295395 20.10813522 39.07662262 20.10297394 37.98828125 20.09765625 C36.36323921 20.09553383 36.36323921 20.09553383 34.70536804 20.09336853 C31.24105075 20.08776559 27.7767978 20.07521258 24.3125 20.0625 C21.96549572 20.05748538 19.61849044 20.05292241 17.27148438 20.04882812 C11.51430092 20.03779521 5.75715506 20.0210542 0 20 C1.2065625 19.1028125 1.2065625 19.1028125 2.4375 18.1875 C5.72250238 15.38322968 5.92605917 13.81334912 6.3125 9.5625 C6.33202211 5.96868004 6.33202211 5.96868004 4.125 3.6875 C3.42375 3.130625 2.7225 2.57375 2 2 C1.34 1.34 0.68 0.68 0 0 Z " fill="#314DC9" transform="translate(409,186)"/>
<path d="M0 0 C1.71219727 -0.0309375 1.71219727 -0.0309375 3.45898438 -0.0625 C4.56177734 -0.06765625 5.66457031 -0.0728125 6.80078125 -0.078125 C7.80923096 -0.0874707 8.81768066 -0.09681641 9.85668945 -0.10644531 C13.9770499 0.41237541 16.59839835 2.16089835 19.5 5.0625 C21.15040867 8.1027265 21.23478027 9.82949832 20.6875 13.25 C18.61314959 16.67545988 16.56973414 18.95592195 12.6875 20.25 C8.56721263 20.53531121 4.44155799 20.5276262 0.3125 20.5625 C-0.82445313 20.59150391 -1.96140625 20.62050781 -3.1328125 20.65039062 C-11.52160142 20.7143896 -11.52160142 20.7143896 -15.5390625 18.35546875 C-18.3386775 15.03169675 -18.64513786 12.65266458 -18.60546875 8.2890625 C-18.14995033 5.11865433 -16.55934343 3.4307598 -14.3125 1.25 C-10.11338549 -0.84955726 -4.61356096 0.02063079 0 0 Z " fill="#98E6FC" transform="translate(100.3125,115.75)"/>
<path d="M0 0 C3.22899426 -0.0875127 6.45768116 -0.14056146 9.6875 -0.1875 C11.05551758 -0.22520508 11.05551758 -0.22520508 12.45117188 -0.26367188 C21.03230051 -0.35728419 21.03230051 -0.35728419 25 3 C27.45928744 6.68893116 27.69305579 9.71641421 27 14 C24.8755173 17.44312714 23.85147359 18.71617547 20 20 C18.29983156 20.08178114 16.59663703 20.10749501 14.89453125 20.09765625 C13.91162109 20.09443359 12.92871094 20.09121094 11.91601562 20.08789062 C10.89185547 20.07951172 9.86769531 20.07113281 8.8125 20.0625 C7.77673828 20.05798828 6.74097656 20.05347656 5.67382812 20.04882812 C3.11582734 20.0370401 0.55794267 20.02058515 -2 20 C-1.360625 19.21625 -0.72125 18.4325 -0.0625 17.625 C3.1456434 13.5419084 3.35927721 11.20951954 3 6 C1.60042803 3.71515694 1.60042803 3.71515694 0 2 C0 1.34 0 0.68 0 0 Z " fill="#314DC9" transform="translate(438,146)"/>
</svg>
