<?xml version="1.0" encoding="UTF-8"?>
<svg version="1.1" xmlns="http://www.w3.org/2000/svg" width="512" height="512">
<path d="M0 0 C1.01790619 0.00215515 2.03581238 0.0043103 3.08456421 0.00653076 C17.69363523 0.05620146 32.02575853 0.30709809 46.375 3.3125 C47.34985352 3.51117676 48.32470703 3.70985352 49.32910156 3.91455078 C97.7109774 14.03517194 141.69928269 35.9516877 177.375 70.3125 C178.3640332 71.26068604 178.3640332 71.26068604 179.37304688 72.22802734 C188.86130305 81.37247479 197.6012044 90.66984009 205.375 101.3125 C206.23306152 102.46355017 207.09113451 103.61459177 207.94921875 104.765625 C213.98736829 112.95680614 219.34595521 121.47054105 224.375 130.3125 C224.73948242 130.94430176 225.10396484 131.57610352 225.47949219 132.22705078 C247.08534998 169.97532572 256.85198095 212.74189997 256.6875 255.9375 C256.68534485 256.95540619 256.6831897 257.97331238 256.68096924 259.02206421 C256.63129854 273.63113523 256.38040191 287.96325853 253.375 302.3125 C253.07698486 303.77478027 253.07698486 303.77478027 252.77294922 305.26660156 C242.65232806 353.6484774 220.7358123 397.63678269 186.375 433.3125 C185.74287598 433.97185547 185.11075195 434.63121094 184.45947266 435.31054688 C175.31502521 444.79880305 166.01765991 453.5387044 155.375 461.3125 C154.22394983 462.17056152 153.07290823 463.02863451 151.921875 463.88671875 C143.73224019 469.92427396 135.22961724 475.30707302 126.375 480.3125 C125.66778809 480.7146875 124.96057617 481.116875 124.23193359 481.53125 C101.09654164 494.5566741 75.92537591 503.30551461 49.9375 508.625 C49.21860596 508.77235596 48.49971191 508.91971191 47.7590332 509.0715332 C33.08339502 511.86090125 18.55831162 512.66142619 3.64770508 512.62817383 C0.70811513 512.6250221 -2.2304558 512.64854926 -5.16992188 512.67382812 C-18.54306192 512.71848737 -31.43916711 511.51301542 -44.625 509.3125 C-46.33055054 509.03031616 -46.33055054 509.03031616 -48.07055664 508.74243164 C-91.33802759 500.97044532 -132.38793216 480.98345309 -165.625 452.3125 C-166.37007813 451.67828125 -167.11515625 451.0440625 -167.8828125 450.390625 C-181.38779833 438.57948485 -194.05918743 425.82889772 -204.625 411.3125 C-205.48149066 410.16255169 -206.33826433 409.01281411 -207.1953125 407.86328125 C-213.23534209 399.67315742 -218.61867614 391.16870382 -223.625 382.3125 C-224.0271875 381.60528809 -224.429375 380.89807617 -224.84375 380.16943359 C-237.8691741 357.03404164 -246.61801461 331.86287591 -251.9375 305.875 C-252.08485596 305.15610596 -252.23221191 304.43721191 -252.3840332 303.6965332 C-255.35789088 288.05024391 -255.99800362 272.57681954 -255.9375 256.6875 C-255.93534485 255.66959381 -255.9331897 254.65168762 -255.93096924 253.60293579 C-255.88129854 238.99386477 -255.63040191 224.66174147 -252.625 210.3125 C-252.42632324 209.33764648 -252.22764648 208.36279297 -252.02294922 207.35839844 C-241.90232806 158.9765226 -219.9858123 114.98821731 -185.625 79.3125 C-184.99287598 78.65314453 -184.36075195 77.99378906 -183.70947266 77.31445312 C-174.56502521 67.82619695 -165.26765991 59.0862956 -154.625 51.3125 C-153.47394983 50.45443848 -152.32290823 49.59636549 -151.171875 48.73828125 C-142.98224019 42.70072604 -134.47961724 37.31792698 -125.625 32.3125 C-124.91778809 31.9103125 -124.21057617 31.508125 -123.48193359 31.09375 C-100.34654164 18.0683259 -75.17537591 9.31948539 -49.1875 4 C-48.46860596 3.85264404 -47.74971191 3.70528809 -47.0090332 3.5534668 C-31.36274391 0.57960912 -15.88931954 -0.06050362 0 0 Z " fill="#8D60F0" transform="translate(255.625,-0.3125)"/>
<path d="M0 0 C0.67326816 -0.00623996 1.34653632 -0.01247993 2.04020655 -0.01890898 C4.28348379 -0.03479175 6.52566722 -0.02225437 8.76895142 -0.00964355 C10.38245779 -0.01506692 11.99595922 -0.02219078 13.60945129 -0.03088379 C17.98358442 -0.04909764 22.35733955 -0.04205693 26.73147917 -0.02936745 C31.31483177 -0.01922623 35.89815244 -0.02863657 40.48150635 -0.03491211 C48.18008215 -0.04218672 55.8785044 -0.03260726 63.57705688 -0.0135498 C72.46693096 0.00820314 81.35643784 0.00117834 90.24630296 -0.02085543 C97.88728194 -0.03903322 105.52815064 -0.04155567 113.16914427 -0.03110075 C117.72898791 -0.02487689 122.28865923 -0.0239993 126.84849167 -0.0372467 C131.13814452 -0.04883872 135.42732629 -0.04071866 139.71692848 -0.01766968 C141.28742123 -0.01239975 142.85795392 -0.01386688 144.42843056 -0.02272034 C160.77201795 -0.10633014 160.77201795 -0.10633014 166.06826782 4.50793457 C170.76085535 10.28067475 170.62142284 15.6259579 170.52236938 22.85925293 C170.52295349 23.98193573 170.5235376 25.10461853 170.5241394 26.26132202 C170.52136176 29.9571264 170.49028312 33.65211552 170.45889282 37.34777832 C170.45142934 39.91609761 170.44573692 42.48442261 170.44174194 45.05274963 C170.4280511 51.1123419 170.39655415 57.17159975 170.35634398 63.23106629 C170.31154254 70.13311174 170.28961829 77.03517151 170.26956224 83.93732631 C170.22781862 98.12768479 170.15751908 112.31779933 170.06826782 126.50793457 C171.4830542 126.47651367 171.4830542 126.47651367 172.92642212 126.44445801 C176.43954307 126.37612029 179.95195367 126.3260571 183.46548462 126.28820801 C184.98350192 126.26814254 186.50144241 126.24088323 188.01919556 126.20617676 C190.20631904 126.15743064 192.39241734 126.13491652 194.57998657 126.11730957 C195.89442749 126.0963623 197.20886841 126.07541504 198.56314087 126.05383301 C202.66177002 126.58482487 204.21778348 127.56678967 207.06826782 130.50793457 C209.23564742 133.90657641 209.32356425 136.69303113 209.33569336 140.68112183 C209.34848831 142.58216927 209.34848831 142.58216927 209.36154175 144.5216217 C209.36084274 145.92379773 209.35991969 147.32597366 209.35879517 148.72814941 C209.36478035 150.20667358 209.37158587 151.68519462 209.37915039 153.16371155 C209.39681864 157.17822904 209.40150611 161.19266127 209.40278196 165.20721388 C209.40420365 167.71591675 209.40847356 170.22459795 209.4137764 172.73329544 C209.43227935 181.48696519 209.44044667 190.24057403 209.43887329 198.9942627 C209.43767179 207.15135192 209.45877506 215.30817659 209.49036062 223.46519887 C209.51652022 230.47084814 209.52724072 237.47641098 209.52596247 244.48210871 C209.52545275 248.66524405 209.53114164 252.84814428 209.55231857 257.03123093 C209.57169581 260.9662497 209.57182927 264.90080897 209.55728531 268.83584404 C209.55519545 270.27818537 209.55990878 271.72055541 209.57200623 273.16284752 C209.58747702 275.13543344 209.57574341 277.10817627 209.56274414 279.08078003 C209.56383368 280.18357992 209.56492321 281.28637981 209.56604576 282.42259789 C208.80575363 287.13505502 206.48957061 290.30139891 202.88809204 293.3586731 C198.87507397 294.99423854 195.24634612 294.92669216 190.95108032 294.89611816 C190.04154602 294.90137512 189.13201172 294.90663208 188.19491577 294.91204834 C185.19419077 294.92523132 182.19399804 294.91651618 179.19326782 294.90637207 C177.10488788 294.90839329 175.01650863 294.91130513 172.9281311 294.91506958 C168.55355096 294.91949063 164.1791547 294.91306881 159.80459595 294.89904785 C154.19894777 294.88195622 148.59373051 294.89179856 142.98809814 294.90976524 C138.67638913 294.92060891 134.36478217 294.91715403 130.05307007 294.90938187 C127.98621571 294.90738148 125.91935206 294.90983347 123.85250854 294.91682053 C120.96324132 294.92444445 118.0746707 294.91281735 115.18545532 294.89611816 C114.3323175 294.90219086 113.47917969 294.90826355 112.60018921 294.91452026 C106.92754414 294.85382089 103.69808198 293.76206099 99.31826782 290.00793457 C96.75125345 286.92751732 96.95041308 283.78248031 96.97061157 279.96496582 C96.97383423 278.89182129 96.97705688 277.81867676 96.9803772 276.7130127 C96.9887561 275.59346191 96.99713501 274.47391113 97.00576782 273.32043457 C97.01027954 272.18928223 97.01479126 271.05812988 97.0194397 269.8927002 C97.03123284 267.0977253 97.04769132 264.30285637 97.06826782 261.50793457 C95.80594833 261.51459641 94.54362885 261.52125824 93.24305725 261.52812195 C81.33990352 261.58896879 69.43678139 261.63392447 57.53350735 261.66337109 C51.41408742 261.67901886 45.29479316 261.70024123 39.17544556 261.73425293 C33.2686089 261.76687757 27.36189304 261.78479427 21.45497322 261.7925663 C19.20275026 261.79810419 16.95053381 261.80891832 14.69836235 261.82512474 C11.54083912 261.84693988 8.38381342 261.84989973 5.22622681 261.84851074 C3.83331421 261.86468948 3.83331421 261.86468948 2.41226196 261.88119507 C-3.1410895 261.85480623 -7.02357304 261.16786762 -11.93173218 258.50793457 C-14.24423218 256.07043457 -14.24423218 256.07043457 -15.93173218 253.50793457 C-16.34423218 252.90980957 -16.75673218 252.31168457 -17.18173218 251.69543457 C-18.3501694 248.28749269 -18.05135438 245.09660059 -17.93173218 241.50793457 C-19.14860718 241.59043457 -20.36548218 241.67293457 -21.61923218 241.75793457 C-24.90780262 241.75793457 -25.87299155 241.54368973 -28.80673218 239.75793457 C-32.05104917 236.32277541 -32.9567045 234.88141254 -32.86923218 230.07043457 C-31.76517212 225.87500635 -30.19447649 224.28126723 -26.93173218 221.50793457 C-26.60173218 221.17793457 -26.27173218 220.84793457 -25.93173218 220.50793457 C-23.29173218 220.50793457 -20.65173218 220.50793457 -17.93173218 220.50793457 C-17.93173218 210.93793457 -17.93173218 201.36793457 -17.93173218 191.50793457 C-20.57173218 191.50793457 -23.21173218 191.50793457 -25.93173218 191.50793457 C-29.3306336 189.43903805 -31.82110228 187.3951392 -32.93173218 183.50793457 C-32.73916306 178.21228373 -31.62219807 175.31023276 -27.93173218 171.50793457 C-25.93173218 170.50793457 -25.93173218 170.50793457 -17.93173218 170.50793457 C-17.93173218 160.93793457 -17.93173218 151.36793457 -17.93173218 141.50793457 C-20.57173218 141.50793457 -23.21173218 141.50793457 -25.93173218 141.50793457 C-29.37484678 139.41212568 -31.67855398 137.38139447 -32.93173218 133.50793457 C-33.39145594 130.48689271 -33.53198597 128.46967949 -31.88095093 125.82434082 C-30.09083353 123.622338 -28.49205916 121.78809806 -25.93173218 120.50793457 C-23.29173218 120.50793457 -20.65173218 120.50793457 -17.93173218 120.50793457 C-17.93173218 110.93793457 -17.93173218 101.36793457 -17.93173218 91.50793457 C-20.57173218 91.50793457 -23.21173218 91.50793457 -25.93173218 91.50793457 C-29.37484678 89.41212568 -31.67855398 87.38139447 -32.93173218 83.50793457 C-33.48616814 80.38923231 -33.42019478 78.41428342 -31.90438843 75.60168457 C-29.24220906 72.00294902 -29.24220906 72.00294902 -26.93173218 70.50793457 C-22.47673218 70.01293457 -22.47673218 70.01293457 -17.93173218 69.50793457 C-17.93173218 60.26793457 -17.93173218 51.02793457 -17.93173218 41.50793457 C-20.57173218 41.50793457 -23.21173218 41.50793457 -25.93173218 41.50793457 C-29.33190208 39.43826594 -31.84985914 37.40267751 -32.93173218 33.50793457 C-32.99731673 29.44169234 -32.99916178 26.9331786 -30.54501343 23.65637207 C-27.30278235 20.58171698 -25.54356787 19.56620464 -20.99423218 19.13293457 C-19.98360718 19.25668457 -18.97298218 19.38043457 -17.93173218 19.50793457 C-17.90595093 18.92785645 -17.88016968 18.34777832 -17.85360718 17.75012207 C-17.45668464 12.28341617 -16.61738292 8.7912584 -12.93173218 4.50793457 C-8.49950309 1.01579573 -5.61900724 0.00705673 0 0 Z " fill="#FAF8FD" transform="translate(167.93173217773438,108.4920654296875)"/>
<path d="M0 0 C21.346875 -0.0825 42.69375 -0.165 64.6875 -0.25 C71.42889404 -0.28641602 78.17028809 -0.32283203 85.1159668 -0.36035156 C93.34533691 -0.37841797 93.34533691 -0.37841797 97.19734192 -0.3817749 C99.8890873 -0.38791959 102.58008368 -0.40049718 105.27168274 -0.42230225 C109.34752451 -0.45488351 113.42280771 -0.45562592 117.4987793 -0.45410156 C118.69867587 -0.468494 119.89857244 -0.48288643 121.13482952 -0.497715 C125.59907577 -0.4753214 129.09982479 -0.37327311 133.24584961 1.34594727 C136.08686423 5.64443995 135.65374935 9.8808577 135.56762695 14.91894531 C135.56872215 16.58768204 135.56872215 16.58768204 135.56983948 18.29013062 C135.56635404 21.96995679 135.52744477 25.64851974 135.48828125 29.328125 C135.4789566 31.87830921 135.47183885 34.42850237 135.46684265 36.97869873 C135.44969793 43.00661661 135.41028613 49.03399165 135.3600952 55.061692 C135.30418861 61.92495148 135.27671206 68.78823276 135.25161803 75.6516633 C135.19936918 89.76802679 135.11143531 103.88398855 135 118 C131.93404614 118.02725292 128.86809214 118.05448793 125.80213737 118.08163834 C123.20743463 118.10478299 120.61273476 118.12825112 118.0180378 118.15203476 C106.94823075 118.25283766 106.94823075 118.25283766 101.94378662 118.27648926 C98.31358786 118.29626805 94.68455982 118.33971809 91.0546875 118.390625 C89.85465088 118.39175293 88.65461426 118.39288086 87.41821289 118.39404297 C78.90624501 118.53099982 78.90624501 118.53099982 72 123 C69.03326123 126.93325864 69.03326123 126.93325864 69 137 C53.16 137.33 37.32 137.66 21 138 C21.495 139.98 21.495 139.98 22 142 C45.265 142.495 45.265 142.495 69 143 C69 149.27 69 155.54 69 162 C45.735 162.495 45.735 162.495 22 163 C21.67 164.32 21.34 165.64 21 167 C22.58476052 168.58476052 24.22892001 168.16427317 26.42797852 168.20532227 C27.36887833 168.22526749 28.30977814 168.24521271 29.27919006 168.26576233 C30.30209641 168.28247482 31.32500275 168.29918732 32.37890625 168.31640625 C33.42070541 168.33718735 34.46250458 168.35796844 35.53587341 168.37937927 C38.87801247 168.44499057 42.22023285 168.50381331 45.5625 168.5625 C47.82227418 168.60567422 50.08204001 168.64928814 52.34179688 168.69335938 C57.89444699 168.80068372 63.44717924 168.90191814 69 169 C69 175.27 69 181.54 69 188 C45.735 188.495 45.735 188.495 22 189 C22 190.32 22 191.64 22 193 C45.265 193.495 45.265 193.495 69 194 C69 200.27 69 206.54 69 213 C45.735 213.495 45.735 213.495 22 214 C21.67 215.32 21.34 216.64 21 218 C22.58476052 219.58476052 24.22892001 219.16427317 26.42797852 219.20532227 C27.36887833 219.22526749 28.30977814 219.24521271 29.27919006 219.26576233 C30.30209641 219.28247482 31.32500275 219.29918732 32.37890625 219.31640625 C33.42070541 219.33718735 34.46250458 219.35796844 35.53587341 219.37937927 C38.87801247 219.44499057 42.22023285 219.50381331 45.5625 219.5625 C47.82227418 219.60567422 50.08204001 219.64928814 52.34179688 219.69335938 C57.89444897 219.80151467 63.44715891 219.90050189 69 220 C69 228.91 69 237.82 69 247 C46.23 247 23.46 247 0 247 C0 165.49 0 83.98 0 0 Z " fill="#9B55F2" transform="translate(196,116)"/>
<path d="M0 0 C1.28657249 0.00371613 1.28657249 0.00371613 2.59913635 0.00750732 C3.50169159 0.00239639 4.40424683 -0.00271454 5.33415222 -0.00798035 C8.3282274 -0.02192083 11.32207353 -0.02091622 14.31617737 -0.01861572 C16.39121588 -0.02250024 18.46625361 -0.0268344 20.54129028 -0.03160095 C24.89507116 -0.03907278 29.24877096 -0.03876495 33.60255432 -0.0335083 C39.18940862 -0.02771281 44.7759315 -0.04464204 50.36273098 -0.06785297 C54.64947458 -0.08256553 58.93613792 -0.08346539 63.2229023 -0.08034325 C65.28304259 -0.08085772 67.34318723 -0.08611897 69.40330315 -0.09615517 C72.28130162 -0.1084541 75.15864876 -0.10176728 78.03663635 -0.09014893 C78.89232712 -0.09779266 79.74801788 -0.1054364 80.62963867 -0.11331177 C86.3662814 -0.06197064 86.3662814 -0.06197064 88.60156631 1.42793655 C90.4439664 4.09474801 90.257297 6.09811938 90.25680542 9.3240509 C90.26381973 10.58740768 90.27083405 11.85076447 90.27806091 13.15240479 C90.27063301 14.55511633 90.26290185 15.95782629 90.25489807 17.36053467 C90.25732562 18.83554847 90.26104459 20.31056063 90.26596069 21.78556824 C90.27537757 25.79374914 90.26593812 29.80168619 90.25262856 33.80984807 C90.24132698 37.99963123 90.24542052 42.18940215 90.24737549 46.37919617 C90.24825878 53.41468296 90.23717001 60.45007345 90.21876526 67.48553467 C90.19758887 75.6272748 90.19408928 83.76887391 90.20032722 91.91063601 C90.2060153 99.7344182 90.20038232 107.55815057 90.18915367 115.38192558 C90.18450114 118.71563065 90.18363664 122.04930533 90.18573952 125.38301277 C90.18761862 129.30560547 90.17954783 133.22805397 90.16367912 137.15061378 C90.15942492 138.59300897 90.15859331 140.03541875 90.16136932 141.47781754 C90.16457526 143.44097293 90.15431372 145.40413679 90.14328003 147.36726379 C90.14020072 149.0178811 90.14020072 149.0178811 90.13705921 150.70184422 C89.88258362 153.28216553 89.88258362 153.28216553 87.88258362 155.28216553 C84.91051368 155.48102677 82.0315933 155.55481194 79.05836487 155.54095459 C77.68749222 155.54621155 77.68749222 155.54621155 76.28892517 155.55157471 C73.25756817 155.56040202 70.22644314 155.55453933 67.19508362 155.54779053 C65.09522964 155.54913689 62.99537597 155.55107718 60.89552307 155.55358887 C56.49046364 155.55654149 52.08548521 155.55223804 47.68043518 155.54290771 C42.0240433 155.53151313 36.36784121 155.53807187 30.7114563 155.55005264 C26.37414613 155.55726751 22.03688121 155.55498503 17.6995697 155.54979706 C15.61348956 155.54845953 13.52740536 155.55011187 11.44132996 155.55475616 C8.52970948 155.55981526 5.61839961 155.55211985 2.70680237 155.54095459 C1.83816559 155.54500305 0.96952881 155.54905151 0.0745697 155.55322266 C-5.88888866 155.51069325 -5.88888866 155.51069325 -8.11741638 153.28216553 C-8.36909866 150.68343353 -8.36909866 150.68343353 -8.37138367 147.3225708 C-8.37984314 145.41697639 -8.37984314 145.41697639 -8.38847351 143.47288513 C-8.38458454 142.05709782 -8.38048818 140.64131107 -8.37620544 139.2255249 C-8.37891423 137.74080737 -8.38247453 136.25609119 -8.38682556 134.77137756 C-8.39596525 130.73220099 -8.39239884 126.69312625 -8.38606739 122.65394783 C-8.38101554 118.43345992 -8.38569657 114.21298092 -8.38883972 109.99249268 C-8.39248175 102.90397572 -8.38767407 95.81550039 -8.37815857 88.72698975 C-8.36727356 80.52336017 -8.37079897 72.31983 -8.38181138 64.11620283 C-8.39087752 57.0817859 -8.39217284 50.04739896 -8.38693404 43.01297808 C-8.38381062 38.80766196 -8.38341515 34.60239261 -8.39000702 30.39707947 C-8.39577009 26.44414284 -8.39180276 22.49133478 -8.38021851 18.53841209 C-8.37756633 17.08472597 -8.37834646 15.63102908 -8.38274384 14.17734718 C-8.38817856 12.19882205 -8.38016685 10.22027336 -8.37138367 8.24176025 C-8.37062962 7.13267555 -8.36987556 6.02359085 -8.36909866 4.88089752 C-7.85030793 -0.47584858 -4.6137297 0.041857 0 0 Z " fill="#747AED" transform="translate(280.11741638183594,240.71783447265625)"/>
<path d="M0 0 C9.24 0 18.48 0 28 0 C28 81.51 28 163.02 28 247 C18.76 247 9.52 247 0 247 C-5 242 -5 242 -5.48828125 239.76171875 C-5.24414062 236.88085938 -5.24414062 236.88085938 -5 234 C-4.31292969 233.89042969 -3.62585938 233.78085937 -2.91796875 233.66796875 C-2.01691406 233.50941406 -1.11585938 233.35085938 -0.1875 233.1875 C0.70582031 233.03667969 1.59914062 232.88585937 2.51953125 232.73046875 C5.26580351 231.92172401 6.3283171 231.30120905 8 229 C9.33193637 224.7409939 9.51244935 221.14691046 7.6875 217.0625 C4.20528685 214.07593773 4.20528685 214.07593773 -5 213 C-5 203.43 -5 193.86 -5 184 C-0.05 183.01 -0.05 183.01 5 182 C8.50521614 178.49478386 8.7707243 176.95606943 9.109375 172.22265625 C9.12494572 169.80304401 9.12494572 169.80304401 7.6875 167.0625 C4.20528685 164.07593773 4.20528685 164.07593773 -5 163 C-5 153.43 -5 143.86 -5 134 C-0.05 133.01 -0.05 133.01 5 132 C8.50521614 128.49478386 8.7707243 126.95606943 9.109375 122.22265625 C9.12494572 119.80304401 9.12494572 119.80304401 7.6875 117.0625 C4.20528685 114.07593773 4.20528685 114.07593773 -5 113 C-5 103.43 -5 93.86 -5 84 C-0.05 83.01 -0.05 83.01 5 82 C8.06537667 78.93462333 8.4164482 78.54315625 8.8125 74.5625 C8.90144531 73.80066406 8.99039063 73.03882813 9.08203125 72.25390625 C8.9873376 69.65208541 8.36717417 68.19707287 7 66 C3.2288098 63.24413024 -0.02518696 63.62185163 -5 63 C-5 53.43 -5 43.86 -5 34 C-2.03 33.34 0.94 32.68 4 32 C7.56438781 29.14848975 8.86032562 27.23379033 9.375 22.6875 C9.28677364 18.93742689 9.28677364 18.93742689 7.0625 16.125 C3.07801733 13.36025692 -0.24095282 13.11405124 -5 13 C-5.48828125 7.23828125 -5.48828125 7.23828125 -5 5 C-3.35 3.35 -1.7 1.7 0 0 Z " fill="#965DF1" transform="translate(162,116)"/>
<path d="M0 0 C8.47279164 5.64294621 15.01710634 13.77587846 17.75 23.625 C19.69908628 35.90424357 17.92059526 46.37184257 10.75 56.625 C4.92115472 64.01322271 -2.78344676 69.93871803 -12.25 71.625 C-25.66368916 72.47555617 -35.53595343 71.40598048 -46.21484375 62.53515625 C-54.8584051 54.42248542 -59.20783049 43.85556123 -59.625 32.0625 C-59.52686048 22.08907121 -55.0854351 12.81774193 -48.25 5.625 C-34.56165939 -7.19465745 -16.27686849 -9.55512465 0 0 Z " fill="#AD48F4" transform="translate(284.25,148.375)"/>
<path d="M0 0 C8.47279164 5.64294621 15.01710634 13.77587846 17.75 23.625 C19.69908628 35.90424357 17.92059526 46.37184257 10.75 56.625 C4.92115472 64.01322271 -2.78344676 69.93871803 -12.25 71.625 C-25.66368916 72.47555617 -35.53595343 71.40598048 -46.21484375 62.53515625 C-54.8584051 54.42248542 -59.20783049 43.85556123 -59.625 32.0625 C-59.52686048 22.08907121 -55.0854351 12.81774193 -48.25 5.625 C-34.56165939 -7.19465745 -16.27686849 -9.55512465 0 0 Z M-46.25 13.625 C-51.87074614 20.2608135 -52.77255579 27.50688901 -52.62109375 35.953125 C-51.71207168 44.94765918 -47.96494631 51.96725203 -41.30078125 58.00390625 C-32.65045444 64.84178363 -24.04581067 65.44000102 -13.25 64.625 C-5.53472861 62.94730248 0.7016336 58.63922742 5.75 52.625 C11.18190893 43.13536436 13.44375821 34.22786212 10.625 23.5 C7.51971335 14.28524239 1.23083144 8.35852246 -7.046875 3.58984375 C-21.84507559 -3.2084749 -35.91764361 2.78998843 -46.25 13.625 Z " fill="#FBF6FD" transform="translate(284.25,148.375)"/>
<path d="M0 0 C23.1 0 46.2 0 70 0 C70 6.6 70 13.2 70 20 C46.9 20 23.8 20 0 20 C0 13.4 0 6.8 0 0 Z " fill="#8B68F0" transform="translate(286,258)"/>
<path d="M0 0 C0.74664413 -0.00525696 1.49328827 -0.01051392 2.26255798 -0.01593018 C4.73189176 -0.02913966 7.20058148 -0.02038908 9.66992188 -0.01025391 C11.38480758 -0.01227438 13.09969244 -0.01518559 14.8145752 -0.01895142 C18.4091815 -0.02337604 22.00356421 -0.01693934 25.59814453 -0.00292969 C30.20862881 0.01416238 34.81858921 0.00432193 39.42905426 -0.01364708 C42.97035681 -0.02448124 46.51153491 -0.02104029 50.05284119 -0.0132637 C51.75292523 -0.01126067 53.45302053 -0.01372458 55.15309143 -0.02070236 C57.52814723 -0.02831093 59.90235148 -0.0167218 62.27734375 0 C63.33410561 -0.00910904 63.33410561 -0.00910904 64.41221619 -0.0184021 C67.26913008 0.01891269 69.19113117 0.07755196 71.57548523 1.73249817 C73.25245373 4.34401733 73.00994326 6.66784225 73.00195312 9.73583984 C73.00098633 11.60272461 73.00098633 11.60272461 73 13.50732422 C72.98388672 14.80863281 72.96777344 16.10994141 72.95117188 17.45068359 C72.95439453 18.75585938 72.95761719 20.06103516 72.9609375 21.40576172 C72.90553514 31.12132032 72.90553514 31.12132032 70.63867188 33.38818359 C68.15563148 33.59164707 65.78363037 33.67142114 63.29907227 33.6628418 C62.16469475 33.67050819 62.16469475 33.67050819 61.00740051 33.67832947 C58.50029652 33.69226241 55.9934663 33.69126592 53.48632812 33.68896484 C51.74759315 33.69284983 50.00885913 33.69718409 48.27012634 33.70195007 C44.62251715 33.70942031 40.97500474 33.70911528 37.32739258 33.70385742 C32.64852565 33.69806259 27.97005455 33.71499008 23.29125309 33.7382021 C19.69935278 33.75292057 16.10754821 33.75381371 12.51562309 33.75069237 C10.79041192 33.75120656 9.06519553 33.75646263 7.3400135 33.76650429 C4.92896803 33.77881473 2.51869868 33.77210996 0.10766602 33.76049805 C-0.96547852 33.77196365 -0.96547852 33.77196365 -2.06030273 33.78366089 C-4.94495103 33.75288877 -6.89597988 33.71159564 -9.30387878 32.03813171 C-10.93616853 29.49125472 -10.75051864 27.29045639 -10.75976562 24.29443359 C-10.76363281 23.09947266 -10.7675 21.90451172 -10.77148438 20.67333984 C-10.75988281 19.42423828 -10.74828125 18.17513672 -10.73632812 16.88818359 C-10.74792969 15.63908203 -10.75953125 14.38998047 -10.77148438 13.10302734 C-10.76761719 11.90806641 -10.76375 10.71310547 -10.75976562 9.48193359 C-10.75638184 8.38558594 -10.75299805 7.28923828 -10.74951172 6.15966797 C-10.36132812 3.38818359 -10.36132812 3.38818359 -9.29714966 1.73922729 C-6.37726283 -0.29861278 -3.43423004 -0.02960226 0 0 Z M-3.36132812 7.38818359 C-3.36132812 13.98818359 -3.36132812 20.58818359 -3.36132812 27.38818359 C19.73867188 27.38818359 42.83867187 27.38818359 66.63867188 27.38818359 C66.63867188 20.78818359 66.63867188 14.18818359 66.63867188 7.38818359 C43.53867187 7.38818359 20.43867188 7.38818359 -3.36132812 7.38818359 Z " fill="#FBFAFD" transform="translate(289.361328125,250.61181640625)"/>
<path d="M0 0 C0.72445313 -0.00322266 1.44890625 -0.00644531 2.1953125 -0.00976562 C5.9807029 0.02864701 7.78295894 0.16780596 11 2.3125 C11.3742218 4.55163574 11.3742218 4.55163574 11.37231445 7.37304688 C11.38165764 8.95478699 11.38165764 8.95478699 11.39118958 10.56848145 C11.38197983 11.71119507 11.37277008 12.85390869 11.36328125 14.03125 C11.36377975 15.20006714 11.36427826 16.36888428 11.36479187 17.57312012 C11.36244805 20.04795021 11.35270153 22.52278253 11.33618164 24.99755859 C11.31259768 28.79676514 11.31561753 32.59527018 11.32226562 36.39453125 C11.31668897 38.79427504 11.30957917 41.19401586 11.30078125 43.59375 C11.30214836 45.30782043 11.30214836 45.30782043 11.30354309 47.05651855 C11.29401108 48.11101196 11.28447906 49.16550537 11.2746582 50.25195312 C11.27005081 51.1830188 11.26544342 52.11408447 11.26069641 53.07336426 C11 55.3125 11 55.3125 9 57.3125 C6.02032424 57.75543542 3.00888134 57.63664428 0 57.625 C-0.83273437 57.64111328 -1.66546875 57.65722656 -2.5234375 57.67382812 C-3.71839844 57.67479492 -3.71839844 57.67479492 -4.9375 57.67578125 C-5.66839844 57.67876221 -6.39929688 57.68174316 -7.15234375 57.68481445 C-9 57.3125 -9 57.3125 -11 54.3125 C-11.26069641 52.0357666 -11.26069641 52.0357666 -11.2746582 49.33789062 C-11.28419022 48.32674194 -11.29372223 47.31559326 -11.30354309 46.27380371 C-11.30263168 45.18313599 -11.30172028 44.09246826 -11.30078125 42.96875 C-11.30506638 41.84811157 -11.3093515 40.72747314 -11.31376648 39.57287598 C-11.31951215 37.20239946 -11.32000831 34.8319053 -11.31567383 32.46142578 C-11.31251248 28.82684405 -11.33597586 25.19307488 -11.36132812 21.55859375 C-11.36360087 19.25781353 -11.36430473 16.95703111 -11.36328125 14.65625 C-11.372491 13.56558228 -11.38170074 12.47491455 -11.39118958 11.35119629 C-11.38496078 10.34004761 -11.37873199 9.32889893 -11.37231445 8.28710938 C-11.37294388 7.3968103 -11.3735733 6.50651123 -11.3742218 5.5892334 C-11 3.3125 -11 3.3125 -9.7071991 1.52429199 C-6.79668045 -0.54163178 -3.43165566 -0.07632686 0 0 Z " fill="#FDFDFD" transform="translate(351,328.6875)"/>
<path d="M0 0 C1.65 0.33 3.3 0.66 5 1 C5 2.65 5 4.3 5 6 C5.763125 6.2475 6.52625 6.495 7.3125 6.75 C10.37754038 8.17560018 11.46110282 9.00320024 13 12 C13.1875 15.75 13.1875 15.75 13 19 C11.35 19.33 9.7 19.66 8 20 C7.34 17.69 6.68 15.38 6 13 C3.66705225 12.95758277 1.33297433 12.95907063 -1 13 C-2.35618499 14.12534105 -2.35618499 14.12534105 -2.0625 17.0625 C-2.041875 18.031875 -2.02125 19.00125 -2 20 C-1.40832031 20.17015625 -0.81664062 20.3403125 -0.20703125 20.515625 C4.6157329 21.9947109 8.29855998 23.41422998 12 27 C13.85127843 30.70255686 13.4638553 34.95874013 13 39 C11.19413985 42.16025526 10.17077636 43.57721965 6.75 44.8125 C5.88375 44.9053125 5.88375 44.9053125 5 45 C5 46.65 5 48.3 5 50 C2.625 50.625 2.625 50.625 0 51 C-0.66 50.34 -1.32 49.68 -2 49 C-2 47.68 -2 46.36 -2 45 C-2.763125 44.79375 -3.52625 44.5875 -4.3125 44.375 C-7.90490699 42.53702433 -8.60967585 40.73192273 -10 37 C-10.1875 34.125 -10.1875 34.125 -10 32 C-8.35 31.67 -6.7 31.34 -5 31 C-4.525625 31.969375 -4.05125 32.93875 -3.5625 33.9375 C-2.29806053 36.80477437 -2.29806053 36.80477437 -1 38 C1.45809998 38.2500773 1.45809998 38.2500773 4 38 C4.66 37.34 5.32 36.68 6 36 C5.67958603 33.39719432 5.67958603 33.39719432 5 31 C4.40832031 30.84144531 3.81664062 30.68289062 3.20703125 30.51953125 C-2.09525186 28.95393053 -5.38991362 27.39979278 -9 23 C-10.73125121 19.53749757 -10.47815224 15.78591771 -10 12 C-8.22720098 9.02423021 -7.00727435 7.47401146 -3.875 6 C-1.21854193 4.58322236 -0.87944941 2.78492312 0 0 Z " fill="#FBF8FD" transform="translate(262,156)"/>
<path d="M0 0 C1.96453125 0.00193359 1.96453125 0.00193359 3.96875 0.00390625 C7.5 0.4375 7.5 0.4375 9.94140625 1.43359375 C12.42711541 4.62950552 12.03763736 8.0676754 11.9375 11.9375 C11.94458984 12.70964844 11.95167969 13.48179687 11.95898438 14.27734375 C11.89547885 19.91467993 11.89547885 19.91467993 10.20117188 22.15454102 C7.33352934 24.31720771 4.0084946 23.90893549 0.5625 23.875 C-0.51161133 23.9049707 -0.51161133 23.9049707 -1.60742188 23.93554688 C-4.93231125 23.93246542 -7.13995023 23.66445081 -9.97265625 21.87890625 C-12.10058381 18.47748751 -12.03139907 15.92518168 -12 11.9375 C-12.01546875 9.97296875 -12.01546875 9.97296875 -12.03125 7.96875 C-11.5 4.4375 -11.5 4.4375 -9.9375 1.99609375 C-6.53606764 -0.1788606 -4.00910673 -0.05918957 0 0 Z " fill="#F6F6FC" transform="translate(290.5,293.5625)"/>
<path d="M0 0 C0.78052734 0.00322266 1.56105469 0.00644531 2.36523438 0.00976562 C3.53022461 -0.0144043 3.53022461 -0.0144043 4.71875 -0.0390625 C10.43524901 -0.04398627 10.43524901 -0.04398627 12.64697266 1.60083008 C14.88235464 4.60534369 14.39826773 8.22463343 14.36523438 11.82226562 C14.39520508 12.98048828 14.39520508 12.98048828 14.42578125 14.16210938 C14.42295763 17.42057073 14.40830196 19.70163311 12.37304688 22.33007812 C8.95644874 23.71636555 6.04387159 23.71884121 2.36523438 23.69726562 C1.69298828 23.70886719 1.02074219 23.72046875 0.328125 23.73242188 C-4.56262676 23.70328135 -4.56262676 23.70328135 -6.76416016 22.05737305 C-8.3724715 19.92406422 -8.44642963 18.81132439 -8.43554688 16.16210938 C-8.43490234 15.36869141 -8.43425781 14.57527344 -8.43359375 13.7578125 C-8.41748047 12.93345703 -8.40136719 12.10910156 -8.38476562 11.25976562 C-8.38798828 10.43154297 -8.39121094 9.60332031 -8.39453125 8.75 C-8.33259669 1.83022068 -7.5519547 0.07167515 0 0 Z " fill="#F7F8FD" transform="translate(288.072265625,328.677734375)"/>
<path d="M0 0 C0.72445313 -0.01611328 1.44890625 -0.03222656 2.1953125 -0.04882812 C7.51208575 -0.0537329 7.51208575 -0.0537329 9.70336914 1.59106445 C11.96118982 4.58859667 11.47058089 8.20969088 11.4375 11.8125 C11.4674707 12.97072266 11.4674707 12.97072266 11.49804688 14.15234375 C11.49522325 17.41080511 11.48056759 19.69186749 9.4453125 22.3203125 C6.02871436 23.70659992 3.11613721 23.70907558 -0.5625 23.6875 C-1.23474609 23.69910156 -1.90699219 23.71070313 -2.59960938 23.72265625 C-7.49102831 23.69351175 -7.49102831 23.69351175 -9.68969727 22.04760742 C-11.29605448 19.92046363 -11.38610911 18.79619576 -11.3984375 16.15234375 C-11.40230469 15.35892578 -11.40617187 14.56550781 -11.41015625 13.74804688 C-11.39855469 12.92369141 -11.38695312 12.09933594 -11.375 11.25 C-11.38660156 10.42177734 -11.39820313 9.59355469 -11.41015625 8.74023438 C-11.40628906 7.94810547 -11.40242188 7.15597656 -11.3984375 6.33984375 C-11.39505371 5.61531006 -11.39166992 4.89077637 -11.38818359 4.14428711 C-10.2858787 -1.05734409 -4.15711284 -0.01849249 0 0 Z " fill="#F9FAFD" transform="translate(321,328.6875)"/>
<path d="M0 0 C1.08667969 -0.01740234 1.08667969 -0.01740234 2.1953125 -0.03515625 C7.49285038 -0.00583408 7.49285038 -0.00583408 9.70556641 1.65576172 C11.9594912 4.64937514 11.42903114 8.27892715 11.375 11.875 C11.38660156 12.64714844 11.39820313 13.41929687 11.41015625 14.21484375 C11.38075707 19.86928682 11.38075707 19.86928682 9.70556641 22.09423828 C6.82205668 24.25955348 3.45872434 23.80538882 0 23.75 C-1.08667969 23.76740234 -1.08667969 23.76740234 -2.1953125 23.78515625 C-7.49285038 23.75583408 -7.49285038 23.75583408 -9.70556641 22.09423828 C-11.9594912 19.10062486 -11.42903114 15.47107285 -11.375 11.875 C-11.38660156 11.10285156 -11.39820313 10.33070313 -11.41015625 9.53515625 C-11.38075707 3.88071318 -11.38075707 3.88071318 -9.70556641 1.65576172 C-6.82205668 -0.50955348 -3.45872434 -0.05538882 0 0 Z " fill="#F9F9FD" transform="translate(351,293.625)"/>
<path d="M0 0 C1.08667969 -0.01740234 1.08667969 -0.01740234 2.1953125 -0.03515625 C7.49285038 -0.00583408 7.49285038 -0.00583408 9.70556641 1.65576172 C11.9594912 4.64937514 11.42903114 8.27892715 11.375 11.875 C11.38660156 12.64714844 11.39820313 13.41929687 11.41015625 14.21484375 C11.38075707 19.86928682 11.38075707 19.86928682 9.70556641 22.09423828 C6.82205668 24.25955348 3.45872434 23.80538882 0 23.75 C-1.08667969 23.76740234 -1.08667969 23.76740234 -2.1953125 23.78515625 C-7.49285038 23.75583408 -7.49285038 23.75583408 -9.70556641 22.09423828 C-11.9594912 19.10062486 -11.42903114 15.47107285 -11.375 11.875 C-11.38660156 11.10285156 -11.39820313 10.33070313 -11.41015625 9.53515625 C-11.38075707 3.88071318 -11.38075707 3.88071318 -9.70556641 1.65576172 C-6.82205668 -0.50955348 -3.45872434 -0.05538882 0 0 Z " fill="#F9F9FD" transform="translate(321,293.625)"/>
<path d="M0 0 C1.19496094 -0.00386719 1.19496094 -0.00386719 2.4140625 -0.0078125 C3.24679687 -0.00007813 4.07953125 0.00765625 4.9375 0.015625 C5.77023437 0.00789063 6.60296875 0.00015625 7.4609375 -0.0078125 C8.25757813 -0.00523437 9.05421875 -0.00265625 9.875 0 C10.60589844 0.00225586 11.33679688 0.00451172 12.08984375 0.00683594 C13.9375 0.265625 13.9375 0.265625 15.9375 2.265625 C16.19628906 4.11328125 16.19628906 4.11328125 16.203125 6.328125 C16.20699219 7.52308594 16.20699219 7.52308594 16.2109375 8.7421875 C16.20320313 9.57492187 16.19546875 10.40765625 16.1875 11.265625 C16.19523437 12.09835937 16.20296875 12.93109375 16.2109375 13.7890625 C16.20835937 14.58570313 16.20578125 15.38234375 16.203125 16.203125 C16.20086914 16.93402344 16.19861328 17.66492188 16.19628906 18.41796875 C15.9375 20.265625 15.9375 20.265625 13.9375 22.265625 C12.08984375 22.52441406 12.08984375 22.52441406 9.875 22.53125 C8.68003906 22.53511719 8.68003906 22.53511719 7.4609375 22.5390625 C6.62820313 22.53132813 5.79546875 22.52359375 4.9375 22.515625 C4.10476563 22.52335937 3.27203125 22.53109375 2.4140625 22.5390625 C1.61742187 22.53648437 0.82078125 22.53390625 0 22.53125 C-0.73089844 22.52899414 -1.46179688 22.52673828 -2.21484375 22.52441406 C-4.0625 22.265625 -4.0625 22.265625 -6.0625 20.265625 C-6.32128906 18.41796875 -6.32128906 18.41796875 -6.328125 16.203125 C-6.33070313 15.40648437 -6.33328125 14.60984375 -6.3359375 13.7890625 C-6.32820313 12.95632813 -6.32046875 12.12359375 -6.3125 11.265625 C-6.32023437 10.43289063 -6.32796875 9.60015625 -6.3359375 8.7421875 C-6.33335937 7.94554687 -6.33078125 7.14890625 -6.328125 6.328125 C-6.32586914 5.59722656 -6.32361328 4.86632812 -6.32128906 4.11328125 C-5.77263541 0.19610124 -3.39292545 0.01047199 0 0 Z " fill="#FCFDFD" transform="translate(316.0625,363.734375)"/>
<path d="M0 0 C0.78052734 0.00322266 1.56105469 0.00644531 2.36523438 0.00976562 C3.53022461 -0.0144043 3.53022461 -0.0144043 4.71875 -0.0390625 C10.43983149 -0.04399022 10.43983149 -0.04399022 12.64916992 1.61450195 C14.81020959 4.50097751 14.3581292 7.86316673 14.30273438 11.32226562 C14.31433594 12.04671875 14.3259375 12.77117187 14.33789062 13.51757812 C14.30857697 18.8135786 14.30857697 18.8135786 12.64916992 21.0300293 C9.64259772 23.28698387 5.97226402 22.70960026 2.36523438 22.63476562 C1.58470703 22.63798828 0.80417969 22.64121094 0 22.64453125 C-5.80509582 22.58943543 -5.80509582 22.58943543 -8.07226562 20.32226562 C-8.33105469 18.47460938 -8.33105469 18.47460938 -8.33789062 16.25976562 C-8.34046875 15.463125 -8.34304688 14.66648437 -8.34570312 13.84570312 C-8.33796875 13.01296875 -8.33023437 12.18023437 -8.32226562 11.32226562 C-8.33 10.48953125 -8.33773438 9.65679687 -8.34570312 8.79882812 C-8.343125 8.0021875 -8.34054687 7.20554687 -8.33789062 6.38476562 C-8.33563477 5.65386719 -8.33337891 4.92296875 -8.33105469 4.16992188 C-7.666588 -0.5741195 -3.93317132 0.03732949 0 0 Z " fill="#FAFCFD" transform="translate(288.072265625,363.677734375)"/>
<path d="M0 0 C3.3 0 6.6 0 10 0 C10 14.52 10 29.04 10 44 C6.7 44 3.4 44 0 44 C0 29.48 0 14.96 0 0 Z " fill="#718FEC" transform="translate(346,336)"/>
<path d="M0 0 C1.40958984 -0.00193359 1.40958984 -0.00193359 2.84765625 -0.00390625 C3.83636719 -0.00003906 4.82507813 0.00382812 5.84375 0.0078125 C7.32681641 0.00201172 7.32681641 0.00201172 8.83984375 -0.00390625 C9.77957031 -0.00261719 10.71929687 -0.00132812 11.6875 0 C12.55568359 0.00112793 13.42386719 0.00225586 14.31835938 0.00341797 C16.34375 0.1328125 16.34375 0.1328125 17.34375 1.1328125 C17.53125 3.5703125 17.53125 3.5703125 17.34375 6.1328125 C14.93545208 8.54111042 14.35091444 8.38883829 11.0625 8.3984375 C10.22074219 8.40101563 9.37898437 8.40359375 8.51171875 8.40625 C7.19107422 8.39464844 7.19107422 8.39464844 5.84375 8.3828125 C4.96332031 8.39054687 4.08289063 8.39828125 3.17578125 8.40625 C2.33402344 8.40367187 1.49226562 8.40109375 0.625 8.3984375 C-0.14779297 8.39618164 -0.92058594 8.39392578 -1.71679688 8.39160156 C-3.65625 8.1328125 -3.65625 8.1328125 -5.65625 6.1328125 C-5.84375 3.5703125 -5.84375 3.5703125 -5.65625 1.1328125 C-4.03424485 -0.48919265 -2.23601969 0.002905 0 0 Z " fill="#7083EC" transform="translate(147.65625,335.8671875)"/>
<path d="M0 0 C1.40958984 -0.00193359 1.40958984 -0.00193359 2.84765625 -0.00390625 C3.83636719 -0.00003906 4.82507813 0.00382812 5.84375 0.0078125 C7.32681641 0.00201172 7.32681641 0.00201172 8.83984375 -0.00390625 C9.77957031 -0.00261719 10.71929687 -0.00132812 11.6875 0 C12.55568359 0.00112793 13.42386719 0.00225586 14.31835938 0.00341797 C16.34375 0.1328125 16.34375 0.1328125 17.34375 1.1328125 C17.53125 3.5703125 17.53125 3.5703125 17.34375 6.1328125 C14.93545208 8.54111042 14.35091444 8.38883829 11.0625 8.3984375 C10.22074219 8.40101563 9.37898437 8.40359375 8.51171875 8.40625 C7.19107422 8.39464844 7.19107422 8.39464844 5.84375 8.3828125 C4.96332031 8.39054687 4.08289063 8.39828125 3.17578125 8.40625 C2.33402344 8.40367187 1.49226562 8.40109375 0.625 8.3984375 C-0.14779297 8.39618164 -0.92058594 8.39392578 -1.71679688 8.39160156 C-3.65625 8.1328125 -3.65625 8.1328125 -5.65625 6.1328125 C-5.84375 3.5703125 -5.84375 3.5703125 -5.65625 1.1328125 C-4.03424485 -0.48919265 -2.23601969 0.002905 0 0 Z " fill="#8673EF" transform="translate(147.65625,285.8671875)"/>
<path d="M0 0 C0.84175781 -0.00257813 1.68351563 -0.00515625 2.55078125 -0.0078125 C3.87142578 0.00378906 3.87142578 0.00378906 5.21875 0.015625 C6.09917969 0.00789062 6.97960937 0.00015625 7.88671875 -0.0078125 C8.72847656 -0.00523437 9.57023438 -0.00265625 10.4375 0 C11.59668945 0.00338379 11.59668945 0.00338379 12.77929688 0.00683594 C14.71875 0.265625 14.71875 0.265625 16.71875 2.265625 C16.90625 4.828125 16.90625 4.828125 16.71875 7.265625 C15.09674485 8.88763015 13.29851969 8.3955325 11.0625 8.3984375 C9.65291016 8.40037109 9.65291016 8.40037109 8.21484375 8.40234375 C7.22613281 8.39847656 6.23742187 8.39460937 5.21875 8.390625 C4.23003906 8.39449219 3.24132812 8.39835938 2.22265625 8.40234375 C1.28292969 8.40105469 0.34320313 8.39976562 -0.625 8.3984375 C-1.49318359 8.39730957 -2.36136719 8.39618164 -3.25585938 8.39501953 C-5.28125 8.265625 -5.28125 8.265625 -6.28125 7.265625 C-6.46875 4.828125 -6.46875 4.828125 -6.28125 2.265625 C-3.87295208 -0.14267292 -3.28841444 0.00959921 0 0 Z " fill="#9962F1" transform="translate(148.28125,234.734375)"/>
<path d="M0 0 C0.84175781 -0.00257813 1.68351563 -0.00515625 2.55078125 -0.0078125 C3.87142578 0.00378906 3.87142578 0.00378906 5.21875 0.015625 C6.09917969 0.00789062 6.97960937 0.00015625 7.88671875 -0.0078125 C8.72847656 -0.00523437 9.57023438 -0.00265625 10.4375 0 C11.59668945 0.00338379 11.59668945 0.00338379 12.77929688 0.00683594 C14.71875 0.265625 14.71875 0.265625 16.71875 2.265625 C16.90625 4.828125 16.90625 4.828125 16.71875 7.265625 C15.71875 8.265625 15.71875 8.265625 13.67749023 8.37915039 C12.80294189 8.37391357 11.92839355 8.36867676 11.02734375 8.36328125 C10.08310547 8.36005859 9.13886719 8.35683594 8.16601562 8.35351562 C7.17279297 8.34513672 6.17957031 8.33675781 5.15625 8.328125 C4.15916016 8.32361328 3.16207031 8.31910156 2.13476562 8.31445312 C-0.33729849 8.30262507 -2.80924518 8.28614349 -5.28125 8.265625 C-5.90625 5.390625 -5.90625 5.390625 -6.28125 2.265625 C-3.87295208 -0.14267292 -3.28841444 0.00959921 0 0 Z " fill="#AC4EF4" transform="translate(148.28125,184.734375)"/>
<path d="M0 0 C0.84175781 -0.00257813 1.68351563 -0.00515625 2.55078125 -0.0078125 C3.87142578 0.00378906 3.87142578 0.00378906 5.21875 0.015625 C6.09917969 0.00789062 6.97960937 0.00015625 7.88671875 -0.0078125 C8.72847656 -0.00523437 9.57023438 -0.00265625 10.4375 0 C11.59668945 0.00338379 11.59668945 0.00338379 12.77929688 0.00683594 C14.71875 0.265625 14.71875 0.265625 16.71875 2.265625 C16.90625 4.828125 16.90625 4.828125 16.71875 7.265625 C15.71875 8.265625 15.71875 8.265625 13.67749023 8.37915039 C12.80294189 8.37391357 11.92839355 8.36867676 11.02734375 8.36328125 C10.08310547 8.36005859 9.13886719 8.35683594 8.16601562 8.35351562 C7.17279297 8.34513672 6.17957031 8.33675781 5.15625 8.328125 C4.15916016 8.32361328 3.16207031 8.31910156 2.13476562 8.31445312 C-0.33729849 8.30262507 -2.80924518 8.28614349 -5.28125 8.265625 C-5.90625 5.390625 -5.90625 5.390625 -6.28125 2.265625 C-3.87295208 -0.14267292 -3.28841444 0.00959921 0 0 Z " fill="#BF3CF7" transform="translate(148.28125,134.734375)"/>
<path d="M0 0 C6.93359375 -0.09765625 6.93359375 -0.09765625 9 0 C10 1 10 1 10.09765625 3.06640625 C10.06510417 5.37760417 10.03255208 7.68880208 10 10 C6.7 10 3.4 10 0 10 C0 6.7 0 3.4 0 0 Z " fill="#779EED" transform="translate(316,370)"/>
<path d="M0 0 C3.3 0 6.6 0 10 0 C10 2.97 10 5.94 10 9 C6.7 9 3.4 9 0 9 C0 6.03 0 3.06 0 0 Z " fill="#7B8CEE" transform="translate(316,336)"/>
<path d="M0 0 C2.97 0 5.94 0 9 0 C9 2.97 9 5.94 9 9 C6.03 9 3.06 9 0 9 C0 6.03 0 3.06 0 0 Z " fill="#6591EB" transform="translate(286,371)"/>
<path d="M0 0 C2.97 0 5.94 0 9 0 C9 2.97 9 5.94 9 9 C6.03 9 3.06 9 0 9 C0 6.03 0 3.06 0 0 Z " fill="#6F82EC" transform="translate(286,336)"/>
<path d="M0 0 C2.97 0 5.94 0 9 0 C9 2.97 9 5.94 9 9 C6.03 9 3.06 9 0 9 C0 6.03 0 3.06 0 0 Z " fill="#7D76EE" transform="translate(347,301)"/>
<path d="M0 0 C2.97 0 5.94 0 9 0 C9 2.97 9 5.94 9 9 C6.03 9 3.06 9 0 9 C0 6.03 0 3.06 0 0 Z " fill="#7D76EE" transform="translate(316,301)"/>
<path d="M0 0 C2.97 0 5.94 0 9 0 C9 2.97 9 5.94 9 9 C6.03 9 3.06 9 0 9 C0 6.03 0 3.06 0 0 Z " fill="#7A73EE" transform="translate(286,301)"/>
</svg>
