<?xml version="1.0" encoding="UTF-8"?>
<svg version="1.1" xmlns="http://www.w3.org/2000/svg" width="512" height="512">
<path d="M0 0 C1.51671886 1.26424817 3.0593383 2.49722026 4.60253906 3.72900391 C19.28864031 15.68237492 33.1902857 29.28168978 44.33349609 44.62451172 C45.62066708 46.38127784 46.9453607 48.10442915 48.27832031 49.82666016 C72.45591287 81.38831197 88.32687017 120.12752123 94.56347656 159.30322266 C94.72428711 160.30675781 94.88509766 161.31029297 95.05078125 162.34423828 C99.15307909 189.19102865 98.85784384 216.50430539 94.56347656 243.30322266 C94.40782227 244.28097656 94.25216797 245.25873047 94.09179688 246.26611328 C83.83070262 307.66882901 48.55341729 366.91574741 -1.70214844 404.01318359 C-3.45613547 405.31781021 -5.18141301 406.65442649 -6.90527344 407.99853516 C-58.49573872 447.71022316 -126.64664264 463.36497081 -190.72607422 455.71557617 C-232.1290536 450.25493496 -271.20213463 435.19680584 -305.43652344 411.30322266 C-306.15565918 410.80177734 -306.87479492 410.30033203 -307.61572266 409.78369141 C-318.02591578 402.43816999 -327.32460976 394.18751632 -336.43652344 385.30322266 C-337.07509277 384.69043457 -337.71366211 384.07764648 -338.37158203 383.44628906 C-346.67181637 375.47831329 -354.27219981 367.3099454 -361.12597656 358.0625 C-362.45449434 356.27909852 -363.81012381 354.5191275 -365.17089844 352.76025391 C-404.6647793 301.10368044 -421.02435224 232.73318877 -412.84033203 168.60058594 C-412.40469949 165.49544331 -411.93264328 162.39924907 -411.43652344 159.30322266 C-411.28086914 158.32546875 -411.12521484 157.34771484 -410.96484375 156.34033203 C-402.66879853 106.69653249 -378.42754956 60.28925426 -343.43652344 24.30322266 C-342.82550781 23.66642578 -342.21449219 23.02962891 -341.58496094 22.37353516 C-333.27930111 13.73697254 -324.82481479 5.71874882 -315.1796875 -1.40234375 C-313.40167473 -2.7226552 -311.64898673 -4.07204745 -309.89746094 -5.42724609 C-231.90738178 -65.10203185 -121.53510399 -69.85830349 0 0 Z " fill="#CEE9FF" transform="translate(414.4365234375,54.69677734375)"/>
<path d="M0 0 C49.25946198 -7.79307697 102.57528961 -12.29923928 145.16934586 17.92722702 C153.08432289 23.69746763 160.37107219 30.1141764 167.44551086 36.87779236 C167.95079189 37.35887577 168.45607292 37.83995918 168.9766655 38.33562088 C203.25952746 71.21813335 212.45951851 107.09024682 213.56284833 153.69205737 C215.80068176 281.76962184 215.80068176 281.76962184 186.07051086 317.75279236 C185.40664368 318.57908142 184.74277649 319.40537048 184.05879211 320.25669861 C169.1202236 337.90132944 147.91552322 349.34994378 125.07051086 352.75279236 C120.73983311 353.02544433 116.42263355 353.02657065 112.08442688 353.01158142 C110.82291809 353.01508606 109.5614093 353.0185907 108.26167297 353.02220154 C104.82977799 353.03124896 101.39800447 353.02781294 97.96610761 353.02144337 C94.35579962 353.01634234 90.74550131 353.02108624 87.13519287 353.0242157 C81.0738185 353.02784394 75.01249303 353.02308683 68.9511261 353.01353455 C61.96878275 353.00265711 54.98655629 353.006175 48.00421578 353.01718736 C41.98349979 353.02629879 35.96281874 353.0275266 29.94209808 353.02231002 C26.35756419 353.01921079 22.77308502 353.01872396 19.18855476 353.025383 C15.18763063 353.03229768 11.18690411 353.02268107 7.18598938 353.01158142 C6.01630112 353.01562988 4.84661285 353.01967834 3.64147949 353.02384949 C-20.35898554 352.90112644 -41.04016865 343.22717181 -58.92948914 327.75279236 C-59.61398132 327.17013611 -60.29847351 326.58747986 -61.00370789 325.98716736 C-78.28060028 310.03926669 -88.31214612 285.35582426 -89.31190461 262.19100022 C-89.66503024 251.33955572 -89.61266753 240.48019892 -89.56818509 229.6245451 C-89.55159942 224.52098814 -89.56063833 219.41746129 -89.56570435 214.31388855 C-89.5702017 205.75404548 -89.55449883 197.19442262 -89.52641296 188.6346283 C-89.49433085 178.78180003 -89.49440059 168.92936765 -89.51162773 159.07651114 C-89.52756493 149.53557425 -89.52071584 139.99478053 -89.50369072 130.45384979 C-89.49687364 126.42078519 -89.49779694 122.38783721 -89.50523567 118.35477448 C-89.51297368 113.59705353 -89.50053089 108.83977609 -89.47338676 104.08213043 C-89.46658139 102.35092992 -89.46631894 100.61968734 -89.47360229 98.88848877 C-89.57406305 71.86925747 -80.68388901 48.1549197 -61.76542664 28.56529236 C-48.17179241 15.08400221 -29.35835047 3.13764187 -9.81124878 1.28475952 C-6.52224114 0.94324252 -3.26590077 0.51804614 0 0 Z " fill="#2097FF" transform="translate(196.9294891357422,79.24720764160156)"/>
<path d="M0 0 C0.639375 -0.01289063 1.27875 -0.02578125 1.9375 -0.0390625 C5.28739367 1.03950175 7.30114011 2.59506319 9 5.625 C9.71633656 10.08849257 9.58030887 14.50935188 9.48828125 19.01953125 C9.48120651 20.32202316 9.47413177 21.62451508 9.46684265 22.96647644 C9.44781513 26.41763884 9.39875439 29.86773739 9.34332275 33.31848145 C9.29203649 36.84433604 9.26930883 40.37036373 9.24414062 43.89648438 C9.19062898 50.80642469 9.10536972 57.71566117 9 64.625 C9.72805344 64.61389694 10.45610687 64.60279388 11.20622253 64.59135437 C18.07696127 64.49105137 24.94759018 64.41498393 31.81887341 64.36593914 C35.35132845 64.33987612 38.88317713 64.30454134 42.4152832 64.24780273 C46.47873661 64.18293936 50.54155598 64.15879268 54.60546875 64.13671875 C55.8702153 64.11091232 57.13496185 64.0851059 58.43803406 64.05851746 C68.20878425 64.0553926 68.20878425 64.0553926 71.30200195 66.93676758 C73.54812844 70.49278465 73.66466231 72.48932338 73 76.625 C70.86320715 80.01439556 69.8225233 81.35082557 66 82.625 C64.14405272 82.71340088 62.28504883 82.74262704 60.42700195 82.73852539 C59.28604568 82.73844986 58.14508942 82.73837433 56.96955872 82.73829651 C55.73823715 82.73313522 54.50691559 82.72797394 53.23828125 82.72265625 C51.97735153 82.7212413 50.71642181 82.71982635 49.4172821 82.71836853 C46.06848291 82.71371575 42.71975189 82.70473342 39.37097168 82.69366455 C35.95239857 82.68342687 32.53381841 82.67886586 29.11523438 82.67382812 C22.41013739 82.66279099 15.70507263 82.64604686 9 82.625 C9.00888245 83.34052536 9.01776489 84.05605072 9.0269165 84.79325867 C9.10716473 91.54633444 9.16801602 98.29927657 9.20724869 105.05272198 C9.22809712 108.52453184 9.25636295 111.99594673 9.30175781 115.4675293 C9.35365439 119.46146369 9.37296773 123.45498515 9.390625 127.44921875 C9.41127014 128.69209152 9.43191528 129.93496429 9.45318604 131.21549988 C9.45363922 132.95673882 9.45363922 132.95673882 9.45410156 134.7331543 C9.46298401 135.75241501 9.47186646 136.77167572 9.48101807 137.82182312 C8.87105851 141.37641834 7.46574053 143.04442822 5 145.625 C2.14675563 147.05162219 0.16545451 146.93533868 -3 146.625 C-5.69990662 144.82506226 -7.5418865 143.541227 -9 140.625 C-9.09101612 138.7764292 -9.11753146 136.92453621 -9.11352539 135.07373047 C-9.11344986 133.91267792 -9.11337433 132.75162537 -9.11329651 131.5553894 C-9.10813522 130.29703278 -9.10297394 129.03867615 -9.09765625 127.7421875 C-9.0962413 126.45764679 -9.09482635 125.17310608 -9.09336853 123.84963989 C-9.08954911 120.43343158 -9.07972373 117.01726574 -9.06866455 113.60107422 C-9.05843807 110.11556574 -9.05386826 106.6300504 -9.04882812 103.14453125 C-9.03810096 96.30467005 -9.02103142 89.46483706 -9 82.625 C-9.71552536 82.63388245 -10.43105072 82.64276489 -11.16825867 82.6519165 C-17.92133444 82.73216473 -24.67427657 82.79301602 -31.42772198 82.83224869 C-34.89953184 82.85309712 -38.37094673 82.88136295 -41.8425293 82.92675781 C-45.83646369 82.97865439 -49.82998515 82.99796773 -53.82421875 83.015625 C-55.68852791 83.04659271 -55.68852791 83.04659271 -57.59049988 83.07818604 C-58.75132584 83.07848816 -59.91215179 83.07879028 -61.1081543 83.07910156 C-62.63704536 83.09242523 -62.63704536 83.09242523 -64.19682312 83.10601807 C-67.75141834 82.49605851 -69.41942822 81.09074053 -72 78.625 C-73.56935594 75.48628812 -73.35201103 73.08644178 -73 69.625 C-71.34867645 66.98101751 -70.67439266 66.03724447 -68 64.625 C-63.53404239 63.91892585 -59.11674541 64.04466874 -54.60546875 64.13671875 C-52.65173088 64.14733086 -52.65173088 64.14733086 -50.65852356 64.15815735 C-47.20736116 64.17718487 -43.75726261 64.22624561 -40.30651855 64.28167725 C-36.78066396 64.33296351 -33.25463627 64.35569117 -29.72851562 64.38085938 C-22.81857531 64.43437102 -15.90933883 64.51963028 -9 64.625 C-9.01665459 63.53291985 -9.01665459 63.53291985 -9.03364563 62.41877747 C-9.13394863 55.54803873 -9.21001607 48.67740982 -9.25906086 41.80612659 C-9.28512388 38.27367155 -9.32045866 34.74182287 -9.37719727 31.2097168 C-9.44206064 27.14626339 -9.46620732 23.08344402 -9.48828125 19.01953125 C-9.51408768 17.7547847 -9.5398941 16.49003815 -9.56648254 15.18696594 C-9.56960671 5.41836895 -9.56960671 5.41836895 -6.59838867 2.3293457 C-4.1175016 0.70207213 -2.92251164 -0.05892161 0 0 Z " fill="#CCE9FF" transform="translate(256,206.375)"/>
</svg>
