<?xml version="1.0" encoding="UTF-8"?>
<svg version="1.1" xmlns="http://www.w3.org/2000/svg" width="512" height="512">
<path d="M0 0 C1.45108658 0.00273422 1.45108658 0.00273422 2.93148804 0.00552368 C17.26440977 0.05095174 31.21023917 0.55983928 45.3125 3.3125 C46.65803955 3.55395752 46.65803955 3.55395752 48.03076172 3.80029297 C107.84088904 14.62287989 165.35495829 48.68064457 202.3125 97.3125 C202.72918945 97.85277832 203.14587891 98.39305664 203.57519531 98.94970703 C211.2584873 108.9447116 218.00092968 119.40459036 224.3125 130.3125 C224.70679199 130.98974121 225.10108398 131.66698242 225.50732422 132.36474609 C238.68961173 155.2833756 247.29510918 180.85822563 252.625 206.6875 C252.77243652 207.39817627 252.91987305 208.10885254 253.07177734 208.84106445 C256.05713787 224.48358366 256.6873098 240.11919606 256.625 256 C256.62226578 257.45108658 256.62226578 257.45108658 256.61947632 258.93148804 C256.57404826 273.26440977 256.06516072 287.21023917 253.3125 301.3125 C253.15152832 302.20952637 252.99055664 303.10655273 252.82470703 304.03076172 C242.00212011 363.84088904 207.94435543 421.35495829 159.3125 458.3125 C158.77222168 458.72918945 158.23194336 459.14587891 157.67529297 459.57519531 C147.6802884 467.2584873 137.22040964 474.00092968 126.3125 480.3125 C125.63525879 480.70679199 124.95801758 481.10108398 124.26025391 481.50732422 C101.3416244 494.68961173 75.76677437 503.29510918 49.9375 508.625 C49.22682373 508.77243652 48.51614746 508.91987305 47.78393555 509.07177734 C32.14141634 512.05713787 16.50580394 512.6873098 0.625 512.625 C-0.34239105 512.62317719 -1.3097821 512.62135437 -2.30648804 512.61947632 C-16.63940977 512.57404826 -30.58523917 512.06516072 -44.6875 509.3125 C-45.58452637 509.15152832 -46.48155273 508.99055664 -47.40576172 508.82470703 C-107.21588904 498.00212011 -164.72995829 463.94435543 -201.6875 415.3125 C-202.10418945 414.77222168 -202.52087891 414.23194336 -202.95019531 413.67529297 C-210.6334873 403.6802884 -217.37592968 393.22040964 -223.6875 382.3125 C-224.08179199 381.63525879 -224.47608398 380.95801758 -224.88232422 380.26025391 C-238.06461173 357.3416244 -246.67010918 331.76677437 -252 305.9375 C-252.14743652 305.22682373 -252.29487305 304.51614746 -252.44677734 303.78393555 C-255.43213787 288.14141634 -256.0623098 272.50580394 -256 256.625 C-255.99817719 255.65760895 -255.99635437 254.6902179 -255.99447632 253.69351196 C-255.94904826 239.36059023 -255.44016072 225.41476083 -252.6875 211.3125 C-252.44604248 209.96696045 -252.44604248 209.96696045 -252.19970703 208.59423828 C-241.37712011 148.78411096 -207.31935543 91.27004171 -158.6875 54.3125 C-158.14722168 53.89581055 -157.60694336 53.47912109 -157.05029297 53.04980469 C-147.0552884 45.3665127 -136.59540964 38.62407032 -125.6875 32.3125 C-125.01025879 31.91820801 -124.33301758 31.52391602 -123.63525391 31.11767578 C-100.7166244 17.93538827 -75.14177437 9.32989082 -49.3125 4 C-48.60182373 3.85256348 -47.89114746 3.70512695 -47.15893555 3.55322266 C-31.51641634 0.56786213 -15.88080394 -0.0623098 0 0 Z " fill="#E57E22" transform="translate(255.6875,-0.3125)"/>
<path d="M0 0 C10.23 0 20.46 0 31 0 C31.66 2.97 32.32 5.94 33 9 C35.70643207 14.41286414 39.40098473 17.78665393 45 20 C51.81969192 21.26403856 57.79492521 20.11709249 63.83203125 16.7578125 C69.09438088 12.49104253 70.71803359 6.40983205 72 0 C78.93 0 85.86 0 93 0 C93.99 3.3 94.98 6.6 96 10 C99.42203747 14.79085246 102.27016528 18.16212849 108 20 C115.15125716 20.87880272 121.09233389 20.30627142 127 16 C132.46580131 10.89858544 132.62617483 7.91275058 135 0 C141.93 0 148.86 0 156 0 C156.99 3.3 157.98 6.6 159 10 C160.90273124 14.7568281 164.03466261 16.76895381 168.46875 19.05078125 C174.68074295 21.38027861 181.21429277 20.63019178 187.24609375 18.046875 C191.78883124 15.33539694 194.49564739 11.01450871 196 6 C196.33 4.02 196.66 2.04 197 0 C207.23 0 217.46 0 228 0 C228 122.1 228 244.2 228 370 C217.77 370 207.54 370 197 370 C196.34 367.36 195.68 364.72 195 362 C192.44054673 356.56116179 188.96945359 354.33057806 183.65234375 351.91796875 C177.98018506 349.9548505 173.22709328 350.19415523 167.75 352.625 C160.31286746 356.86845336 158.7328557 361.80143289 156 370 C149.07 370 142.14 370 135 370 C134.01 367.03 133.02 364.06 132 361 C128.61257473 355.8704703 124.83519732 352.8126791 119 351 C113.13701589 350.0865303 108.00191832 350.63705894 102.8203125 353.60546875 C96.94907927 358.10338777 95.01851982 362.93518064 93 370 C86.07 370 79.14 370 72 370 C71.01 367.03 70.02 364.06 69 361 C65.88976977 355.72690853 61.92789589 352.6795705 56 351 C49.52511653 350.04274979 44.55122281 350.89841743 38.98046875 354.37890625 C33.62661624 358.76125101 32.12094199 363.27434803 31 370 C20.77 370 10.54 370 0 370 C0 247.9 0 125.8 0 0 Z " fill="#FEFEFE" transform="translate(142,85)"/>
<path d="M0 0 C4.45996319 3.82282559 8.72148405 7.57785951 12.83955383 11.72602844 C13.65495196 12.54120328 13.65495196 12.54120328 14.48682278 13.37284631 C16.28697706 15.17368875 18.08354264 16.97806729 19.88012695 18.7824707 C21.17816721 20.08243227 22.47643691 21.38216476 23.7749176 22.6816864 C26.55966529 25.46958397 29.34285455 28.25902465 32.12484169 31.0496769 C36.52124292 35.4596341 40.92148609 39.86574433 45.3223114 44.27128601 C54.65534206 53.61539634 63.98412678 62.96374042 73.3125 72.3125 C83.40094843 82.42296623 93.49012362 92.53270085 103.58416528 102.63758343 C107.96216105 107.02057102 112.33770501 111.40598746 116.71140921 115.79325736 C119.42499839 118.5142822 122.14063648 121.23325492 124.85684776 123.95166206 C126.11952971 125.2162228 127.3813436 126.48165096 128.64224243 127.74798965 C130.35766854 129.47058591 132.0761113 131.19011434 133.79536438 132.90888977 C134.29836903 133.41548939 134.80137369 133.922089 135.31962091 134.44404012 C137.91188019 137.05079848 137.91188019 137.05079848 141 139 C142.41779751 145.01218875 142.17107184 151.5483393 142.203125 157.6953125 C142.21013931 158.59726852 142.21715363 159.49922455 142.22438049 160.42851257 C142.24180732 163.32739297 142.24823387 166.22606913 142.25 169.125 C142.25067474 170.11486908 142.25134949 171.10473816 142.25204468 172.12460327 C142.23630838 186.6344987 141.7869755 200.72193979 139 215 C138.83902832 215.89702637 138.67805664 216.79405273 138.51220703 217.71826172 C127.68962011 277.52838904 93.63185543 335.04245829 45 372 C44.45972168 372.41668945 43.91944336 372.83337891 43.36279297 373.26269531 C33.3677884 380.9459873 22.90790964 387.68842968 12 394 C11.32275879 394.39429199 10.64551758 394.78858398 9.94775391 395.19482422 C-12.9708756 408.37711173 -38.54572563 416.98260918 -64.375 422.3125 C-65.08567627 422.45993652 -65.79635254 422.60737305 -66.52856445 422.75927734 C-82.17108366 425.74463787 -97.80669606 426.3748098 -113.6875 426.3125 C-114.65489105 426.31067719 -115.6222821 426.30885437 -116.61898804 426.30697632 C-130.93681098 426.26159612 -144.91951804 425.81241659 -159 423 C-160.52101318 422.70270996 -160.52101318 422.70270996 -162.07275391 422.39941406 C-186.18283303 417.60730334 -186.18283303 417.60730334 -191.375 410.8125 C-194.50820354 406.82855907 -197.69146701 403.18394707 -201.328125 399.6640625 C-203.72490834 397.27847909 -205.90920973 394.72744074 -208.1171875 392.16796875 C-210.2157532 389.75157049 -212.354397 387.37470976 -214.5 385 C-217.32544666 381.86544464 -220.14504403 378.72650936 -222.9375 375.5625 C-223.48277344 374.94503906 -224.02804688 374.32757813 -224.58984375 373.69140625 C-226 372 -226 372 -228 369 C-217.77 369 -207.54 369 -197 369 C-197 367.02 -197 365.04 -197 363 C-194.61469175 356.92131124 -190.44976928 353.33041456 -185 350 C-179.31978516 348.10659505 -173.25898331 348.07868093 -167.75 350.5625 C-162.47386852 353.56370029 -158.25569427 358.3502237 -156 364 C-156 365.65 -156 367.3 -156 369 C-149.07 369 -142.14 369 -135 369 C-134.67 366.69 -134.34 364.38 -134 362 C-130.69459831 355.67989971 -125.76600405 351.25533468 -119 349 C-112.16555032 348.25950012 -106.62241415 348.87367888 -101 353 C-97.32868145 356.44288095 -94.33331797 360.06672351 -93 365 C-93 366.32 -93 367.64 -93 369 C-86.07 369 -79.14 369 -72 369 C-71.67 366.69 -71.34 364.38 -71 362 C-68.0040003 356.4518524 -64.15854859 352.79268974 -58.6875 349.6875 C-51.50573842 347.85030518 -45.81467305 348.73973883 -39.30859375 352.3125 C-35.47048208 355.11802325 -32.7810032 358.59093109 -31 363 C-31 364.98 -31 366.96 -31 369 C-20.77 369 -10.54 369 0 369 C0 247.23 0 125.46 0 0 Z " fill="#C66620" transform="translate(370,86)"/>
<path d="M0 0 C57.42 0 114.84 0 174 0 C174 5.61 174 11.22 174 17 C116.58 17 59.16 17 0 17 C0 11.39 0 5.78 0 0 Z " fill="#C0C0B8" transform="translate(169,256)"/>
<path d="M0 0 C57.42 0 114.84 0 174 0 C174 5.61 174 11.22 174 17 C116.58 17 59.16 17 0 17 C0 11.39 0 5.78 0 0 Z " fill="#C0C0B8" transform="translate(169,199)"/>
<path d="M0 0 C57.42 0 114.84 0 174 0 C174 5.61 174 11.22 174 17 C116.58 17 59.16 17 0 17 C0 11.39 0 5.78 0 0 Z " fill="#C0C0B8" transform="translate(169,148)"/>
<path d="M0 0 C19.14 0 38.28 0 58 0 C58 5.61 58 11.22 58 17 C38.86 17 19.72 17 0 17 C0 11.39 0 5.78 0 0 Z " fill="#C0C0B8" transform="translate(285,353)"/>
</svg>
